G04 #@! TF.GenerationSoftware,KiCad,Pcbnew,(5.1.5)-3*
G04 #@! TF.CreationDate,2020-10-26T09:13:26-05:00*
G04 #@! TF.ProjectId,ravencanboard,72617665-6e63-4616-9e62-6f6172642e6b,rev?*
G04 #@! TF.SameCoordinates,Original*
G04 #@! TF.FileFunction,Copper,L1,Top*
G04 #@! TF.FilePolarity,Positive*
%FSLAX46Y46*%
G04 Gerber Fmt 4.6, Leading zero omitted, Abs format (unit mm)*
G04 Created by KiCad (PCBNEW (5.1.5)-3) date 2020-10-26 09:13:26*
%MOMM*%
%LPD*%
G04 APERTURE LIST*
%ADD10R,4.500000X2.000000*%
%ADD11C,1.800000*%
%ADD12R,0.450000X1.450000*%
%ADD13C,0.150000*%
%ADD14R,1.700000X1.700000*%
%ADD15O,1.700000X1.700000*%
%ADD16C,0.200000*%
%ADD17C,0.500000*%
%ADD18C,0.400000*%
%ADD19C,0.254000*%
G04 APERTURE END LIST*
D10*
X247768000Y-108966000D03*
X239268000Y-108966000D03*
D11*
X213788000Y-106007200D03*
X213788000Y-108547200D03*
D12*
X229485400Y-104936800D03*
X230135400Y-104936800D03*
X230785400Y-104936800D03*
X231435400Y-104936800D03*
X232085400Y-104936800D03*
X232735400Y-104936800D03*
X233385400Y-104936800D03*
X234035400Y-104936800D03*
X234685400Y-104936800D03*
X235335400Y-104936800D03*
X235335400Y-110836800D03*
X234685400Y-110836800D03*
X234035400Y-110836800D03*
X233385400Y-110836800D03*
X232735400Y-110836800D03*
X232085400Y-110836800D03*
X231435400Y-110836800D03*
X230785400Y-110836800D03*
X230135400Y-110836800D03*
X229485400Y-110836800D03*
G04 #@! TA.AperFunction,SMDPad,CuDef*
D13*
G36*
X216923179Y-107487344D02*
G01*
X216946234Y-107490763D01*
X216968843Y-107496427D01*
X216990787Y-107504279D01*
X217011857Y-107514244D01*
X217031848Y-107526226D01*
X217050568Y-107540110D01*
X217067838Y-107555762D01*
X217083490Y-107573032D01*
X217097374Y-107591752D01*
X217109356Y-107611743D01*
X217119321Y-107632813D01*
X217127173Y-107654757D01*
X217132837Y-107677366D01*
X217136256Y-107700421D01*
X217137400Y-107723700D01*
X217137400Y-108298700D01*
X217136256Y-108321979D01*
X217132837Y-108345034D01*
X217127173Y-108367643D01*
X217119321Y-108389587D01*
X217109356Y-108410657D01*
X217097374Y-108430648D01*
X217083490Y-108449368D01*
X217067838Y-108466638D01*
X217050568Y-108482290D01*
X217031848Y-108496174D01*
X217011857Y-108508156D01*
X216990787Y-108518121D01*
X216968843Y-108525973D01*
X216946234Y-108531637D01*
X216923179Y-108535056D01*
X216899900Y-108536200D01*
X216424900Y-108536200D01*
X216401621Y-108535056D01*
X216378566Y-108531637D01*
X216355957Y-108525973D01*
X216334013Y-108518121D01*
X216312943Y-108508156D01*
X216292952Y-108496174D01*
X216274232Y-108482290D01*
X216256962Y-108466638D01*
X216241310Y-108449368D01*
X216227426Y-108430648D01*
X216215444Y-108410657D01*
X216205479Y-108389587D01*
X216197627Y-108367643D01*
X216191963Y-108345034D01*
X216188544Y-108321979D01*
X216187400Y-108298700D01*
X216187400Y-107723700D01*
X216188544Y-107700421D01*
X216191963Y-107677366D01*
X216197627Y-107654757D01*
X216205479Y-107632813D01*
X216215444Y-107611743D01*
X216227426Y-107591752D01*
X216241310Y-107573032D01*
X216256962Y-107555762D01*
X216274232Y-107540110D01*
X216292952Y-107526226D01*
X216312943Y-107514244D01*
X216334013Y-107504279D01*
X216355957Y-107496427D01*
X216378566Y-107490763D01*
X216401621Y-107487344D01*
X216424900Y-107486200D01*
X216899900Y-107486200D01*
X216923179Y-107487344D01*
G37*
G04 #@! TD.AperFunction*
G04 #@! TA.AperFunction,SMDPad,CuDef*
G36*
X216923179Y-105737344D02*
G01*
X216946234Y-105740763D01*
X216968843Y-105746427D01*
X216990787Y-105754279D01*
X217011857Y-105764244D01*
X217031848Y-105776226D01*
X217050568Y-105790110D01*
X217067838Y-105805762D01*
X217083490Y-105823032D01*
X217097374Y-105841752D01*
X217109356Y-105861743D01*
X217119321Y-105882813D01*
X217127173Y-105904757D01*
X217132837Y-105927366D01*
X217136256Y-105950421D01*
X217137400Y-105973700D01*
X217137400Y-106548700D01*
X217136256Y-106571979D01*
X217132837Y-106595034D01*
X217127173Y-106617643D01*
X217119321Y-106639587D01*
X217109356Y-106660657D01*
X217097374Y-106680648D01*
X217083490Y-106699368D01*
X217067838Y-106716638D01*
X217050568Y-106732290D01*
X217031848Y-106746174D01*
X217011857Y-106758156D01*
X216990787Y-106768121D01*
X216968843Y-106775973D01*
X216946234Y-106781637D01*
X216923179Y-106785056D01*
X216899900Y-106786200D01*
X216424900Y-106786200D01*
X216401621Y-106785056D01*
X216378566Y-106781637D01*
X216355957Y-106775973D01*
X216334013Y-106768121D01*
X216312943Y-106758156D01*
X216292952Y-106746174D01*
X216274232Y-106732290D01*
X216256962Y-106716638D01*
X216241310Y-106699368D01*
X216227426Y-106680648D01*
X216215444Y-106660657D01*
X216205479Y-106639587D01*
X216197627Y-106617643D01*
X216191963Y-106595034D01*
X216188544Y-106571979D01*
X216187400Y-106548700D01*
X216187400Y-105973700D01*
X216188544Y-105950421D01*
X216191963Y-105927366D01*
X216197627Y-105904757D01*
X216205479Y-105882813D01*
X216215444Y-105861743D01*
X216227426Y-105841752D01*
X216241310Y-105823032D01*
X216256962Y-105805762D01*
X216274232Y-105790110D01*
X216292952Y-105776226D01*
X216312943Y-105764244D01*
X216334013Y-105754279D01*
X216355957Y-105746427D01*
X216378566Y-105740763D01*
X216401621Y-105737344D01*
X216424900Y-105736200D01*
X216899900Y-105736200D01*
X216923179Y-105737344D01*
G37*
G04 #@! TD.AperFunction*
G04 #@! TA.AperFunction,SMDPad,CuDef*
G36*
X223283779Y-103298144D02*
G01*
X223306834Y-103301563D01*
X223329443Y-103307227D01*
X223351387Y-103315079D01*
X223372457Y-103325044D01*
X223392448Y-103337026D01*
X223411168Y-103350910D01*
X223428438Y-103366562D01*
X223444090Y-103383832D01*
X223457974Y-103402552D01*
X223469956Y-103422543D01*
X223479921Y-103443613D01*
X223487773Y-103465557D01*
X223493437Y-103488166D01*
X223496856Y-103511221D01*
X223498000Y-103534500D01*
X223498000Y-104009500D01*
X223496856Y-104032779D01*
X223493437Y-104055834D01*
X223487773Y-104078443D01*
X223479921Y-104100387D01*
X223469956Y-104121457D01*
X223457974Y-104141448D01*
X223444090Y-104160168D01*
X223428438Y-104177438D01*
X223411168Y-104193090D01*
X223392448Y-104206974D01*
X223372457Y-104218956D01*
X223351387Y-104228921D01*
X223329443Y-104236773D01*
X223306834Y-104242437D01*
X223283779Y-104245856D01*
X223260500Y-104247000D01*
X222685500Y-104247000D01*
X222662221Y-104245856D01*
X222639166Y-104242437D01*
X222616557Y-104236773D01*
X222594613Y-104228921D01*
X222573543Y-104218956D01*
X222553552Y-104206974D01*
X222534832Y-104193090D01*
X222517562Y-104177438D01*
X222501910Y-104160168D01*
X222488026Y-104141448D01*
X222476044Y-104121457D01*
X222466079Y-104100387D01*
X222458227Y-104078443D01*
X222452563Y-104055834D01*
X222449144Y-104032779D01*
X222448000Y-104009500D01*
X222448000Y-103534500D01*
X222449144Y-103511221D01*
X222452563Y-103488166D01*
X222458227Y-103465557D01*
X222466079Y-103443613D01*
X222476044Y-103422543D01*
X222488026Y-103402552D01*
X222501910Y-103383832D01*
X222517562Y-103366562D01*
X222534832Y-103350910D01*
X222553552Y-103337026D01*
X222573543Y-103325044D01*
X222594613Y-103315079D01*
X222616557Y-103307227D01*
X222639166Y-103301563D01*
X222662221Y-103298144D01*
X222685500Y-103297000D01*
X223260500Y-103297000D01*
X223283779Y-103298144D01*
G37*
G04 #@! TD.AperFunction*
G04 #@! TA.AperFunction,SMDPad,CuDef*
G36*
X221533779Y-103298144D02*
G01*
X221556834Y-103301563D01*
X221579443Y-103307227D01*
X221601387Y-103315079D01*
X221622457Y-103325044D01*
X221642448Y-103337026D01*
X221661168Y-103350910D01*
X221678438Y-103366562D01*
X221694090Y-103383832D01*
X221707974Y-103402552D01*
X221719956Y-103422543D01*
X221729921Y-103443613D01*
X221737773Y-103465557D01*
X221743437Y-103488166D01*
X221746856Y-103511221D01*
X221748000Y-103534500D01*
X221748000Y-104009500D01*
X221746856Y-104032779D01*
X221743437Y-104055834D01*
X221737773Y-104078443D01*
X221729921Y-104100387D01*
X221719956Y-104121457D01*
X221707974Y-104141448D01*
X221694090Y-104160168D01*
X221678438Y-104177438D01*
X221661168Y-104193090D01*
X221642448Y-104206974D01*
X221622457Y-104218956D01*
X221601387Y-104228921D01*
X221579443Y-104236773D01*
X221556834Y-104242437D01*
X221533779Y-104245856D01*
X221510500Y-104247000D01*
X220935500Y-104247000D01*
X220912221Y-104245856D01*
X220889166Y-104242437D01*
X220866557Y-104236773D01*
X220844613Y-104228921D01*
X220823543Y-104218956D01*
X220803552Y-104206974D01*
X220784832Y-104193090D01*
X220767562Y-104177438D01*
X220751910Y-104160168D01*
X220738026Y-104141448D01*
X220726044Y-104121457D01*
X220716079Y-104100387D01*
X220708227Y-104078443D01*
X220702563Y-104055834D01*
X220699144Y-104032779D01*
X220698000Y-104009500D01*
X220698000Y-103534500D01*
X220699144Y-103511221D01*
X220702563Y-103488166D01*
X220708227Y-103465557D01*
X220716079Y-103443613D01*
X220726044Y-103422543D01*
X220738026Y-103402552D01*
X220751910Y-103383832D01*
X220767562Y-103366562D01*
X220784832Y-103350910D01*
X220803552Y-103337026D01*
X220823543Y-103325044D01*
X220844613Y-103315079D01*
X220866557Y-103307227D01*
X220889166Y-103301563D01*
X220912221Y-103298144D01*
X220935500Y-103297000D01*
X221510500Y-103297000D01*
X221533779Y-103298144D01*
G37*
G04 #@! TD.AperFunction*
G04 #@! TA.AperFunction,SMDPad,CuDef*
G36*
X228200779Y-106437144D02*
G01*
X228223834Y-106440563D01*
X228246443Y-106446227D01*
X228268387Y-106454079D01*
X228289457Y-106464044D01*
X228309448Y-106476026D01*
X228328168Y-106489910D01*
X228345438Y-106505562D01*
X228361090Y-106522832D01*
X228374974Y-106541552D01*
X228386956Y-106561543D01*
X228396921Y-106582613D01*
X228404773Y-106604557D01*
X228410437Y-106627166D01*
X228413856Y-106650221D01*
X228415000Y-106673500D01*
X228415000Y-107248500D01*
X228413856Y-107271779D01*
X228410437Y-107294834D01*
X228404773Y-107317443D01*
X228396921Y-107339387D01*
X228386956Y-107360457D01*
X228374974Y-107380448D01*
X228361090Y-107399168D01*
X228345438Y-107416438D01*
X228328168Y-107432090D01*
X228309448Y-107445974D01*
X228289457Y-107457956D01*
X228268387Y-107467921D01*
X228246443Y-107475773D01*
X228223834Y-107481437D01*
X228200779Y-107484856D01*
X228177500Y-107486000D01*
X227702500Y-107486000D01*
X227679221Y-107484856D01*
X227656166Y-107481437D01*
X227633557Y-107475773D01*
X227611613Y-107467921D01*
X227590543Y-107457956D01*
X227570552Y-107445974D01*
X227551832Y-107432090D01*
X227534562Y-107416438D01*
X227518910Y-107399168D01*
X227505026Y-107380448D01*
X227493044Y-107360457D01*
X227483079Y-107339387D01*
X227475227Y-107317443D01*
X227469563Y-107294834D01*
X227466144Y-107271779D01*
X227465000Y-107248500D01*
X227465000Y-106673500D01*
X227466144Y-106650221D01*
X227469563Y-106627166D01*
X227475227Y-106604557D01*
X227483079Y-106582613D01*
X227493044Y-106561543D01*
X227505026Y-106541552D01*
X227518910Y-106522832D01*
X227534562Y-106505562D01*
X227551832Y-106489910D01*
X227570552Y-106476026D01*
X227590543Y-106464044D01*
X227611613Y-106454079D01*
X227633557Y-106446227D01*
X227656166Y-106440563D01*
X227679221Y-106437144D01*
X227702500Y-106436000D01*
X228177500Y-106436000D01*
X228200779Y-106437144D01*
G37*
G04 #@! TD.AperFunction*
G04 #@! TA.AperFunction,SMDPad,CuDef*
G36*
X228200779Y-108187144D02*
G01*
X228223834Y-108190563D01*
X228246443Y-108196227D01*
X228268387Y-108204079D01*
X228289457Y-108214044D01*
X228309448Y-108226026D01*
X228328168Y-108239910D01*
X228345438Y-108255562D01*
X228361090Y-108272832D01*
X228374974Y-108291552D01*
X228386956Y-108311543D01*
X228396921Y-108332613D01*
X228404773Y-108354557D01*
X228410437Y-108377166D01*
X228413856Y-108400221D01*
X228415000Y-108423500D01*
X228415000Y-108998500D01*
X228413856Y-109021779D01*
X228410437Y-109044834D01*
X228404773Y-109067443D01*
X228396921Y-109089387D01*
X228386956Y-109110457D01*
X228374974Y-109130448D01*
X228361090Y-109149168D01*
X228345438Y-109166438D01*
X228328168Y-109182090D01*
X228309448Y-109195974D01*
X228289457Y-109207956D01*
X228268387Y-109217921D01*
X228246443Y-109225773D01*
X228223834Y-109231437D01*
X228200779Y-109234856D01*
X228177500Y-109236000D01*
X227702500Y-109236000D01*
X227679221Y-109234856D01*
X227656166Y-109231437D01*
X227633557Y-109225773D01*
X227611613Y-109217921D01*
X227590543Y-109207956D01*
X227570552Y-109195974D01*
X227551832Y-109182090D01*
X227534562Y-109166438D01*
X227518910Y-109149168D01*
X227505026Y-109130448D01*
X227493044Y-109110457D01*
X227483079Y-109089387D01*
X227475227Y-109067443D01*
X227469563Y-109044834D01*
X227466144Y-109021779D01*
X227465000Y-108998500D01*
X227465000Y-108423500D01*
X227466144Y-108400221D01*
X227469563Y-108377166D01*
X227475227Y-108354557D01*
X227483079Y-108332613D01*
X227493044Y-108311543D01*
X227505026Y-108291552D01*
X227518910Y-108272832D01*
X227534562Y-108255562D01*
X227551832Y-108239910D01*
X227570552Y-108226026D01*
X227590543Y-108214044D01*
X227611613Y-108204079D01*
X227633557Y-108196227D01*
X227656166Y-108190563D01*
X227679221Y-108187144D01*
X227702500Y-108186000D01*
X228177500Y-108186000D01*
X228200779Y-108187144D01*
G37*
G04 #@! TD.AperFunction*
D14*
X208370000Y-98770000D03*
D15*
X208370000Y-96230000D03*
X210910000Y-98770000D03*
X210910000Y-96230000D03*
X213450000Y-98770000D03*
X213450000Y-96230000D03*
X215990000Y-98770000D03*
X215990000Y-96230000D03*
X218530000Y-98770000D03*
X218530000Y-96230000D03*
X221070000Y-98770000D03*
X221070000Y-96230000D03*
X223610000Y-98770000D03*
X223610000Y-96230000D03*
X226150000Y-98770000D03*
X226150000Y-96230000D03*
X228690000Y-98770000D03*
X228690000Y-96230000D03*
X231230000Y-98770000D03*
X231230000Y-96230000D03*
X233770000Y-98770000D03*
X233770000Y-96230000D03*
X236310000Y-98770000D03*
X236310000Y-96230000D03*
X238850000Y-98770000D03*
X238850000Y-96230000D03*
X241390000Y-98770000D03*
X241390000Y-96230000D03*
X243930000Y-98770000D03*
X243930000Y-96230000D03*
X246470000Y-98770000D03*
X246470000Y-96230000D03*
X249010000Y-98770000D03*
X249010000Y-96230000D03*
X251550000Y-98770000D03*
X251550000Y-96230000D03*
X254090000Y-98770000D03*
X254090000Y-96230000D03*
X256630000Y-98770000D03*
X256630000Y-96230000D03*
G04 #@! TA.AperFunction,SMDPad,CuDef*
D13*
G36*
X221787779Y-110410144D02*
G01*
X221810834Y-110413563D01*
X221833443Y-110419227D01*
X221855387Y-110427079D01*
X221876457Y-110437044D01*
X221896448Y-110449026D01*
X221915168Y-110462910D01*
X221932438Y-110478562D01*
X221948090Y-110495832D01*
X221961974Y-110514552D01*
X221973956Y-110534543D01*
X221983921Y-110555613D01*
X221991773Y-110577557D01*
X221997437Y-110600166D01*
X222000856Y-110623221D01*
X222002000Y-110646500D01*
X222002000Y-111121500D01*
X222000856Y-111144779D01*
X221997437Y-111167834D01*
X221991773Y-111190443D01*
X221983921Y-111212387D01*
X221973956Y-111233457D01*
X221961974Y-111253448D01*
X221948090Y-111272168D01*
X221932438Y-111289438D01*
X221915168Y-111305090D01*
X221896448Y-111318974D01*
X221876457Y-111330956D01*
X221855387Y-111340921D01*
X221833443Y-111348773D01*
X221810834Y-111354437D01*
X221787779Y-111357856D01*
X221764500Y-111359000D01*
X221189500Y-111359000D01*
X221166221Y-111357856D01*
X221143166Y-111354437D01*
X221120557Y-111348773D01*
X221098613Y-111340921D01*
X221077543Y-111330956D01*
X221057552Y-111318974D01*
X221038832Y-111305090D01*
X221021562Y-111289438D01*
X221005910Y-111272168D01*
X220992026Y-111253448D01*
X220980044Y-111233457D01*
X220970079Y-111212387D01*
X220962227Y-111190443D01*
X220956563Y-111167834D01*
X220953144Y-111144779D01*
X220952000Y-111121500D01*
X220952000Y-110646500D01*
X220953144Y-110623221D01*
X220956563Y-110600166D01*
X220962227Y-110577557D01*
X220970079Y-110555613D01*
X220980044Y-110534543D01*
X220992026Y-110514552D01*
X221005910Y-110495832D01*
X221021562Y-110478562D01*
X221038832Y-110462910D01*
X221057552Y-110449026D01*
X221077543Y-110437044D01*
X221098613Y-110427079D01*
X221120557Y-110419227D01*
X221143166Y-110413563D01*
X221166221Y-110410144D01*
X221189500Y-110409000D01*
X221764500Y-110409000D01*
X221787779Y-110410144D01*
G37*
G04 #@! TD.AperFunction*
G04 #@! TA.AperFunction,SMDPad,CuDef*
G36*
X223537779Y-110410144D02*
G01*
X223560834Y-110413563D01*
X223583443Y-110419227D01*
X223605387Y-110427079D01*
X223626457Y-110437044D01*
X223646448Y-110449026D01*
X223665168Y-110462910D01*
X223682438Y-110478562D01*
X223698090Y-110495832D01*
X223711974Y-110514552D01*
X223723956Y-110534543D01*
X223733921Y-110555613D01*
X223741773Y-110577557D01*
X223747437Y-110600166D01*
X223750856Y-110623221D01*
X223752000Y-110646500D01*
X223752000Y-111121500D01*
X223750856Y-111144779D01*
X223747437Y-111167834D01*
X223741773Y-111190443D01*
X223733921Y-111212387D01*
X223723956Y-111233457D01*
X223711974Y-111253448D01*
X223698090Y-111272168D01*
X223682438Y-111289438D01*
X223665168Y-111305090D01*
X223646448Y-111318974D01*
X223626457Y-111330956D01*
X223605387Y-111340921D01*
X223583443Y-111348773D01*
X223560834Y-111354437D01*
X223537779Y-111357856D01*
X223514500Y-111359000D01*
X222939500Y-111359000D01*
X222916221Y-111357856D01*
X222893166Y-111354437D01*
X222870557Y-111348773D01*
X222848613Y-111340921D01*
X222827543Y-111330956D01*
X222807552Y-111318974D01*
X222788832Y-111305090D01*
X222771562Y-111289438D01*
X222755910Y-111272168D01*
X222742026Y-111253448D01*
X222730044Y-111233457D01*
X222720079Y-111212387D01*
X222712227Y-111190443D01*
X222706563Y-111167834D01*
X222703144Y-111144779D01*
X222702000Y-111121500D01*
X222702000Y-110646500D01*
X222703144Y-110623221D01*
X222706563Y-110600166D01*
X222712227Y-110577557D01*
X222720079Y-110555613D01*
X222730044Y-110534543D01*
X222742026Y-110514552D01*
X222755910Y-110495832D01*
X222771562Y-110478562D01*
X222788832Y-110462910D01*
X222807552Y-110449026D01*
X222827543Y-110437044D01*
X222848613Y-110427079D01*
X222870557Y-110419227D01*
X222893166Y-110413563D01*
X222916221Y-110410144D01*
X222939500Y-110409000D01*
X223514500Y-110409000D01*
X223537779Y-110410144D01*
G37*
G04 #@! TD.AperFunction*
G04 #@! TA.AperFunction,SMDPad,CuDef*
G36*
X229153779Y-102282144D02*
G01*
X229176834Y-102285563D01*
X229199443Y-102291227D01*
X229221387Y-102299079D01*
X229242457Y-102309044D01*
X229262448Y-102321026D01*
X229281168Y-102334910D01*
X229298438Y-102350562D01*
X229314090Y-102367832D01*
X229327974Y-102386552D01*
X229339956Y-102406543D01*
X229349921Y-102427613D01*
X229357773Y-102449557D01*
X229363437Y-102472166D01*
X229366856Y-102495221D01*
X229368000Y-102518500D01*
X229368000Y-102993500D01*
X229366856Y-103016779D01*
X229363437Y-103039834D01*
X229357773Y-103062443D01*
X229349921Y-103084387D01*
X229339956Y-103105457D01*
X229327974Y-103125448D01*
X229314090Y-103144168D01*
X229298438Y-103161438D01*
X229281168Y-103177090D01*
X229262448Y-103190974D01*
X229242457Y-103202956D01*
X229221387Y-103212921D01*
X229199443Y-103220773D01*
X229176834Y-103226437D01*
X229153779Y-103229856D01*
X229130500Y-103231000D01*
X228555500Y-103231000D01*
X228532221Y-103229856D01*
X228509166Y-103226437D01*
X228486557Y-103220773D01*
X228464613Y-103212921D01*
X228443543Y-103202956D01*
X228423552Y-103190974D01*
X228404832Y-103177090D01*
X228387562Y-103161438D01*
X228371910Y-103144168D01*
X228358026Y-103125448D01*
X228346044Y-103105457D01*
X228336079Y-103084387D01*
X228328227Y-103062443D01*
X228322563Y-103039834D01*
X228319144Y-103016779D01*
X228318000Y-102993500D01*
X228318000Y-102518500D01*
X228319144Y-102495221D01*
X228322563Y-102472166D01*
X228328227Y-102449557D01*
X228336079Y-102427613D01*
X228346044Y-102406543D01*
X228358026Y-102386552D01*
X228371910Y-102367832D01*
X228387562Y-102350562D01*
X228404832Y-102334910D01*
X228423552Y-102321026D01*
X228443543Y-102309044D01*
X228464613Y-102299079D01*
X228486557Y-102291227D01*
X228509166Y-102285563D01*
X228532221Y-102282144D01*
X228555500Y-102281000D01*
X229130500Y-102281000D01*
X229153779Y-102282144D01*
G37*
G04 #@! TD.AperFunction*
G04 #@! TA.AperFunction,SMDPad,CuDef*
G36*
X230903779Y-102282144D02*
G01*
X230926834Y-102285563D01*
X230949443Y-102291227D01*
X230971387Y-102299079D01*
X230992457Y-102309044D01*
X231012448Y-102321026D01*
X231031168Y-102334910D01*
X231048438Y-102350562D01*
X231064090Y-102367832D01*
X231077974Y-102386552D01*
X231089956Y-102406543D01*
X231099921Y-102427613D01*
X231107773Y-102449557D01*
X231113437Y-102472166D01*
X231116856Y-102495221D01*
X231118000Y-102518500D01*
X231118000Y-102993500D01*
X231116856Y-103016779D01*
X231113437Y-103039834D01*
X231107773Y-103062443D01*
X231099921Y-103084387D01*
X231089956Y-103105457D01*
X231077974Y-103125448D01*
X231064090Y-103144168D01*
X231048438Y-103161438D01*
X231031168Y-103177090D01*
X231012448Y-103190974D01*
X230992457Y-103202956D01*
X230971387Y-103212921D01*
X230949443Y-103220773D01*
X230926834Y-103226437D01*
X230903779Y-103229856D01*
X230880500Y-103231000D01*
X230305500Y-103231000D01*
X230282221Y-103229856D01*
X230259166Y-103226437D01*
X230236557Y-103220773D01*
X230214613Y-103212921D01*
X230193543Y-103202956D01*
X230173552Y-103190974D01*
X230154832Y-103177090D01*
X230137562Y-103161438D01*
X230121910Y-103144168D01*
X230108026Y-103125448D01*
X230096044Y-103105457D01*
X230086079Y-103084387D01*
X230078227Y-103062443D01*
X230072563Y-103039834D01*
X230069144Y-103016779D01*
X230068000Y-102993500D01*
X230068000Y-102518500D01*
X230069144Y-102495221D01*
X230072563Y-102472166D01*
X230078227Y-102449557D01*
X230086079Y-102427613D01*
X230096044Y-102406543D01*
X230108026Y-102386552D01*
X230121910Y-102367832D01*
X230137562Y-102350562D01*
X230154832Y-102334910D01*
X230173552Y-102321026D01*
X230193543Y-102309044D01*
X230214613Y-102299079D01*
X230236557Y-102291227D01*
X230259166Y-102285563D01*
X230282221Y-102282144D01*
X230305500Y-102281000D01*
X230880500Y-102281000D01*
X230903779Y-102282144D01*
G37*
G04 #@! TD.AperFunction*
G04 #@! TA.AperFunction,SMDPad,CuDef*
G36*
X220564303Y-108730522D02*
G01*
X220578864Y-108732682D01*
X220593143Y-108736259D01*
X220607003Y-108741218D01*
X220620310Y-108747512D01*
X220632936Y-108755080D01*
X220644759Y-108763848D01*
X220655666Y-108773734D01*
X220665552Y-108784641D01*
X220674320Y-108796464D01*
X220681888Y-108809090D01*
X220688182Y-108822397D01*
X220693141Y-108836257D01*
X220696718Y-108850536D01*
X220698878Y-108865097D01*
X220699600Y-108879800D01*
X220699600Y-109179800D01*
X220698878Y-109194503D01*
X220696718Y-109209064D01*
X220693141Y-109223343D01*
X220688182Y-109237203D01*
X220681888Y-109250510D01*
X220674320Y-109263136D01*
X220665552Y-109274959D01*
X220655666Y-109285866D01*
X220644759Y-109295752D01*
X220632936Y-109304520D01*
X220620310Y-109312088D01*
X220607003Y-109318382D01*
X220593143Y-109323341D01*
X220578864Y-109326918D01*
X220564303Y-109329078D01*
X220549600Y-109329800D01*
X218899600Y-109329800D01*
X218884897Y-109329078D01*
X218870336Y-109326918D01*
X218856057Y-109323341D01*
X218842197Y-109318382D01*
X218828890Y-109312088D01*
X218816264Y-109304520D01*
X218804441Y-109295752D01*
X218793534Y-109285866D01*
X218783648Y-109274959D01*
X218774880Y-109263136D01*
X218767312Y-109250510D01*
X218761018Y-109237203D01*
X218756059Y-109223343D01*
X218752482Y-109209064D01*
X218750322Y-109194503D01*
X218749600Y-109179800D01*
X218749600Y-108879800D01*
X218750322Y-108865097D01*
X218752482Y-108850536D01*
X218756059Y-108836257D01*
X218761018Y-108822397D01*
X218767312Y-108809090D01*
X218774880Y-108796464D01*
X218783648Y-108784641D01*
X218793534Y-108773734D01*
X218804441Y-108763848D01*
X218816264Y-108755080D01*
X218828890Y-108747512D01*
X218842197Y-108741218D01*
X218856057Y-108736259D01*
X218870336Y-108732682D01*
X218884897Y-108730522D01*
X218899600Y-108729800D01*
X220549600Y-108729800D01*
X220564303Y-108730522D01*
G37*
G04 #@! TD.AperFunction*
G04 #@! TA.AperFunction,SMDPad,CuDef*
G36*
X220564303Y-107460522D02*
G01*
X220578864Y-107462682D01*
X220593143Y-107466259D01*
X220607003Y-107471218D01*
X220620310Y-107477512D01*
X220632936Y-107485080D01*
X220644759Y-107493848D01*
X220655666Y-107503734D01*
X220665552Y-107514641D01*
X220674320Y-107526464D01*
X220681888Y-107539090D01*
X220688182Y-107552397D01*
X220693141Y-107566257D01*
X220696718Y-107580536D01*
X220698878Y-107595097D01*
X220699600Y-107609800D01*
X220699600Y-107909800D01*
X220698878Y-107924503D01*
X220696718Y-107939064D01*
X220693141Y-107953343D01*
X220688182Y-107967203D01*
X220681888Y-107980510D01*
X220674320Y-107993136D01*
X220665552Y-108004959D01*
X220655666Y-108015866D01*
X220644759Y-108025752D01*
X220632936Y-108034520D01*
X220620310Y-108042088D01*
X220607003Y-108048382D01*
X220593143Y-108053341D01*
X220578864Y-108056918D01*
X220564303Y-108059078D01*
X220549600Y-108059800D01*
X218899600Y-108059800D01*
X218884897Y-108059078D01*
X218870336Y-108056918D01*
X218856057Y-108053341D01*
X218842197Y-108048382D01*
X218828890Y-108042088D01*
X218816264Y-108034520D01*
X218804441Y-108025752D01*
X218793534Y-108015866D01*
X218783648Y-108004959D01*
X218774880Y-107993136D01*
X218767312Y-107980510D01*
X218761018Y-107967203D01*
X218756059Y-107953343D01*
X218752482Y-107939064D01*
X218750322Y-107924503D01*
X218749600Y-107909800D01*
X218749600Y-107609800D01*
X218750322Y-107595097D01*
X218752482Y-107580536D01*
X218756059Y-107566257D01*
X218761018Y-107552397D01*
X218767312Y-107539090D01*
X218774880Y-107526464D01*
X218783648Y-107514641D01*
X218793534Y-107503734D01*
X218804441Y-107493848D01*
X218816264Y-107485080D01*
X218828890Y-107477512D01*
X218842197Y-107471218D01*
X218856057Y-107466259D01*
X218870336Y-107462682D01*
X218884897Y-107460522D01*
X218899600Y-107459800D01*
X220549600Y-107459800D01*
X220564303Y-107460522D01*
G37*
G04 #@! TD.AperFunction*
G04 #@! TA.AperFunction,SMDPad,CuDef*
G36*
X220564303Y-106190522D02*
G01*
X220578864Y-106192682D01*
X220593143Y-106196259D01*
X220607003Y-106201218D01*
X220620310Y-106207512D01*
X220632936Y-106215080D01*
X220644759Y-106223848D01*
X220655666Y-106233734D01*
X220665552Y-106244641D01*
X220674320Y-106256464D01*
X220681888Y-106269090D01*
X220688182Y-106282397D01*
X220693141Y-106296257D01*
X220696718Y-106310536D01*
X220698878Y-106325097D01*
X220699600Y-106339800D01*
X220699600Y-106639800D01*
X220698878Y-106654503D01*
X220696718Y-106669064D01*
X220693141Y-106683343D01*
X220688182Y-106697203D01*
X220681888Y-106710510D01*
X220674320Y-106723136D01*
X220665552Y-106734959D01*
X220655666Y-106745866D01*
X220644759Y-106755752D01*
X220632936Y-106764520D01*
X220620310Y-106772088D01*
X220607003Y-106778382D01*
X220593143Y-106783341D01*
X220578864Y-106786918D01*
X220564303Y-106789078D01*
X220549600Y-106789800D01*
X218899600Y-106789800D01*
X218884897Y-106789078D01*
X218870336Y-106786918D01*
X218856057Y-106783341D01*
X218842197Y-106778382D01*
X218828890Y-106772088D01*
X218816264Y-106764520D01*
X218804441Y-106755752D01*
X218793534Y-106745866D01*
X218783648Y-106734959D01*
X218774880Y-106723136D01*
X218767312Y-106710510D01*
X218761018Y-106697203D01*
X218756059Y-106683343D01*
X218752482Y-106669064D01*
X218750322Y-106654503D01*
X218749600Y-106639800D01*
X218749600Y-106339800D01*
X218750322Y-106325097D01*
X218752482Y-106310536D01*
X218756059Y-106296257D01*
X218761018Y-106282397D01*
X218767312Y-106269090D01*
X218774880Y-106256464D01*
X218783648Y-106244641D01*
X218793534Y-106233734D01*
X218804441Y-106223848D01*
X218816264Y-106215080D01*
X218828890Y-106207512D01*
X218842197Y-106201218D01*
X218856057Y-106196259D01*
X218870336Y-106192682D01*
X218884897Y-106190522D01*
X218899600Y-106189800D01*
X220549600Y-106189800D01*
X220564303Y-106190522D01*
G37*
G04 #@! TD.AperFunction*
G04 #@! TA.AperFunction,SMDPad,CuDef*
G36*
X220564303Y-104920522D02*
G01*
X220578864Y-104922682D01*
X220593143Y-104926259D01*
X220607003Y-104931218D01*
X220620310Y-104937512D01*
X220632936Y-104945080D01*
X220644759Y-104953848D01*
X220655666Y-104963734D01*
X220665552Y-104974641D01*
X220674320Y-104986464D01*
X220681888Y-104999090D01*
X220688182Y-105012397D01*
X220693141Y-105026257D01*
X220696718Y-105040536D01*
X220698878Y-105055097D01*
X220699600Y-105069800D01*
X220699600Y-105369800D01*
X220698878Y-105384503D01*
X220696718Y-105399064D01*
X220693141Y-105413343D01*
X220688182Y-105427203D01*
X220681888Y-105440510D01*
X220674320Y-105453136D01*
X220665552Y-105464959D01*
X220655666Y-105475866D01*
X220644759Y-105485752D01*
X220632936Y-105494520D01*
X220620310Y-105502088D01*
X220607003Y-105508382D01*
X220593143Y-105513341D01*
X220578864Y-105516918D01*
X220564303Y-105519078D01*
X220549600Y-105519800D01*
X218899600Y-105519800D01*
X218884897Y-105519078D01*
X218870336Y-105516918D01*
X218856057Y-105513341D01*
X218842197Y-105508382D01*
X218828890Y-105502088D01*
X218816264Y-105494520D01*
X218804441Y-105485752D01*
X218793534Y-105475866D01*
X218783648Y-105464959D01*
X218774880Y-105453136D01*
X218767312Y-105440510D01*
X218761018Y-105427203D01*
X218756059Y-105413343D01*
X218752482Y-105399064D01*
X218750322Y-105384503D01*
X218749600Y-105369800D01*
X218749600Y-105069800D01*
X218750322Y-105055097D01*
X218752482Y-105040536D01*
X218756059Y-105026257D01*
X218761018Y-105012397D01*
X218767312Y-104999090D01*
X218774880Y-104986464D01*
X218783648Y-104974641D01*
X218793534Y-104963734D01*
X218804441Y-104953848D01*
X218816264Y-104945080D01*
X218828890Y-104937512D01*
X218842197Y-104931218D01*
X218856057Y-104926259D01*
X218870336Y-104922682D01*
X218884897Y-104920522D01*
X218899600Y-104919800D01*
X220549600Y-104919800D01*
X220564303Y-104920522D01*
G37*
G04 #@! TD.AperFunction*
G04 #@! TA.AperFunction,SMDPad,CuDef*
G36*
X225514303Y-104920522D02*
G01*
X225528864Y-104922682D01*
X225543143Y-104926259D01*
X225557003Y-104931218D01*
X225570310Y-104937512D01*
X225582936Y-104945080D01*
X225594759Y-104953848D01*
X225605666Y-104963734D01*
X225615552Y-104974641D01*
X225624320Y-104986464D01*
X225631888Y-104999090D01*
X225638182Y-105012397D01*
X225643141Y-105026257D01*
X225646718Y-105040536D01*
X225648878Y-105055097D01*
X225649600Y-105069800D01*
X225649600Y-105369800D01*
X225648878Y-105384503D01*
X225646718Y-105399064D01*
X225643141Y-105413343D01*
X225638182Y-105427203D01*
X225631888Y-105440510D01*
X225624320Y-105453136D01*
X225615552Y-105464959D01*
X225605666Y-105475866D01*
X225594759Y-105485752D01*
X225582936Y-105494520D01*
X225570310Y-105502088D01*
X225557003Y-105508382D01*
X225543143Y-105513341D01*
X225528864Y-105516918D01*
X225514303Y-105519078D01*
X225499600Y-105519800D01*
X223849600Y-105519800D01*
X223834897Y-105519078D01*
X223820336Y-105516918D01*
X223806057Y-105513341D01*
X223792197Y-105508382D01*
X223778890Y-105502088D01*
X223766264Y-105494520D01*
X223754441Y-105485752D01*
X223743534Y-105475866D01*
X223733648Y-105464959D01*
X223724880Y-105453136D01*
X223717312Y-105440510D01*
X223711018Y-105427203D01*
X223706059Y-105413343D01*
X223702482Y-105399064D01*
X223700322Y-105384503D01*
X223699600Y-105369800D01*
X223699600Y-105069800D01*
X223700322Y-105055097D01*
X223702482Y-105040536D01*
X223706059Y-105026257D01*
X223711018Y-105012397D01*
X223717312Y-104999090D01*
X223724880Y-104986464D01*
X223733648Y-104974641D01*
X223743534Y-104963734D01*
X223754441Y-104953848D01*
X223766264Y-104945080D01*
X223778890Y-104937512D01*
X223792197Y-104931218D01*
X223806057Y-104926259D01*
X223820336Y-104922682D01*
X223834897Y-104920522D01*
X223849600Y-104919800D01*
X225499600Y-104919800D01*
X225514303Y-104920522D01*
G37*
G04 #@! TD.AperFunction*
G04 #@! TA.AperFunction,SMDPad,CuDef*
G36*
X225514303Y-106190522D02*
G01*
X225528864Y-106192682D01*
X225543143Y-106196259D01*
X225557003Y-106201218D01*
X225570310Y-106207512D01*
X225582936Y-106215080D01*
X225594759Y-106223848D01*
X225605666Y-106233734D01*
X225615552Y-106244641D01*
X225624320Y-106256464D01*
X225631888Y-106269090D01*
X225638182Y-106282397D01*
X225643141Y-106296257D01*
X225646718Y-106310536D01*
X225648878Y-106325097D01*
X225649600Y-106339800D01*
X225649600Y-106639800D01*
X225648878Y-106654503D01*
X225646718Y-106669064D01*
X225643141Y-106683343D01*
X225638182Y-106697203D01*
X225631888Y-106710510D01*
X225624320Y-106723136D01*
X225615552Y-106734959D01*
X225605666Y-106745866D01*
X225594759Y-106755752D01*
X225582936Y-106764520D01*
X225570310Y-106772088D01*
X225557003Y-106778382D01*
X225543143Y-106783341D01*
X225528864Y-106786918D01*
X225514303Y-106789078D01*
X225499600Y-106789800D01*
X223849600Y-106789800D01*
X223834897Y-106789078D01*
X223820336Y-106786918D01*
X223806057Y-106783341D01*
X223792197Y-106778382D01*
X223778890Y-106772088D01*
X223766264Y-106764520D01*
X223754441Y-106755752D01*
X223743534Y-106745866D01*
X223733648Y-106734959D01*
X223724880Y-106723136D01*
X223717312Y-106710510D01*
X223711018Y-106697203D01*
X223706059Y-106683343D01*
X223702482Y-106669064D01*
X223700322Y-106654503D01*
X223699600Y-106639800D01*
X223699600Y-106339800D01*
X223700322Y-106325097D01*
X223702482Y-106310536D01*
X223706059Y-106296257D01*
X223711018Y-106282397D01*
X223717312Y-106269090D01*
X223724880Y-106256464D01*
X223733648Y-106244641D01*
X223743534Y-106233734D01*
X223754441Y-106223848D01*
X223766264Y-106215080D01*
X223778890Y-106207512D01*
X223792197Y-106201218D01*
X223806057Y-106196259D01*
X223820336Y-106192682D01*
X223834897Y-106190522D01*
X223849600Y-106189800D01*
X225499600Y-106189800D01*
X225514303Y-106190522D01*
G37*
G04 #@! TD.AperFunction*
G04 #@! TA.AperFunction,SMDPad,CuDef*
G36*
X225514303Y-107460522D02*
G01*
X225528864Y-107462682D01*
X225543143Y-107466259D01*
X225557003Y-107471218D01*
X225570310Y-107477512D01*
X225582936Y-107485080D01*
X225594759Y-107493848D01*
X225605666Y-107503734D01*
X225615552Y-107514641D01*
X225624320Y-107526464D01*
X225631888Y-107539090D01*
X225638182Y-107552397D01*
X225643141Y-107566257D01*
X225646718Y-107580536D01*
X225648878Y-107595097D01*
X225649600Y-107609800D01*
X225649600Y-107909800D01*
X225648878Y-107924503D01*
X225646718Y-107939064D01*
X225643141Y-107953343D01*
X225638182Y-107967203D01*
X225631888Y-107980510D01*
X225624320Y-107993136D01*
X225615552Y-108004959D01*
X225605666Y-108015866D01*
X225594759Y-108025752D01*
X225582936Y-108034520D01*
X225570310Y-108042088D01*
X225557003Y-108048382D01*
X225543143Y-108053341D01*
X225528864Y-108056918D01*
X225514303Y-108059078D01*
X225499600Y-108059800D01*
X223849600Y-108059800D01*
X223834897Y-108059078D01*
X223820336Y-108056918D01*
X223806057Y-108053341D01*
X223792197Y-108048382D01*
X223778890Y-108042088D01*
X223766264Y-108034520D01*
X223754441Y-108025752D01*
X223743534Y-108015866D01*
X223733648Y-108004959D01*
X223724880Y-107993136D01*
X223717312Y-107980510D01*
X223711018Y-107967203D01*
X223706059Y-107953343D01*
X223702482Y-107939064D01*
X223700322Y-107924503D01*
X223699600Y-107909800D01*
X223699600Y-107609800D01*
X223700322Y-107595097D01*
X223702482Y-107580536D01*
X223706059Y-107566257D01*
X223711018Y-107552397D01*
X223717312Y-107539090D01*
X223724880Y-107526464D01*
X223733648Y-107514641D01*
X223743534Y-107503734D01*
X223754441Y-107493848D01*
X223766264Y-107485080D01*
X223778890Y-107477512D01*
X223792197Y-107471218D01*
X223806057Y-107466259D01*
X223820336Y-107462682D01*
X223834897Y-107460522D01*
X223849600Y-107459800D01*
X225499600Y-107459800D01*
X225514303Y-107460522D01*
G37*
G04 #@! TD.AperFunction*
G04 #@! TA.AperFunction,SMDPad,CuDef*
G36*
X225514303Y-108730522D02*
G01*
X225528864Y-108732682D01*
X225543143Y-108736259D01*
X225557003Y-108741218D01*
X225570310Y-108747512D01*
X225582936Y-108755080D01*
X225594759Y-108763848D01*
X225605666Y-108773734D01*
X225615552Y-108784641D01*
X225624320Y-108796464D01*
X225631888Y-108809090D01*
X225638182Y-108822397D01*
X225643141Y-108836257D01*
X225646718Y-108850536D01*
X225648878Y-108865097D01*
X225649600Y-108879800D01*
X225649600Y-109179800D01*
X225648878Y-109194503D01*
X225646718Y-109209064D01*
X225643141Y-109223343D01*
X225638182Y-109237203D01*
X225631888Y-109250510D01*
X225624320Y-109263136D01*
X225615552Y-109274959D01*
X225605666Y-109285866D01*
X225594759Y-109295752D01*
X225582936Y-109304520D01*
X225570310Y-109312088D01*
X225557003Y-109318382D01*
X225543143Y-109323341D01*
X225528864Y-109326918D01*
X225514303Y-109329078D01*
X225499600Y-109329800D01*
X223849600Y-109329800D01*
X223834897Y-109329078D01*
X223820336Y-109326918D01*
X223806057Y-109323341D01*
X223792197Y-109318382D01*
X223778890Y-109312088D01*
X223766264Y-109304520D01*
X223754441Y-109295752D01*
X223743534Y-109285866D01*
X223733648Y-109274959D01*
X223724880Y-109263136D01*
X223717312Y-109250510D01*
X223711018Y-109237203D01*
X223706059Y-109223343D01*
X223702482Y-109209064D01*
X223700322Y-109194503D01*
X223699600Y-109179800D01*
X223699600Y-108879800D01*
X223700322Y-108865097D01*
X223702482Y-108850536D01*
X223706059Y-108836257D01*
X223711018Y-108822397D01*
X223717312Y-108809090D01*
X223724880Y-108796464D01*
X223733648Y-108784641D01*
X223743534Y-108773734D01*
X223754441Y-108763848D01*
X223766264Y-108755080D01*
X223778890Y-108747512D01*
X223792197Y-108741218D01*
X223806057Y-108736259D01*
X223820336Y-108732682D01*
X223834897Y-108730522D01*
X223849600Y-108729800D01*
X225499600Y-108729800D01*
X225514303Y-108730522D01*
G37*
G04 #@! TD.AperFunction*
G04 #@! TA.AperFunction,SMDPad,CuDef*
G36*
X248073779Y-103666144D02*
G01*
X248096834Y-103669563D01*
X248119443Y-103675227D01*
X248141387Y-103683079D01*
X248162457Y-103693044D01*
X248182448Y-103705026D01*
X248201168Y-103718910D01*
X248218438Y-103734562D01*
X248234090Y-103751832D01*
X248247974Y-103770552D01*
X248259956Y-103790543D01*
X248269921Y-103811613D01*
X248277773Y-103833557D01*
X248283437Y-103856166D01*
X248286856Y-103879221D01*
X248288000Y-103902500D01*
X248288000Y-104377500D01*
X248286856Y-104400779D01*
X248283437Y-104423834D01*
X248277773Y-104446443D01*
X248269921Y-104468387D01*
X248259956Y-104489457D01*
X248247974Y-104509448D01*
X248234090Y-104528168D01*
X248218438Y-104545438D01*
X248201168Y-104561090D01*
X248182448Y-104574974D01*
X248162457Y-104586956D01*
X248141387Y-104596921D01*
X248119443Y-104604773D01*
X248096834Y-104610437D01*
X248073779Y-104613856D01*
X248050500Y-104615000D01*
X247475500Y-104615000D01*
X247452221Y-104613856D01*
X247429166Y-104610437D01*
X247406557Y-104604773D01*
X247384613Y-104596921D01*
X247363543Y-104586956D01*
X247343552Y-104574974D01*
X247324832Y-104561090D01*
X247307562Y-104545438D01*
X247291910Y-104528168D01*
X247278026Y-104509448D01*
X247266044Y-104489457D01*
X247256079Y-104468387D01*
X247248227Y-104446443D01*
X247242563Y-104423834D01*
X247239144Y-104400779D01*
X247238000Y-104377500D01*
X247238000Y-103902500D01*
X247239144Y-103879221D01*
X247242563Y-103856166D01*
X247248227Y-103833557D01*
X247256079Y-103811613D01*
X247266044Y-103790543D01*
X247278026Y-103770552D01*
X247291910Y-103751832D01*
X247307562Y-103734562D01*
X247324832Y-103718910D01*
X247343552Y-103705026D01*
X247363543Y-103693044D01*
X247384613Y-103683079D01*
X247406557Y-103675227D01*
X247429166Y-103669563D01*
X247452221Y-103666144D01*
X247475500Y-103665000D01*
X248050500Y-103665000D01*
X248073779Y-103666144D01*
G37*
G04 #@! TD.AperFunction*
G04 #@! TA.AperFunction,SMDPad,CuDef*
G36*
X246323779Y-103666144D02*
G01*
X246346834Y-103669563D01*
X246369443Y-103675227D01*
X246391387Y-103683079D01*
X246412457Y-103693044D01*
X246432448Y-103705026D01*
X246451168Y-103718910D01*
X246468438Y-103734562D01*
X246484090Y-103751832D01*
X246497974Y-103770552D01*
X246509956Y-103790543D01*
X246519921Y-103811613D01*
X246527773Y-103833557D01*
X246533437Y-103856166D01*
X246536856Y-103879221D01*
X246538000Y-103902500D01*
X246538000Y-104377500D01*
X246536856Y-104400779D01*
X246533437Y-104423834D01*
X246527773Y-104446443D01*
X246519921Y-104468387D01*
X246509956Y-104489457D01*
X246497974Y-104509448D01*
X246484090Y-104528168D01*
X246468438Y-104545438D01*
X246451168Y-104561090D01*
X246432448Y-104574974D01*
X246412457Y-104586956D01*
X246391387Y-104596921D01*
X246369443Y-104604773D01*
X246346834Y-104610437D01*
X246323779Y-104613856D01*
X246300500Y-104615000D01*
X245725500Y-104615000D01*
X245702221Y-104613856D01*
X245679166Y-104610437D01*
X245656557Y-104604773D01*
X245634613Y-104596921D01*
X245613543Y-104586956D01*
X245593552Y-104574974D01*
X245574832Y-104561090D01*
X245557562Y-104545438D01*
X245541910Y-104528168D01*
X245528026Y-104509448D01*
X245516044Y-104489457D01*
X245506079Y-104468387D01*
X245498227Y-104446443D01*
X245492563Y-104423834D01*
X245489144Y-104400779D01*
X245488000Y-104377500D01*
X245488000Y-103902500D01*
X245489144Y-103879221D01*
X245492563Y-103856166D01*
X245498227Y-103833557D01*
X245506079Y-103811613D01*
X245516044Y-103790543D01*
X245528026Y-103770552D01*
X245541910Y-103751832D01*
X245557562Y-103734562D01*
X245574832Y-103718910D01*
X245593552Y-103705026D01*
X245613543Y-103693044D01*
X245634613Y-103683079D01*
X245656557Y-103675227D01*
X245679166Y-103669563D01*
X245702221Y-103666144D01*
X245725500Y-103665000D01*
X246300500Y-103665000D01*
X246323779Y-103666144D01*
G37*
G04 #@! TD.AperFunction*
G04 #@! TA.AperFunction,SMDPad,CuDef*
G36*
X239606779Y-103666144D02*
G01*
X239629834Y-103669563D01*
X239652443Y-103675227D01*
X239674387Y-103683079D01*
X239695457Y-103693044D01*
X239715448Y-103705026D01*
X239734168Y-103718910D01*
X239751438Y-103734562D01*
X239767090Y-103751832D01*
X239780974Y-103770552D01*
X239792956Y-103790543D01*
X239802921Y-103811613D01*
X239810773Y-103833557D01*
X239816437Y-103856166D01*
X239819856Y-103879221D01*
X239821000Y-103902500D01*
X239821000Y-104377500D01*
X239819856Y-104400779D01*
X239816437Y-104423834D01*
X239810773Y-104446443D01*
X239802921Y-104468387D01*
X239792956Y-104489457D01*
X239780974Y-104509448D01*
X239767090Y-104528168D01*
X239751438Y-104545438D01*
X239734168Y-104561090D01*
X239715448Y-104574974D01*
X239695457Y-104586956D01*
X239674387Y-104596921D01*
X239652443Y-104604773D01*
X239629834Y-104610437D01*
X239606779Y-104613856D01*
X239583500Y-104615000D01*
X239008500Y-104615000D01*
X238985221Y-104613856D01*
X238962166Y-104610437D01*
X238939557Y-104604773D01*
X238917613Y-104596921D01*
X238896543Y-104586956D01*
X238876552Y-104574974D01*
X238857832Y-104561090D01*
X238840562Y-104545438D01*
X238824910Y-104528168D01*
X238811026Y-104509448D01*
X238799044Y-104489457D01*
X238789079Y-104468387D01*
X238781227Y-104446443D01*
X238775563Y-104423834D01*
X238772144Y-104400779D01*
X238771000Y-104377500D01*
X238771000Y-103902500D01*
X238772144Y-103879221D01*
X238775563Y-103856166D01*
X238781227Y-103833557D01*
X238789079Y-103811613D01*
X238799044Y-103790543D01*
X238811026Y-103770552D01*
X238824910Y-103751832D01*
X238840562Y-103734562D01*
X238857832Y-103718910D01*
X238876552Y-103705026D01*
X238896543Y-103693044D01*
X238917613Y-103683079D01*
X238939557Y-103675227D01*
X238962166Y-103669563D01*
X238985221Y-103666144D01*
X239008500Y-103665000D01*
X239583500Y-103665000D01*
X239606779Y-103666144D01*
G37*
G04 #@! TD.AperFunction*
G04 #@! TA.AperFunction,SMDPad,CuDef*
G36*
X241356779Y-103666144D02*
G01*
X241379834Y-103669563D01*
X241402443Y-103675227D01*
X241424387Y-103683079D01*
X241445457Y-103693044D01*
X241465448Y-103705026D01*
X241484168Y-103718910D01*
X241501438Y-103734562D01*
X241517090Y-103751832D01*
X241530974Y-103770552D01*
X241542956Y-103790543D01*
X241552921Y-103811613D01*
X241560773Y-103833557D01*
X241566437Y-103856166D01*
X241569856Y-103879221D01*
X241571000Y-103902500D01*
X241571000Y-104377500D01*
X241569856Y-104400779D01*
X241566437Y-104423834D01*
X241560773Y-104446443D01*
X241552921Y-104468387D01*
X241542956Y-104489457D01*
X241530974Y-104509448D01*
X241517090Y-104528168D01*
X241501438Y-104545438D01*
X241484168Y-104561090D01*
X241465448Y-104574974D01*
X241445457Y-104586956D01*
X241424387Y-104596921D01*
X241402443Y-104604773D01*
X241379834Y-104610437D01*
X241356779Y-104613856D01*
X241333500Y-104615000D01*
X240758500Y-104615000D01*
X240735221Y-104613856D01*
X240712166Y-104610437D01*
X240689557Y-104604773D01*
X240667613Y-104596921D01*
X240646543Y-104586956D01*
X240626552Y-104574974D01*
X240607832Y-104561090D01*
X240590562Y-104545438D01*
X240574910Y-104528168D01*
X240561026Y-104509448D01*
X240549044Y-104489457D01*
X240539079Y-104468387D01*
X240531227Y-104446443D01*
X240525563Y-104423834D01*
X240522144Y-104400779D01*
X240521000Y-104377500D01*
X240521000Y-103902500D01*
X240522144Y-103879221D01*
X240525563Y-103856166D01*
X240531227Y-103833557D01*
X240539079Y-103811613D01*
X240549044Y-103790543D01*
X240561026Y-103770552D01*
X240574910Y-103751832D01*
X240590562Y-103734562D01*
X240607832Y-103718910D01*
X240626552Y-103705026D01*
X240646543Y-103693044D01*
X240667613Y-103683079D01*
X240689557Y-103675227D01*
X240712166Y-103669563D01*
X240735221Y-103666144D01*
X240758500Y-103665000D01*
X241333500Y-103665000D01*
X241356779Y-103666144D01*
G37*
G04 #@! TD.AperFunction*
D16*
X229485400Y-105415600D02*
X229485400Y-104936800D01*
D17*
X222987000Y-103758000D02*
X222973000Y-103772000D01*
X223599600Y-106489800D02*
X224674600Y-106489800D01*
X222973000Y-105863200D02*
X223599600Y-106489800D01*
X222973000Y-103772000D02*
X222973000Y-105863200D01*
D18*
X209059998Y-98770000D02*
X210344498Y-97485500D01*
X208370000Y-98770000D02*
X209059998Y-98770000D01*
X227439999Y-97519999D02*
X228690000Y-98770000D01*
X221052999Y-97519999D02*
X227439999Y-97519999D01*
X221018500Y-97485500D02*
X221052999Y-97519999D01*
X210344498Y-97485500D02*
X221018500Y-97485500D01*
D17*
X224612500Y-103772000D02*
X222973000Y-103772000D01*
X227940000Y-106336000D02*
X225376000Y-103772000D01*
X227940000Y-106961000D02*
X227940000Y-106336000D01*
X228690000Y-98770000D02*
X228690000Y-102603000D01*
X228690000Y-102603000D02*
X228843000Y-102756000D01*
X227202000Y-103772000D02*
X224612500Y-103772000D01*
X228218000Y-102756000D02*
X227202000Y-103772000D01*
X228843000Y-102756000D02*
X228218000Y-102756000D01*
X225376000Y-103772000D02*
X224612500Y-103772000D01*
X229460399Y-105440601D02*
X229460399Y-104936800D01*
X227940000Y-106961000D02*
X229460399Y-105440601D01*
X208370000Y-96230000D02*
X210910000Y-96230000D01*
D16*
X235335400Y-110836800D02*
X236312800Y-110836800D01*
X234035400Y-104936800D02*
X234035400Y-101804100D01*
X234035400Y-101804100D02*
X235159999Y-100679501D01*
X235159999Y-97619999D02*
X233770000Y-96230000D01*
X235159999Y-100679501D02*
X235159999Y-97619999D01*
X232085400Y-99625400D02*
X231230000Y-98770000D01*
X232085400Y-104936800D02*
X232085400Y-99625400D01*
X232619999Y-97619999D02*
X233770000Y-98770000D01*
X230677999Y-97619999D02*
X232619999Y-97619999D01*
X230079999Y-98217999D02*
X230677999Y-97619999D01*
X230079999Y-99322001D02*
X230079999Y-98217999D01*
X231435400Y-100677402D02*
X230079999Y-99322001D01*
X231435400Y-104936800D02*
X231435400Y-100677402D01*
X236310000Y-99972081D02*
X236310000Y-98770000D01*
X235860401Y-100421680D02*
X236310000Y-99972081D01*
X235800401Y-105961801D02*
X235860401Y-105901801D01*
X233570399Y-105961801D02*
X235800401Y-105961801D01*
X233385400Y-105776802D02*
X233570399Y-105961801D01*
X235860401Y-105901801D02*
X235860401Y-100421680D01*
X233385400Y-104936800D02*
X233385400Y-105776802D01*
X230785400Y-105861800D02*
X230785400Y-104936800D01*
X231285411Y-106361811D02*
X230785400Y-105861800D01*
X235966090Y-106361811D02*
X231285411Y-106361811D01*
X236322000Y-106005901D02*
X235966090Y-106361811D01*
X236322000Y-100525779D02*
X236322000Y-106005901D01*
X237460001Y-99387778D02*
X236322000Y-100525779D01*
X237460001Y-97380001D02*
X237460001Y-99387778D01*
X236310000Y-96230000D02*
X237460001Y-97380001D01*
X238055340Y-109668000D02*
X239116000Y-109668000D01*
X234035400Y-109911800D02*
X234035400Y-110836800D01*
X234981200Y-108966000D02*
X234035400Y-109911800D01*
X239268000Y-108966000D02*
X234981200Y-108966000D01*
X239268000Y-104168000D02*
X239296000Y-104140000D01*
X239268000Y-108966000D02*
X239268000Y-104168000D01*
X247768000Y-110166000D02*
X247768000Y-108966000D01*
X236777999Y-110266001D02*
X247667999Y-110266001D01*
X236239998Y-109728000D02*
X236777999Y-110266001D01*
X247667999Y-110266001D02*
X247768000Y-110166000D01*
X234954198Y-109728000D02*
X236239998Y-109728000D01*
X234685400Y-109996798D02*
X234954198Y-109728000D01*
X234685400Y-110836800D02*
X234685400Y-109996798D01*
X247768000Y-104145000D02*
X247763000Y-104140000D01*
X247768000Y-108966000D02*
X247768000Y-104145000D01*
X230135400Y-103213600D02*
X230593000Y-102756000D01*
X230135400Y-104936800D02*
X230135400Y-103213600D01*
D17*
X219724600Y-109131600D02*
X221477000Y-110884000D01*
X219724600Y-109029800D02*
X219724600Y-109131600D01*
D16*
X227755643Y-109811799D02*
X230035399Y-109811799D01*
X227164990Y-109221146D02*
X227755643Y-109811799D01*
X224674600Y-105219800D02*
X225045310Y-105590510D01*
X230135400Y-109911800D02*
X230135400Y-110836800D01*
X230035399Y-109811799D02*
X230135400Y-109911800D01*
X228376045Y-109811799D02*
X230035399Y-109811799D01*
X225344590Y-105889790D02*
X224674600Y-105219800D01*
X225686002Y-105889790D02*
X225344590Y-105889790D01*
X226289000Y-106492788D02*
X225686002Y-105889790D01*
X227755643Y-109811799D02*
X226289000Y-108345156D01*
X226289000Y-108345156D02*
X226289000Y-106492788D01*
X228214946Y-110836800D02*
X229485400Y-110836800D01*
X224674600Y-109029800D02*
X226407945Y-109029800D01*
X226407945Y-109029800D02*
X228214946Y-110836800D01*
D17*
X216913800Y-107759800D02*
X216662400Y-108011200D01*
X219724600Y-107759800D02*
X216913800Y-107759800D01*
X214324000Y-108011200D02*
X213788000Y-108547200D01*
X216662400Y-108011200D02*
X214324000Y-108011200D01*
X216891000Y-106489800D02*
X216662400Y-106261200D01*
X214042000Y-106261200D02*
X213788000Y-106007200D01*
X216662400Y-106261200D02*
X214042000Y-106261200D01*
X219724600Y-106489800D02*
X216891000Y-106489800D01*
D19*
G36*
X262449016Y-94732312D02*
G01*
X262880930Y-94862714D01*
X263279285Y-95074524D01*
X263628914Y-95359675D01*
X263916497Y-95707303D01*
X264131086Y-96104177D01*
X264264498Y-96535161D01*
X264315001Y-97015663D01*
X264315000Y-110966495D01*
X264267688Y-111449016D01*
X264137287Y-111880927D01*
X263925480Y-112279280D01*
X263640325Y-112628914D01*
X263292697Y-112916497D01*
X262895825Y-113131085D01*
X262464834Y-113264500D01*
X261984346Y-113315000D01*
X203033504Y-113315000D01*
X202550984Y-113267688D01*
X202119073Y-113137287D01*
X201720720Y-112925480D01*
X201371086Y-112640325D01*
X201083503Y-112292697D01*
X200868915Y-111895825D01*
X200735500Y-111464834D01*
X200685000Y-110984346D01*
X200685000Y-103297000D01*
X220059928Y-103297000D01*
X220063000Y-103486250D01*
X220221750Y-103645000D01*
X221096000Y-103645000D01*
X221096000Y-102820750D01*
X220937250Y-102662000D01*
X220698000Y-102658928D01*
X220573518Y-102671188D01*
X220453820Y-102707498D01*
X220343506Y-102766463D01*
X220246815Y-102845815D01*
X220167463Y-102942506D01*
X220108498Y-103052820D01*
X220072188Y-103172518D01*
X220059928Y-103297000D01*
X200685000Y-103297000D01*
X200685000Y-97304495D01*
X201515000Y-97304495D01*
X201515000Y-97695505D01*
X201591282Y-98079003D01*
X201740915Y-98440250D01*
X201958149Y-98765364D01*
X202234636Y-99041851D01*
X202559750Y-99259085D01*
X202920997Y-99408718D01*
X203304495Y-99485000D01*
X203695505Y-99485000D01*
X204079003Y-99408718D01*
X204440250Y-99259085D01*
X204765364Y-99041851D01*
X205041851Y-98765364D01*
X205259085Y-98440250D01*
X205408718Y-98079003D01*
X205440345Y-97920000D01*
X206881928Y-97920000D01*
X206881928Y-99620000D01*
X206894188Y-99744482D01*
X206930498Y-99864180D01*
X206989463Y-99974494D01*
X207068815Y-100071185D01*
X207165506Y-100150537D01*
X207275820Y-100209502D01*
X207395518Y-100245812D01*
X207520000Y-100258072D01*
X209220000Y-100258072D01*
X209344482Y-100245812D01*
X209464180Y-100209502D01*
X209574494Y-100150537D01*
X209671185Y-100071185D01*
X209750537Y-99974494D01*
X209809502Y-99864180D01*
X209831513Y-99791620D01*
X209963368Y-99923475D01*
X210206589Y-100085990D01*
X210476842Y-100197932D01*
X210763740Y-100255000D01*
X211056260Y-100255000D01*
X211343158Y-100197932D01*
X211613411Y-100085990D01*
X211856632Y-99923475D01*
X212063475Y-99716632D01*
X212180000Y-99542240D01*
X212296525Y-99716632D01*
X212503368Y-99923475D01*
X212746589Y-100085990D01*
X213016842Y-100197932D01*
X213303740Y-100255000D01*
X213596260Y-100255000D01*
X213883158Y-100197932D01*
X214153411Y-100085990D01*
X214396632Y-99923475D01*
X214603475Y-99716632D01*
X214720000Y-99542240D01*
X214836525Y-99716632D01*
X215043368Y-99923475D01*
X215286589Y-100085990D01*
X215556842Y-100197932D01*
X215843740Y-100255000D01*
X216136260Y-100255000D01*
X216423158Y-100197932D01*
X216693411Y-100085990D01*
X216936632Y-99923475D01*
X217143475Y-99716632D01*
X217265195Y-99534466D01*
X217334822Y-99651355D01*
X217529731Y-99867588D01*
X217763080Y-100041641D01*
X218025901Y-100166825D01*
X218173110Y-100211476D01*
X218403000Y-100090155D01*
X218403000Y-98897000D01*
X218383000Y-98897000D01*
X218383000Y-98643000D01*
X218403000Y-98643000D01*
X218403000Y-98623000D01*
X218657000Y-98623000D01*
X218657000Y-98643000D01*
X218677000Y-98643000D01*
X218677000Y-98897000D01*
X218657000Y-98897000D01*
X218657000Y-100090155D01*
X218886890Y-100211476D01*
X219034099Y-100166825D01*
X219296920Y-100041641D01*
X219530269Y-99867588D01*
X219725178Y-99651355D01*
X219794805Y-99534466D01*
X219916525Y-99716632D01*
X220123368Y-99923475D01*
X220366589Y-100085990D01*
X220636842Y-100197932D01*
X220923740Y-100255000D01*
X221216260Y-100255000D01*
X221503158Y-100197932D01*
X221773411Y-100085990D01*
X222016632Y-99923475D01*
X222223475Y-99716632D01*
X222340000Y-99542240D01*
X222456525Y-99716632D01*
X222663368Y-99923475D01*
X222906589Y-100085990D01*
X223176842Y-100197932D01*
X223463740Y-100255000D01*
X223756260Y-100255000D01*
X224043158Y-100197932D01*
X224313411Y-100085990D01*
X224556632Y-99923475D01*
X224763475Y-99716632D01*
X224880000Y-99542240D01*
X224996525Y-99716632D01*
X225203368Y-99923475D01*
X225446589Y-100085990D01*
X225716842Y-100197932D01*
X226003740Y-100255000D01*
X226296260Y-100255000D01*
X226583158Y-100197932D01*
X226853411Y-100085990D01*
X227096632Y-99923475D01*
X227303475Y-99716632D01*
X227420000Y-99542240D01*
X227536525Y-99716632D01*
X227743368Y-99923475D01*
X227805000Y-99964656D01*
X227805001Y-101973262D01*
X227723941Y-102016589D01*
X227723939Y-102016590D01*
X227723940Y-102016590D01*
X227622953Y-102099468D01*
X227622951Y-102099470D01*
X227589183Y-102127183D01*
X227561470Y-102160951D01*
X226835422Y-102887000D01*
X225419469Y-102887000D01*
X225376000Y-102882719D01*
X225332531Y-102887000D01*
X223845046Y-102887000D01*
X223746942Y-102806488D01*
X223595567Y-102725577D01*
X223431316Y-102675752D01*
X223260500Y-102658928D01*
X222685500Y-102658928D01*
X222514684Y-102675752D01*
X222350433Y-102725577D01*
X222199058Y-102806488D01*
X222175161Y-102826099D01*
X222102494Y-102766463D01*
X221992180Y-102707498D01*
X221872482Y-102671188D01*
X221748000Y-102658928D01*
X221508750Y-102662000D01*
X221350000Y-102820750D01*
X221350000Y-103645000D01*
X221370000Y-103645000D01*
X221370000Y-103899000D01*
X221350000Y-103899000D01*
X221350000Y-103919000D01*
X221096000Y-103919000D01*
X221096000Y-103899000D01*
X220221750Y-103899000D01*
X220063000Y-104057750D01*
X220059928Y-104247000D01*
X220063348Y-104281728D01*
X218899600Y-104281728D01*
X218745855Y-104296871D01*
X218598018Y-104341716D01*
X218461771Y-104414542D01*
X218342349Y-104512549D01*
X218244342Y-104631971D01*
X218171516Y-104768218D01*
X218126671Y-104916055D01*
X218111528Y-105069800D01*
X218111528Y-105369800D01*
X218126671Y-105523545D01*
X218151319Y-105604800D01*
X217690739Y-105604800D01*
X217627912Y-105487258D01*
X217519023Y-105354577D01*
X217386342Y-105245688D01*
X217234967Y-105164777D01*
X217070716Y-105114952D01*
X216899900Y-105098128D01*
X216424900Y-105098128D01*
X216254084Y-105114952D01*
X216089833Y-105164777D01*
X215938458Y-105245688D01*
X215805777Y-105354577D01*
X215788031Y-105376200D01*
X215188103Y-105376200D01*
X215148299Y-105280105D01*
X214980312Y-105028695D01*
X214766505Y-104814888D01*
X214515095Y-104646901D01*
X214235743Y-104531189D01*
X213939184Y-104472200D01*
X213636816Y-104472200D01*
X213340257Y-104531189D01*
X213060905Y-104646901D01*
X212809495Y-104814888D01*
X212595688Y-105028695D01*
X212427701Y-105280105D01*
X212311989Y-105559457D01*
X212253000Y-105856016D01*
X212253000Y-106158384D01*
X212311989Y-106454943D01*
X212427701Y-106734295D01*
X212595688Y-106985705D01*
X212809495Y-107199512D01*
X212925763Y-107277200D01*
X212809495Y-107354888D01*
X212595688Y-107568695D01*
X212427701Y-107820105D01*
X212311989Y-108099457D01*
X212253000Y-108396016D01*
X212253000Y-108698384D01*
X212311989Y-108994943D01*
X212427701Y-109274295D01*
X212595688Y-109525705D01*
X212809495Y-109739512D01*
X213060905Y-109907499D01*
X213340257Y-110023211D01*
X213636816Y-110082200D01*
X213939184Y-110082200D01*
X214235743Y-110023211D01*
X214515095Y-109907499D01*
X214766505Y-109739512D01*
X214980312Y-109525705D01*
X215148299Y-109274295D01*
X215264011Y-108994943D01*
X215283652Y-108896200D01*
X215788031Y-108896200D01*
X215805777Y-108917823D01*
X215938458Y-109026712D01*
X216089833Y-109107623D01*
X216254084Y-109157448D01*
X216424900Y-109174272D01*
X216899900Y-109174272D01*
X217070716Y-109157448D01*
X217234967Y-109107623D01*
X217386342Y-109026712D01*
X217519023Y-108917823D01*
X217627912Y-108785142D01*
X217702926Y-108644800D01*
X218151319Y-108644800D01*
X218126671Y-108726055D01*
X218111528Y-108879800D01*
X218111528Y-109179800D01*
X218126671Y-109333545D01*
X218171516Y-109481382D01*
X218244342Y-109617629D01*
X218342349Y-109737051D01*
X218461771Y-109835058D01*
X218598018Y-109907884D01*
X218745855Y-109952729D01*
X218899600Y-109967872D01*
X219309294Y-109967872D01*
X220313928Y-110972507D01*
X220313928Y-111121500D01*
X220330752Y-111292316D01*
X220380577Y-111456567D01*
X220461488Y-111607942D01*
X220570377Y-111740623D01*
X220703058Y-111849512D01*
X220854433Y-111930423D01*
X221018684Y-111980248D01*
X221189500Y-111997072D01*
X221764500Y-111997072D01*
X221935316Y-111980248D01*
X222099567Y-111930423D01*
X222250942Y-111849512D01*
X222274839Y-111829901D01*
X222347506Y-111889537D01*
X222457820Y-111948502D01*
X222577518Y-111984812D01*
X222702000Y-111997072D01*
X222941250Y-111994000D01*
X223100000Y-111835250D01*
X223100000Y-111011000D01*
X223354000Y-111011000D01*
X223354000Y-111835250D01*
X223512750Y-111994000D01*
X223752000Y-111997072D01*
X223876482Y-111984812D01*
X223996180Y-111948502D01*
X224106494Y-111889537D01*
X224203185Y-111810185D01*
X224282537Y-111713494D01*
X224341502Y-111603180D01*
X224377812Y-111483482D01*
X224390072Y-111359000D01*
X224387000Y-111169750D01*
X224228250Y-111011000D01*
X223354000Y-111011000D01*
X223100000Y-111011000D01*
X223080000Y-111011000D01*
X223080000Y-110757000D01*
X223100000Y-110757000D01*
X223100000Y-109932750D01*
X222941250Y-109774000D01*
X222702000Y-109770928D01*
X222577518Y-109783188D01*
X222457820Y-109819498D01*
X222347506Y-109878463D01*
X222274839Y-109938099D01*
X222250942Y-109918488D01*
X222099567Y-109837577D01*
X221935316Y-109787752D01*
X221764500Y-109770928D01*
X221615507Y-109770928D01*
X221288920Y-109444341D01*
X221322529Y-109333545D01*
X221337672Y-109179800D01*
X221337672Y-108879800D01*
X221322529Y-108726055D01*
X221277684Y-108578218D01*
X221204858Y-108441971D01*
X221166146Y-108394800D01*
X221204858Y-108347629D01*
X221277684Y-108211382D01*
X221322529Y-108063545D01*
X221337672Y-107909800D01*
X221337672Y-107609800D01*
X221322529Y-107456055D01*
X221277684Y-107308218D01*
X221204858Y-107171971D01*
X221166146Y-107124800D01*
X221204858Y-107077629D01*
X221277684Y-106941382D01*
X221322529Y-106793545D01*
X221337672Y-106639800D01*
X221337672Y-106339800D01*
X221322529Y-106186055D01*
X221277684Y-106038218D01*
X221204858Y-105901971D01*
X221166146Y-105854800D01*
X221204858Y-105807629D01*
X221277684Y-105671382D01*
X221322529Y-105523545D01*
X221337672Y-105369800D01*
X221337672Y-105069800D01*
X221322529Y-104916055D01*
X221312199Y-104882000D01*
X221350002Y-104882000D01*
X221350002Y-104723252D01*
X221508750Y-104882000D01*
X221748000Y-104885072D01*
X221872482Y-104872812D01*
X221992180Y-104836502D01*
X222088000Y-104785284D01*
X222088001Y-105819721D01*
X222083719Y-105863200D01*
X222100805Y-106036690D01*
X222151412Y-106203513D01*
X222233590Y-106357259D01*
X222316468Y-106458246D01*
X222316471Y-106458249D01*
X222344184Y-106492017D01*
X222377951Y-106519729D01*
X222943070Y-107084849D01*
X222970783Y-107118617D01*
X223004551Y-107146330D01*
X223004553Y-107146332D01*
X223057289Y-107189611D01*
X223105541Y-107229211D01*
X223105915Y-107229411D01*
X223073788Y-107335318D01*
X223061528Y-107459800D01*
X223064600Y-107474050D01*
X223223350Y-107632800D01*
X224547600Y-107632800D01*
X224547600Y-107612800D01*
X224801600Y-107612800D01*
X224801600Y-107632800D01*
X224821600Y-107632800D01*
X224821600Y-107886800D01*
X224801600Y-107886800D01*
X224801600Y-107906800D01*
X224547600Y-107906800D01*
X224547600Y-107886800D01*
X223223350Y-107886800D01*
X223064600Y-108045550D01*
X223061528Y-108059800D01*
X223073788Y-108184282D01*
X223110098Y-108303980D01*
X223169063Y-108414294D01*
X223193330Y-108443864D01*
X223121516Y-108578218D01*
X223076671Y-108726055D01*
X223061528Y-108879800D01*
X223061528Y-109179800D01*
X223076671Y-109333545D01*
X223121516Y-109481382D01*
X223194342Y-109617629D01*
X223292349Y-109737051D01*
X223411771Y-109835058D01*
X223437786Y-109848964D01*
X223354000Y-109932750D01*
X223354000Y-110757000D01*
X224228250Y-110757000D01*
X224387000Y-110598250D01*
X224390072Y-110409000D01*
X224377812Y-110284518D01*
X224341502Y-110164820D01*
X224282537Y-110054506D01*
X224211439Y-109967872D01*
X225499600Y-109967872D01*
X225653345Y-109952729D01*
X225801182Y-109907884D01*
X225937429Y-109835058D01*
X226023039Y-109764800D01*
X226103499Y-109764800D01*
X227669688Y-111330988D01*
X227692708Y-111359038D01*
X227749900Y-111405974D01*
X227804626Y-111450887D01*
X227932313Y-111519137D01*
X228070861Y-111561165D01*
X228214946Y-111575356D01*
X228251051Y-111571800D01*
X228623313Y-111571800D01*
X228634588Y-111686282D01*
X228670898Y-111805980D01*
X228729863Y-111916294D01*
X228809215Y-112012985D01*
X228905906Y-112092337D01*
X229016220Y-112151302D01*
X229135918Y-112187612D01*
X229260400Y-112199872D01*
X229710400Y-112199872D01*
X229810400Y-112190023D01*
X229910400Y-112199872D01*
X230360400Y-112199872D01*
X230460400Y-112190023D01*
X230560400Y-112199872D01*
X231010400Y-112199872D01*
X231110400Y-112190023D01*
X231210400Y-112199872D01*
X231660400Y-112199872D01*
X231760400Y-112190023D01*
X231860400Y-112199872D01*
X232310400Y-112199872D01*
X232410400Y-112190023D01*
X232510400Y-112199872D01*
X232960400Y-112199872D01*
X233060400Y-112190023D01*
X233160400Y-112199872D01*
X233610400Y-112199872D01*
X233710400Y-112190023D01*
X233810400Y-112199872D01*
X234260400Y-112199872D01*
X234360400Y-112190023D01*
X234460400Y-112199872D01*
X234910400Y-112199872D01*
X235013627Y-112189705D01*
X235078650Y-112196800D01*
X235110897Y-112164553D01*
X235154580Y-112151302D01*
X235264894Y-112092337D01*
X235361585Y-112012985D01*
X235433400Y-111925478D01*
X235433400Y-112038050D01*
X235592150Y-112196800D01*
X235694396Y-112185644D01*
X235813527Y-112147515D01*
X235922931Y-112086878D01*
X236018403Y-112006063D01*
X236096274Y-111908175D01*
X236153551Y-111796975D01*
X236188034Y-111676739D01*
X236198398Y-111552085D01*
X236195400Y-111122550D01*
X236036650Y-110963800D01*
X235548472Y-110963800D01*
X235548472Y-110709800D01*
X236036650Y-110709800D01*
X236109501Y-110636949D01*
X236232745Y-110760193D01*
X236255761Y-110788239D01*
X236367679Y-110880088D01*
X236495366Y-110948338D01*
X236633914Y-110990366D01*
X236741894Y-111001001D01*
X236741903Y-111001001D01*
X236777998Y-111004556D01*
X236814093Y-111001001D01*
X247631894Y-111001001D01*
X247667999Y-111004557D01*
X247704104Y-111001001D01*
X247812084Y-110990366D01*
X247950632Y-110948338D01*
X248078319Y-110880088D01*
X248190237Y-110788239D01*
X248213258Y-110760188D01*
X248262192Y-110711254D01*
X248290237Y-110688238D01*
X248359311Y-110604072D01*
X250018000Y-110604072D01*
X250142482Y-110591812D01*
X250262180Y-110555502D01*
X250372494Y-110496537D01*
X250469185Y-110417185D01*
X250548537Y-110320494D01*
X250607502Y-110210180D01*
X250643812Y-110090482D01*
X250656072Y-109966000D01*
X250656072Y-107966000D01*
X250643812Y-107841518D01*
X250607502Y-107721820D01*
X250548537Y-107611506D01*
X250469185Y-107514815D01*
X250372494Y-107435463D01*
X250262180Y-107376498D01*
X250142482Y-107340188D01*
X250018000Y-107327928D01*
X248503000Y-107327928D01*
X248503000Y-105123654D01*
X248536942Y-105105512D01*
X248669623Y-104996623D01*
X248778512Y-104863942D01*
X248859423Y-104712567D01*
X248909248Y-104548316D01*
X248926072Y-104377500D01*
X248926072Y-103902500D01*
X248909248Y-103731684D01*
X248859423Y-103567433D01*
X248778512Y-103416058D01*
X248669623Y-103283377D01*
X248536942Y-103174488D01*
X248385567Y-103093577D01*
X248221316Y-103043752D01*
X248050500Y-103026928D01*
X247475500Y-103026928D01*
X247304684Y-103043752D01*
X247140433Y-103093577D01*
X246989058Y-103174488D01*
X246965161Y-103194099D01*
X246892494Y-103134463D01*
X246782180Y-103075498D01*
X246662482Y-103039188D01*
X246538000Y-103026928D01*
X246298750Y-103030000D01*
X246140000Y-103188750D01*
X246140000Y-104013000D01*
X246160000Y-104013000D01*
X246160000Y-104267000D01*
X246140000Y-104267000D01*
X246140000Y-105091250D01*
X246298750Y-105250000D01*
X246538000Y-105253072D01*
X246662482Y-105240812D01*
X246782180Y-105204502D01*
X246892494Y-105145537D01*
X246965161Y-105085901D01*
X246989058Y-105105512D01*
X247033001Y-105129000D01*
X247033000Y-107327928D01*
X245518000Y-107327928D01*
X245393518Y-107340188D01*
X245273820Y-107376498D01*
X245163506Y-107435463D01*
X245066815Y-107514815D01*
X244987463Y-107611506D01*
X244928498Y-107721820D01*
X244892188Y-107841518D01*
X244879928Y-107966000D01*
X244879928Y-109531001D01*
X242156072Y-109531001D01*
X242156072Y-107966000D01*
X242143812Y-107841518D01*
X242107502Y-107721820D01*
X242048537Y-107611506D01*
X241969185Y-107514815D01*
X241872494Y-107435463D01*
X241762180Y-107376498D01*
X241642482Y-107340188D01*
X241518000Y-107327928D01*
X240003000Y-107327928D01*
X240003000Y-105141293D01*
X240069942Y-105105512D01*
X240093839Y-105085901D01*
X240166506Y-105145537D01*
X240276820Y-105204502D01*
X240396518Y-105240812D01*
X240521000Y-105253072D01*
X240760250Y-105250000D01*
X240919000Y-105091250D01*
X240919000Y-104267000D01*
X241173000Y-104267000D01*
X241173000Y-105091250D01*
X241331750Y-105250000D01*
X241571000Y-105253072D01*
X241695482Y-105240812D01*
X241815180Y-105204502D01*
X241925494Y-105145537D01*
X242022185Y-105066185D01*
X242101537Y-104969494D01*
X242160502Y-104859180D01*
X242196812Y-104739482D01*
X242209072Y-104615000D01*
X244849928Y-104615000D01*
X244862188Y-104739482D01*
X244898498Y-104859180D01*
X244957463Y-104969494D01*
X245036815Y-105066185D01*
X245133506Y-105145537D01*
X245243820Y-105204502D01*
X245363518Y-105240812D01*
X245488000Y-105253072D01*
X245727250Y-105250000D01*
X245886000Y-105091250D01*
X245886000Y-104267000D01*
X245011750Y-104267000D01*
X244853000Y-104425750D01*
X244849928Y-104615000D01*
X242209072Y-104615000D01*
X242206000Y-104425750D01*
X242047250Y-104267000D01*
X241173000Y-104267000D01*
X240919000Y-104267000D01*
X240899000Y-104267000D01*
X240899000Y-104013000D01*
X240919000Y-104013000D01*
X240919000Y-103188750D01*
X241173000Y-103188750D01*
X241173000Y-104013000D01*
X242047250Y-104013000D01*
X242206000Y-103854250D01*
X242209072Y-103665000D01*
X244849928Y-103665000D01*
X244853000Y-103854250D01*
X245011750Y-104013000D01*
X245886000Y-104013000D01*
X245886000Y-103188750D01*
X245727250Y-103030000D01*
X245488000Y-103026928D01*
X245363518Y-103039188D01*
X245243820Y-103075498D01*
X245133506Y-103134463D01*
X245036815Y-103213815D01*
X244957463Y-103310506D01*
X244898498Y-103420820D01*
X244862188Y-103540518D01*
X244849928Y-103665000D01*
X242209072Y-103665000D01*
X242196812Y-103540518D01*
X242160502Y-103420820D01*
X242101537Y-103310506D01*
X242022185Y-103213815D01*
X241925494Y-103134463D01*
X241815180Y-103075498D01*
X241695482Y-103039188D01*
X241571000Y-103026928D01*
X241331750Y-103030000D01*
X241173000Y-103188750D01*
X240919000Y-103188750D01*
X240760250Y-103030000D01*
X240521000Y-103026928D01*
X240396518Y-103039188D01*
X240276820Y-103075498D01*
X240166506Y-103134463D01*
X240093839Y-103194099D01*
X240069942Y-103174488D01*
X239918567Y-103093577D01*
X239754316Y-103043752D01*
X239583500Y-103026928D01*
X239008500Y-103026928D01*
X238837684Y-103043752D01*
X238673433Y-103093577D01*
X238522058Y-103174488D01*
X238389377Y-103283377D01*
X238280488Y-103416058D01*
X238199577Y-103567433D01*
X238149752Y-103731684D01*
X238132928Y-103902500D01*
X238132928Y-104377500D01*
X238149752Y-104548316D01*
X238199577Y-104712567D01*
X238280488Y-104863942D01*
X238389377Y-104996623D01*
X238522058Y-105105512D01*
X238533001Y-105111361D01*
X238533000Y-107327928D01*
X237018000Y-107327928D01*
X236893518Y-107340188D01*
X236773820Y-107376498D01*
X236663506Y-107435463D01*
X236566815Y-107514815D01*
X236487463Y-107611506D01*
X236428498Y-107721820D01*
X236392188Y-107841518D01*
X236379928Y-107966000D01*
X236379928Y-108231000D01*
X235017296Y-108231000D01*
X234981199Y-108227445D01*
X234945102Y-108231000D01*
X234945095Y-108231000D01*
X234851332Y-108240235D01*
X234837114Y-108241635D01*
X234796818Y-108253859D01*
X234698567Y-108283663D01*
X234570880Y-108351913D01*
X234458962Y-108443762D01*
X234435946Y-108471807D01*
X233541208Y-109366546D01*
X233513162Y-109389563D01*
X233444089Y-109473728D01*
X233160400Y-109473728D01*
X233060400Y-109483577D01*
X232960400Y-109473728D01*
X232510400Y-109473728D01*
X232410400Y-109483577D01*
X232310400Y-109473728D01*
X231860400Y-109473728D01*
X231760400Y-109483577D01*
X231660400Y-109473728D01*
X231210400Y-109473728D01*
X231110400Y-109483577D01*
X231010400Y-109473728D01*
X230726711Y-109473728D01*
X230657637Y-109389562D01*
X230629592Y-109366546D01*
X230580658Y-109317612D01*
X230557637Y-109289561D01*
X230445719Y-109197712D01*
X230318032Y-109129462D01*
X230179484Y-109087434D01*
X230071504Y-109076799D01*
X230035399Y-109073243D01*
X229999294Y-109076799D01*
X229051028Y-109076799D01*
X229050000Y-108996750D01*
X228891250Y-108838000D01*
X228067000Y-108838000D01*
X228067000Y-108858000D01*
X227841291Y-108858000D01*
X227793000Y-108809709D01*
X227793000Y-108584000D01*
X227813000Y-108584000D01*
X227813000Y-108564000D01*
X228067000Y-108564000D01*
X228067000Y-108584000D01*
X228891250Y-108584000D01*
X229050000Y-108425250D01*
X229053072Y-108186000D01*
X229040812Y-108061518D01*
X229004502Y-107941820D01*
X228945537Y-107831506D01*
X228885901Y-107758839D01*
X228905512Y-107734942D01*
X228986423Y-107583567D01*
X229036248Y-107419316D01*
X229053072Y-107248500D01*
X229053072Y-107099506D01*
X229857879Y-106294699D01*
X229910400Y-106299872D01*
X230194089Y-106299872D01*
X230263162Y-106384037D01*
X230291208Y-106407054D01*
X230740157Y-106856003D01*
X230763173Y-106884049D01*
X230875091Y-106975898D01*
X231002778Y-107044148D01*
X231141326Y-107086176D01*
X231249306Y-107096811D01*
X231249315Y-107096811D01*
X231285410Y-107100366D01*
X231321505Y-107096811D01*
X235929985Y-107096811D01*
X235966090Y-107100367D01*
X236002195Y-107096811D01*
X236110175Y-107086176D01*
X236248723Y-107044148D01*
X236376410Y-106975898D01*
X236488328Y-106884049D01*
X236511349Y-106855998D01*
X236816187Y-106551160D01*
X236844238Y-106528139D01*
X236936087Y-106416221D01*
X236976935Y-106339800D01*
X237004337Y-106288535D01*
X237046365Y-106149986D01*
X237060556Y-106005901D01*
X237057000Y-105969796D01*
X237057000Y-100830225D01*
X237947049Y-99940177D01*
X238083080Y-100041641D01*
X238345901Y-100166825D01*
X238493110Y-100211476D01*
X238723000Y-100090155D01*
X238723000Y-98897000D01*
X238703000Y-98897000D01*
X238703000Y-98643000D01*
X238723000Y-98643000D01*
X238723000Y-98623000D01*
X238977000Y-98623000D01*
X238977000Y-98643000D01*
X238997000Y-98643000D01*
X238997000Y-98897000D01*
X238977000Y-98897000D01*
X238977000Y-100090155D01*
X239206890Y-100211476D01*
X239354099Y-100166825D01*
X239616920Y-100041641D01*
X239850269Y-99867588D01*
X240045178Y-99651355D01*
X240114805Y-99534466D01*
X240236525Y-99716632D01*
X240443368Y-99923475D01*
X240686589Y-100085990D01*
X240956842Y-100197932D01*
X241243740Y-100255000D01*
X241536260Y-100255000D01*
X241823158Y-100197932D01*
X242093411Y-100085990D01*
X242336632Y-99923475D01*
X242543475Y-99716632D01*
X242660000Y-99542240D01*
X242776525Y-99716632D01*
X242983368Y-99923475D01*
X243226589Y-100085990D01*
X243496842Y-100197932D01*
X243783740Y-100255000D01*
X244076260Y-100255000D01*
X244363158Y-100197932D01*
X244633411Y-100085990D01*
X244876632Y-99923475D01*
X245083475Y-99716632D01*
X245200000Y-99542240D01*
X245316525Y-99716632D01*
X245523368Y-99923475D01*
X245766589Y-100085990D01*
X246036842Y-100197932D01*
X246323740Y-100255000D01*
X246616260Y-100255000D01*
X246903158Y-100197932D01*
X247173411Y-100085990D01*
X247416632Y-99923475D01*
X247623475Y-99716632D01*
X247740000Y-99542240D01*
X247856525Y-99716632D01*
X248063368Y-99923475D01*
X248306589Y-100085990D01*
X248576842Y-100197932D01*
X248863740Y-100255000D01*
X249156260Y-100255000D01*
X249443158Y-100197932D01*
X249713411Y-100085990D01*
X249956632Y-99923475D01*
X250163475Y-99716632D01*
X250280000Y-99542240D01*
X250396525Y-99716632D01*
X250603368Y-99923475D01*
X250846589Y-100085990D01*
X251116842Y-100197932D01*
X251403740Y-100255000D01*
X251696260Y-100255000D01*
X251983158Y-100197932D01*
X252253411Y-100085990D01*
X252496632Y-99923475D01*
X252703475Y-99716632D01*
X252820000Y-99542240D01*
X252936525Y-99716632D01*
X253143368Y-99923475D01*
X253386589Y-100085990D01*
X253656842Y-100197932D01*
X253943740Y-100255000D01*
X254236260Y-100255000D01*
X254523158Y-100197932D01*
X254793411Y-100085990D01*
X255036632Y-99923475D01*
X255243475Y-99716632D01*
X255365195Y-99534466D01*
X255434822Y-99651355D01*
X255629731Y-99867588D01*
X255863080Y-100041641D01*
X256125901Y-100166825D01*
X256273110Y-100211476D01*
X256503000Y-100090155D01*
X256503000Y-98897000D01*
X256757000Y-98897000D01*
X256757000Y-100090155D01*
X256986890Y-100211476D01*
X257134099Y-100166825D01*
X257396920Y-100041641D01*
X257630269Y-99867588D01*
X257825178Y-99651355D01*
X257974157Y-99401252D01*
X258071481Y-99126891D01*
X257950814Y-98897000D01*
X256757000Y-98897000D01*
X256503000Y-98897000D01*
X256483000Y-98897000D01*
X256483000Y-98643000D01*
X256503000Y-98643000D01*
X256503000Y-98623000D01*
X256757000Y-98623000D01*
X256757000Y-98643000D01*
X257950814Y-98643000D01*
X258071481Y-98413109D01*
X257974157Y-98138748D01*
X257825178Y-97888645D01*
X257630269Y-97672412D01*
X257400594Y-97501100D01*
X257576632Y-97383475D01*
X257655612Y-97304495D01*
X259515000Y-97304495D01*
X259515000Y-97695505D01*
X259591282Y-98079003D01*
X259740915Y-98440250D01*
X259958149Y-98765364D01*
X260234636Y-99041851D01*
X260559750Y-99259085D01*
X260920997Y-99408718D01*
X261304495Y-99485000D01*
X261695505Y-99485000D01*
X262079003Y-99408718D01*
X262440250Y-99259085D01*
X262765364Y-99041851D01*
X263041851Y-98765364D01*
X263259085Y-98440250D01*
X263408718Y-98079003D01*
X263485000Y-97695505D01*
X263485000Y-97304495D01*
X263408718Y-96920997D01*
X263259085Y-96559750D01*
X263041851Y-96234636D01*
X262765364Y-95958149D01*
X262440250Y-95740915D01*
X262079003Y-95591282D01*
X261695505Y-95515000D01*
X261304495Y-95515000D01*
X260920997Y-95591282D01*
X260559750Y-95740915D01*
X260234636Y-95958149D01*
X259958149Y-96234636D01*
X259740915Y-96559750D01*
X259591282Y-96920997D01*
X259515000Y-97304495D01*
X257655612Y-97304495D01*
X257783475Y-97176632D01*
X257945990Y-96933411D01*
X258057932Y-96663158D01*
X258115000Y-96376260D01*
X258115000Y-96083740D01*
X258057932Y-95796842D01*
X257945990Y-95526589D01*
X257783475Y-95283368D01*
X257576632Y-95076525D01*
X257333411Y-94914010D01*
X257063158Y-94802068D01*
X256776260Y-94745000D01*
X256483740Y-94745000D01*
X256196842Y-94802068D01*
X255926589Y-94914010D01*
X255683368Y-95076525D01*
X255476525Y-95283368D01*
X255360000Y-95457760D01*
X255243475Y-95283368D01*
X255036632Y-95076525D01*
X254793411Y-94914010D01*
X254523158Y-94802068D01*
X254236260Y-94745000D01*
X253943740Y-94745000D01*
X253656842Y-94802068D01*
X253386589Y-94914010D01*
X253143368Y-95076525D01*
X252936525Y-95283368D01*
X252820000Y-95457760D01*
X252703475Y-95283368D01*
X252496632Y-95076525D01*
X252253411Y-94914010D01*
X251983158Y-94802068D01*
X251696260Y-94745000D01*
X251403740Y-94745000D01*
X251116842Y-94802068D01*
X250846589Y-94914010D01*
X250603368Y-95076525D01*
X250396525Y-95283368D01*
X250274805Y-95465534D01*
X250205178Y-95348645D01*
X250010269Y-95132412D01*
X249776920Y-94958359D01*
X249514099Y-94833175D01*
X249366890Y-94788524D01*
X249137000Y-94909845D01*
X249137000Y-96103000D01*
X249157000Y-96103000D01*
X249157000Y-96357000D01*
X249137000Y-96357000D01*
X249137000Y-96377000D01*
X248883000Y-96377000D01*
X248883000Y-96357000D01*
X248863000Y-96357000D01*
X248863000Y-96103000D01*
X248883000Y-96103000D01*
X248883000Y-94909845D01*
X248653110Y-94788524D01*
X248505901Y-94833175D01*
X248243080Y-94958359D01*
X248009731Y-95132412D01*
X247814822Y-95348645D01*
X247745195Y-95465534D01*
X247623475Y-95283368D01*
X247416632Y-95076525D01*
X247173411Y-94914010D01*
X246903158Y-94802068D01*
X246616260Y-94745000D01*
X246323740Y-94745000D01*
X246036842Y-94802068D01*
X245766589Y-94914010D01*
X245523368Y-95076525D01*
X245316525Y-95283368D01*
X245194805Y-95465534D01*
X245125178Y-95348645D01*
X244930269Y-95132412D01*
X244696920Y-94958359D01*
X244434099Y-94833175D01*
X244286890Y-94788524D01*
X244057000Y-94909845D01*
X244057000Y-96103000D01*
X244077000Y-96103000D01*
X244077000Y-96357000D01*
X244057000Y-96357000D01*
X244057000Y-96377000D01*
X243803000Y-96377000D01*
X243803000Y-96357000D01*
X243783000Y-96357000D01*
X243783000Y-96103000D01*
X243803000Y-96103000D01*
X243803000Y-94909845D01*
X243573110Y-94788524D01*
X243425901Y-94833175D01*
X243163080Y-94958359D01*
X242929731Y-95132412D01*
X242734822Y-95348645D01*
X242665195Y-95465534D01*
X242543475Y-95283368D01*
X242336632Y-95076525D01*
X242093411Y-94914010D01*
X241823158Y-94802068D01*
X241536260Y-94745000D01*
X241243740Y-94745000D01*
X240956842Y-94802068D01*
X240686589Y-94914010D01*
X240443368Y-95076525D01*
X240236525Y-95283368D01*
X240120000Y-95457760D01*
X240003475Y-95283368D01*
X239796632Y-95076525D01*
X239553411Y-94914010D01*
X239283158Y-94802068D01*
X238996260Y-94745000D01*
X238703740Y-94745000D01*
X238416842Y-94802068D01*
X238146589Y-94914010D01*
X237903368Y-95076525D01*
X237696525Y-95283368D01*
X237580000Y-95457760D01*
X237463475Y-95283368D01*
X237256632Y-95076525D01*
X237013411Y-94914010D01*
X236743158Y-94802068D01*
X236456260Y-94745000D01*
X236163740Y-94745000D01*
X235876842Y-94802068D01*
X235606589Y-94914010D01*
X235363368Y-95076525D01*
X235156525Y-95283368D01*
X235040000Y-95457760D01*
X234923475Y-95283368D01*
X234716632Y-95076525D01*
X234473411Y-94914010D01*
X234203158Y-94802068D01*
X233916260Y-94745000D01*
X233623740Y-94745000D01*
X233336842Y-94802068D01*
X233066589Y-94914010D01*
X232823368Y-95076525D01*
X232616525Y-95283368D01*
X232494805Y-95465534D01*
X232425178Y-95348645D01*
X232230269Y-95132412D01*
X231996920Y-94958359D01*
X231734099Y-94833175D01*
X231586890Y-94788524D01*
X231357000Y-94909845D01*
X231357000Y-96103000D01*
X231377000Y-96103000D01*
X231377000Y-96357000D01*
X231357000Y-96357000D01*
X231357000Y-96377000D01*
X231103000Y-96377000D01*
X231103000Y-96357000D01*
X231083000Y-96357000D01*
X231083000Y-96103000D01*
X231103000Y-96103000D01*
X231103000Y-94909845D01*
X230873110Y-94788524D01*
X230725901Y-94833175D01*
X230463080Y-94958359D01*
X230229731Y-95132412D01*
X230034822Y-95348645D01*
X229965195Y-95465534D01*
X229843475Y-95283368D01*
X229636632Y-95076525D01*
X229393411Y-94914010D01*
X229123158Y-94802068D01*
X228836260Y-94745000D01*
X228543740Y-94745000D01*
X228256842Y-94802068D01*
X227986589Y-94914010D01*
X227743368Y-95076525D01*
X227536525Y-95283368D01*
X227420000Y-95457760D01*
X227303475Y-95283368D01*
X227096632Y-95076525D01*
X226853411Y-94914010D01*
X226583158Y-94802068D01*
X226296260Y-94745000D01*
X226003740Y-94745000D01*
X225716842Y-94802068D01*
X225446589Y-94914010D01*
X225203368Y-95076525D01*
X224996525Y-95283368D01*
X224874805Y-95465534D01*
X224805178Y-95348645D01*
X224610269Y-95132412D01*
X224376920Y-94958359D01*
X224114099Y-94833175D01*
X223966890Y-94788524D01*
X223737000Y-94909845D01*
X223737000Y-96103000D01*
X223757000Y-96103000D01*
X223757000Y-96357000D01*
X223737000Y-96357000D01*
X223737000Y-96377000D01*
X223483000Y-96377000D01*
X223483000Y-96357000D01*
X223463000Y-96357000D01*
X223463000Y-96103000D01*
X223483000Y-96103000D01*
X223483000Y-94909845D01*
X223253110Y-94788524D01*
X223105901Y-94833175D01*
X222843080Y-94958359D01*
X222609731Y-95132412D01*
X222414822Y-95348645D01*
X222345195Y-95465534D01*
X222223475Y-95283368D01*
X222016632Y-95076525D01*
X221773411Y-94914010D01*
X221503158Y-94802068D01*
X221216260Y-94745000D01*
X220923740Y-94745000D01*
X220636842Y-94802068D01*
X220366589Y-94914010D01*
X220123368Y-95076525D01*
X219916525Y-95283368D01*
X219800000Y-95457760D01*
X219683475Y-95283368D01*
X219476632Y-95076525D01*
X219233411Y-94914010D01*
X218963158Y-94802068D01*
X218676260Y-94745000D01*
X218383740Y-94745000D01*
X218096842Y-94802068D01*
X217826589Y-94914010D01*
X217583368Y-95076525D01*
X217376525Y-95283368D01*
X217260000Y-95457760D01*
X217143475Y-95283368D01*
X216936632Y-95076525D01*
X216693411Y-94914010D01*
X216423158Y-94802068D01*
X216136260Y-94745000D01*
X215843740Y-94745000D01*
X215556842Y-94802068D01*
X215286589Y-94914010D01*
X215043368Y-95076525D01*
X214836525Y-95283368D01*
X214714805Y-95465534D01*
X214645178Y-95348645D01*
X214450269Y-95132412D01*
X214216920Y-94958359D01*
X213954099Y-94833175D01*
X213806890Y-94788524D01*
X213577000Y-94909845D01*
X213577000Y-96103000D01*
X213597000Y-96103000D01*
X213597000Y-96357000D01*
X213577000Y-96357000D01*
X213577000Y-96377000D01*
X213323000Y-96377000D01*
X213323000Y-96357000D01*
X213303000Y-96357000D01*
X213303000Y-96103000D01*
X213323000Y-96103000D01*
X213323000Y-94909845D01*
X213093110Y-94788524D01*
X212945901Y-94833175D01*
X212683080Y-94958359D01*
X212449731Y-95132412D01*
X212254822Y-95348645D01*
X212185195Y-95465534D01*
X212063475Y-95283368D01*
X211856632Y-95076525D01*
X211613411Y-94914010D01*
X211343158Y-94802068D01*
X211056260Y-94745000D01*
X210763740Y-94745000D01*
X210476842Y-94802068D01*
X210206589Y-94914010D01*
X209963368Y-95076525D01*
X209756525Y-95283368D01*
X209715344Y-95345000D01*
X209564656Y-95345000D01*
X209523475Y-95283368D01*
X209316632Y-95076525D01*
X209073411Y-94914010D01*
X208803158Y-94802068D01*
X208516260Y-94745000D01*
X208223740Y-94745000D01*
X207936842Y-94802068D01*
X207666589Y-94914010D01*
X207423368Y-95076525D01*
X207216525Y-95283368D01*
X207054010Y-95526589D01*
X206942068Y-95796842D01*
X206885000Y-96083740D01*
X206885000Y-96376260D01*
X206942068Y-96663158D01*
X207054010Y-96933411D01*
X207216525Y-97176632D01*
X207348380Y-97308487D01*
X207275820Y-97330498D01*
X207165506Y-97389463D01*
X207068815Y-97468815D01*
X206989463Y-97565506D01*
X206930498Y-97675820D01*
X206894188Y-97795518D01*
X206881928Y-97920000D01*
X205440345Y-97920000D01*
X205485000Y-97695505D01*
X205485000Y-97304495D01*
X205408718Y-96920997D01*
X205259085Y-96559750D01*
X205041851Y-96234636D01*
X204765364Y-95958149D01*
X204440250Y-95740915D01*
X204079003Y-95591282D01*
X203695505Y-95515000D01*
X203304495Y-95515000D01*
X202920997Y-95591282D01*
X202559750Y-95740915D01*
X202234636Y-95958149D01*
X201958149Y-96234636D01*
X201740915Y-96559750D01*
X201591282Y-96920997D01*
X201515000Y-97304495D01*
X200685000Y-97304495D01*
X200685000Y-97033505D01*
X200732312Y-96550984D01*
X200862714Y-96119070D01*
X201074524Y-95720715D01*
X201359675Y-95371086D01*
X201707303Y-95083503D01*
X202104177Y-94868914D01*
X202535161Y-94735502D01*
X203015654Y-94685000D01*
X261966495Y-94685000D01*
X262449016Y-94732312D01*
G37*
X262449016Y-94732312D02*
X262880930Y-94862714D01*
X263279285Y-95074524D01*
X263628914Y-95359675D01*
X263916497Y-95707303D01*
X264131086Y-96104177D01*
X264264498Y-96535161D01*
X264315001Y-97015663D01*
X264315000Y-110966495D01*
X264267688Y-111449016D01*
X264137287Y-111880927D01*
X263925480Y-112279280D01*
X263640325Y-112628914D01*
X263292697Y-112916497D01*
X262895825Y-113131085D01*
X262464834Y-113264500D01*
X261984346Y-113315000D01*
X203033504Y-113315000D01*
X202550984Y-113267688D01*
X202119073Y-113137287D01*
X201720720Y-112925480D01*
X201371086Y-112640325D01*
X201083503Y-112292697D01*
X200868915Y-111895825D01*
X200735500Y-111464834D01*
X200685000Y-110984346D01*
X200685000Y-103297000D01*
X220059928Y-103297000D01*
X220063000Y-103486250D01*
X220221750Y-103645000D01*
X221096000Y-103645000D01*
X221096000Y-102820750D01*
X220937250Y-102662000D01*
X220698000Y-102658928D01*
X220573518Y-102671188D01*
X220453820Y-102707498D01*
X220343506Y-102766463D01*
X220246815Y-102845815D01*
X220167463Y-102942506D01*
X220108498Y-103052820D01*
X220072188Y-103172518D01*
X220059928Y-103297000D01*
X200685000Y-103297000D01*
X200685000Y-97304495D01*
X201515000Y-97304495D01*
X201515000Y-97695505D01*
X201591282Y-98079003D01*
X201740915Y-98440250D01*
X201958149Y-98765364D01*
X202234636Y-99041851D01*
X202559750Y-99259085D01*
X202920997Y-99408718D01*
X203304495Y-99485000D01*
X203695505Y-99485000D01*
X204079003Y-99408718D01*
X204440250Y-99259085D01*
X204765364Y-99041851D01*
X205041851Y-98765364D01*
X205259085Y-98440250D01*
X205408718Y-98079003D01*
X205440345Y-97920000D01*
X206881928Y-97920000D01*
X206881928Y-99620000D01*
X206894188Y-99744482D01*
X206930498Y-99864180D01*
X206989463Y-99974494D01*
X207068815Y-100071185D01*
X207165506Y-100150537D01*
X207275820Y-100209502D01*
X207395518Y-100245812D01*
X207520000Y-100258072D01*
X209220000Y-100258072D01*
X209344482Y-100245812D01*
X209464180Y-100209502D01*
X209574494Y-100150537D01*
X209671185Y-100071185D01*
X209750537Y-99974494D01*
X209809502Y-99864180D01*
X209831513Y-99791620D01*
X209963368Y-99923475D01*
X210206589Y-100085990D01*
X210476842Y-100197932D01*
X210763740Y-100255000D01*
X211056260Y-100255000D01*
X211343158Y-100197932D01*
X211613411Y-100085990D01*
X211856632Y-99923475D01*
X212063475Y-99716632D01*
X212180000Y-99542240D01*
X212296525Y-99716632D01*
X212503368Y-99923475D01*
X212746589Y-100085990D01*
X213016842Y-100197932D01*
X213303740Y-100255000D01*
X213596260Y-100255000D01*
X213883158Y-100197932D01*
X214153411Y-100085990D01*
X214396632Y-99923475D01*
X214603475Y-99716632D01*
X214720000Y-99542240D01*
X214836525Y-99716632D01*
X215043368Y-99923475D01*
X215286589Y-100085990D01*
X215556842Y-100197932D01*
X215843740Y-100255000D01*
X216136260Y-100255000D01*
X216423158Y-100197932D01*
X216693411Y-100085990D01*
X216936632Y-99923475D01*
X217143475Y-99716632D01*
X217265195Y-99534466D01*
X217334822Y-99651355D01*
X217529731Y-99867588D01*
X217763080Y-100041641D01*
X218025901Y-100166825D01*
X218173110Y-100211476D01*
X218403000Y-100090155D01*
X218403000Y-98897000D01*
X218383000Y-98897000D01*
X218383000Y-98643000D01*
X218403000Y-98643000D01*
X218403000Y-98623000D01*
X218657000Y-98623000D01*
X218657000Y-98643000D01*
X218677000Y-98643000D01*
X218677000Y-98897000D01*
X218657000Y-98897000D01*
X218657000Y-100090155D01*
X218886890Y-100211476D01*
X219034099Y-100166825D01*
X219296920Y-100041641D01*
X219530269Y-99867588D01*
X219725178Y-99651355D01*
X219794805Y-99534466D01*
X219916525Y-99716632D01*
X220123368Y-99923475D01*
X220366589Y-100085990D01*
X220636842Y-100197932D01*
X220923740Y-100255000D01*
X221216260Y-100255000D01*
X221503158Y-100197932D01*
X221773411Y-100085990D01*
X222016632Y-99923475D01*
X222223475Y-99716632D01*
X222340000Y-99542240D01*
X222456525Y-99716632D01*
X222663368Y-99923475D01*
X222906589Y-100085990D01*
X223176842Y-100197932D01*
X223463740Y-100255000D01*
X223756260Y-100255000D01*
X224043158Y-100197932D01*
X224313411Y-100085990D01*
X224556632Y-99923475D01*
X224763475Y-99716632D01*
X224880000Y-99542240D01*
X224996525Y-99716632D01*
X225203368Y-99923475D01*
X225446589Y-100085990D01*
X225716842Y-100197932D01*
X226003740Y-100255000D01*
X226296260Y-100255000D01*
X226583158Y-100197932D01*
X226853411Y-100085990D01*
X227096632Y-99923475D01*
X227303475Y-99716632D01*
X227420000Y-99542240D01*
X227536525Y-99716632D01*
X227743368Y-99923475D01*
X227805000Y-99964656D01*
X227805001Y-101973262D01*
X227723941Y-102016589D01*
X227723939Y-102016590D01*
X227723940Y-102016590D01*
X227622953Y-102099468D01*
X227622951Y-102099470D01*
X227589183Y-102127183D01*
X227561470Y-102160951D01*
X226835422Y-102887000D01*
X225419469Y-102887000D01*
X225376000Y-102882719D01*
X225332531Y-102887000D01*
X223845046Y-102887000D01*
X223746942Y-102806488D01*
X223595567Y-102725577D01*
X223431316Y-102675752D01*
X223260500Y-102658928D01*
X222685500Y-102658928D01*
X222514684Y-102675752D01*
X222350433Y-102725577D01*
X222199058Y-102806488D01*
X222175161Y-102826099D01*
X222102494Y-102766463D01*
X221992180Y-102707498D01*
X221872482Y-102671188D01*
X221748000Y-102658928D01*
X221508750Y-102662000D01*
X221350000Y-102820750D01*
X221350000Y-103645000D01*
X221370000Y-103645000D01*
X221370000Y-103899000D01*
X221350000Y-103899000D01*
X221350000Y-103919000D01*
X221096000Y-103919000D01*
X221096000Y-103899000D01*
X220221750Y-103899000D01*
X220063000Y-104057750D01*
X220059928Y-104247000D01*
X220063348Y-104281728D01*
X218899600Y-104281728D01*
X218745855Y-104296871D01*
X218598018Y-104341716D01*
X218461771Y-104414542D01*
X218342349Y-104512549D01*
X218244342Y-104631971D01*
X218171516Y-104768218D01*
X218126671Y-104916055D01*
X218111528Y-105069800D01*
X218111528Y-105369800D01*
X218126671Y-105523545D01*
X218151319Y-105604800D01*
X217690739Y-105604800D01*
X217627912Y-105487258D01*
X217519023Y-105354577D01*
X217386342Y-105245688D01*
X217234967Y-105164777D01*
X217070716Y-105114952D01*
X216899900Y-105098128D01*
X216424900Y-105098128D01*
X216254084Y-105114952D01*
X216089833Y-105164777D01*
X215938458Y-105245688D01*
X215805777Y-105354577D01*
X215788031Y-105376200D01*
X215188103Y-105376200D01*
X215148299Y-105280105D01*
X214980312Y-105028695D01*
X214766505Y-104814888D01*
X214515095Y-104646901D01*
X214235743Y-104531189D01*
X213939184Y-104472200D01*
X213636816Y-104472200D01*
X213340257Y-104531189D01*
X213060905Y-104646901D01*
X212809495Y-104814888D01*
X212595688Y-105028695D01*
X212427701Y-105280105D01*
X212311989Y-105559457D01*
X212253000Y-105856016D01*
X212253000Y-106158384D01*
X212311989Y-106454943D01*
X212427701Y-106734295D01*
X212595688Y-106985705D01*
X212809495Y-107199512D01*
X212925763Y-107277200D01*
X212809495Y-107354888D01*
X212595688Y-107568695D01*
X212427701Y-107820105D01*
X212311989Y-108099457D01*
X212253000Y-108396016D01*
X212253000Y-108698384D01*
X212311989Y-108994943D01*
X212427701Y-109274295D01*
X212595688Y-109525705D01*
X212809495Y-109739512D01*
X213060905Y-109907499D01*
X213340257Y-110023211D01*
X213636816Y-110082200D01*
X213939184Y-110082200D01*
X214235743Y-110023211D01*
X214515095Y-109907499D01*
X214766505Y-109739512D01*
X214980312Y-109525705D01*
X215148299Y-109274295D01*
X215264011Y-108994943D01*
X215283652Y-108896200D01*
X215788031Y-108896200D01*
X215805777Y-108917823D01*
X215938458Y-109026712D01*
X216089833Y-109107623D01*
X216254084Y-109157448D01*
X216424900Y-109174272D01*
X216899900Y-109174272D01*
X217070716Y-109157448D01*
X217234967Y-109107623D01*
X217386342Y-109026712D01*
X217519023Y-108917823D01*
X217627912Y-108785142D01*
X217702926Y-108644800D01*
X218151319Y-108644800D01*
X218126671Y-108726055D01*
X218111528Y-108879800D01*
X218111528Y-109179800D01*
X218126671Y-109333545D01*
X218171516Y-109481382D01*
X218244342Y-109617629D01*
X218342349Y-109737051D01*
X218461771Y-109835058D01*
X218598018Y-109907884D01*
X218745855Y-109952729D01*
X218899600Y-109967872D01*
X219309294Y-109967872D01*
X220313928Y-110972507D01*
X220313928Y-111121500D01*
X220330752Y-111292316D01*
X220380577Y-111456567D01*
X220461488Y-111607942D01*
X220570377Y-111740623D01*
X220703058Y-111849512D01*
X220854433Y-111930423D01*
X221018684Y-111980248D01*
X221189500Y-111997072D01*
X221764500Y-111997072D01*
X221935316Y-111980248D01*
X222099567Y-111930423D01*
X222250942Y-111849512D01*
X222274839Y-111829901D01*
X222347506Y-111889537D01*
X222457820Y-111948502D01*
X222577518Y-111984812D01*
X222702000Y-111997072D01*
X222941250Y-111994000D01*
X223100000Y-111835250D01*
X223100000Y-111011000D01*
X223354000Y-111011000D01*
X223354000Y-111835250D01*
X223512750Y-111994000D01*
X223752000Y-111997072D01*
X223876482Y-111984812D01*
X223996180Y-111948502D01*
X224106494Y-111889537D01*
X224203185Y-111810185D01*
X224282537Y-111713494D01*
X224341502Y-111603180D01*
X224377812Y-111483482D01*
X224390072Y-111359000D01*
X224387000Y-111169750D01*
X224228250Y-111011000D01*
X223354000Y-111011000D01*
X223100000Y-111011000D01*
X223080000Y-111011000D01*
X223080000Y-110757000D01*
X223100000Y-110757000D01*
X223100000Y-109932750D01*
X222941250Y-109774000D01*
X222702000Y-109770928D01*
X222577518Y-109783188D01*
X222457820Y-109819498D01*
X222347506Y-109878463D01*
X222274839Y-109938099D01*
X222250942Y-109918488D01*
X222099567Y-109837577D01*
X221935316Y-109787752D01*
X221764500Y-109770928D01*
X221615507Y-109770928D01*
X221288920Y-109444341D01*
X221322529Y-109333545D01*
X221337672Y-109179800D01*
X221337672Y-108879800D01*
X221322529Y-108726055D01*
X221277684Y-108578218D01*
X221204858Y-108441971D01*
X221166146Y-108394800D01*
X221204858Y-108347629D01*
X221277684Y-108211382D01*
X221322529Y-108063545D01*
X221337672Y-107909800D01*
X221337672Y-107609800D01*
X221322529Y-107456055D01*
X221277684Y-107308218D01*
X221204858Y-107171971D01*
X221166146Y-107124800D01*
X221204858Y-107077629D01*
X221277684Y-106941382D01*
X221322529Y-106793545D01*
X221337672Y-106639800D01*
X221337672Y-106339800D01*
X221322529Y-106186055D01*
X221277684Y-106038218D01*
X221204858Y-105901971D01*
X221166146Y-105854800D01*
X221204858Y-105807629D01*
X221277684Y-105671382D01*
X221322529Y-105523545D01*
X221337672Y-105369800D01*
X221337672Y-105069800D01*
X221322529Y-104916055D01*
X221312199Y-104882000D01*
X221350002Y-104882000D01*
X221350002Y-104723252D01*
X221508750Y-104882000D01*
X221748000Y-104885072D01*
X221872482Y-104872812D01*
X221992180Y-104836502D01*
X222088000Y-104785284D01*
X222088001Y-105819721D01*
X222083719Y-105863200D01*
X222100805Y-106036690D01*
X222151412Y-106203513D01*
X222233590Y-106357259D01*
X222316468Y-106458246D01*
X222316471Y-106458249D01*
X222344184Y-106492017D01*
X222377951Y-106519729D01*
X222943070Y-107084849D01*
X222970783Y-107118617D01*
X223004551Y-107146330D01*
X223004553Y-107146332D01*
X223057289Y-107189611D01*
X223105541Y-107229211D01*
X223105915Y-107229411D01*
X223073788Y-107335318D01*
X223061528Y-107459800D01*
X223064600Y-107474050D01*
X223223350Y-107632800D01*
X224547600Y-107632800D01*
X224547600Y-107612800D01*
X224801600Y-107612800D01*
X224801600Y-107632800D01*
X224821600Y-107632800D01*
X224821600Y-107886800D01*
X224801600Y-107886800D01*
X224801600Y-107906800D01*
X224547600Y-107906800D01*
X224547600Y-107886800D01*
X223223350Y-107886800D01*
X223064600Y-108045550D01*
X223061528Y-108059800D01*
X223073788Y-108184282D01*
X223110098Y-108303980D01*
X223169063Y-108414294D01*
X223193330Y-108443864D01*
X223121516Y-108578218D01*
X223076671Y-108726055D01*
X223061528Y-108879800D01*
X223061528Y-109179800D01*
X223076671Y-109333545D01*
X223121516Y-109481382D01*
X223194342Y-109617629D01*
X223292349Y-109737051D01*
X223411771Y-109835058D01*
X223437786Y-109848964D01*
X223354000Y-109932750D01*
X223354000Y-110757000D01*
X224228250Y-110757000D01*
X224387000Y-110598250D01*
X224390072Y-110409000D01*
X224377812Y-110284518D01*
X224341502Y-110164820D01*
X224282537Y-110054506D01*
X224211439Y-109967872D01*
X225499600Y-109967872D01*
X225653345Y-109952729D01*
X225801182Y-109907884D01*
X225937429Y-109835058D01*
X226023039Y-109764800D01*
X226103499Y-109764800D01*
X227669688Y-111330988D01*
X227692708Y-111359038D01*
X227749900Y-111405974D01*
X227804626Y-111450887D01*
X227932313Y-111519137D01*
X228070861Y-111561165D01*
X228214946Y-111575356D01*
X228251051Y-111571800D01*
X228623313Y-111571800D01*
X228634588Y-111686282D01*
X228670898Y-111805980D01*
X228729863Y-111916294D01*
X228809215Y-112012985D01*
X228905906Y-112092337D01*
X229016220Y-112151302D01*
X229135918Y-112187612D01*
X229260400Y-112199872D01*
X229710400Y-112199872D01*
X229810400Y-112190023D01*
X229910400Y-112199872D01*
X230360400Y-112199872D01*
X230460400Y-112190023D01*
X230560400Y-112199872D01*
X231010400Y-112199872D01*
X231110400Y-112190023D01*
X231210400Y-112199872D01*
X231660400Y-112199872D01*
X231760400Y-112190023D01*
X231860400Y-112199872D01*
X232310400Y-112199872D01*
X232410400Y-112190023D01*
X232510400Y-112199872D01*
X232960400Y-112199872D01*
X233060400Y-112190023D01*
X233160400Y-112199872D01*
X233610400Y-112199872D01*
X233710400Y-112190023D01*
X233810400Y-112199872D01*
X234260400Y-112199872D01*
X234360400Y-112190023D01*
X234460400Y-112199872D01*
X234910400Y-112199872D01*
X235013627Y-112189705D01*
X235078650Y-112196800D01*
X235110897Y-112164553D01*
X235154580Y-112151302D01*
X235264894Y-112092337D01*
X235361585Y-112012985D01*
X235433400Y-111925478D01*
X235433400Y-112038050D01*
X235592150Y-112196800D01*
X235694396Y-112185644D01*
X235813527Y-112147515D01*
X235922931Y-112086878D01*
X236018403Y-112006063D01*
X236096274Y-111908175D01*
X236153551Y-111796975D01*
X236188034Y-111676739D01*
X236198398Y-111552085D01*
X236195400Y-111122550D01*
X236036650Y-110963800D01*
X235548472Y-110963800D01*
X235548472Y-110709800D01*
X236036650Y-110709800D01*
X236109501Y-110636949D01*
X236232745Y-110760193D01*
X236255761Y-110788239D01*
X236367679Y-110880088D01*
X236495366Y-110948338D01*
X236633914Y-110990366D01*
X236741894Y-111001001D01*
X236741903Y-111001001D01*
X236777998Y-111004556D01*
X236814093Y-111001001D01*
X247631894Y-111001001D01*
X247667999Y-111004557D01*
X247704104Y-111001001D01*
X247812084Y-110990366D01*
X247950632Y-110948338D01*
X248078319Y-110880088D01*
X248190237Y-110788239D01*
X248213258Y-110760188D01*
X248262192Y-110711254D01*
X248290237Y-110688238D01*
X248359311Y-110604072D01*
X250018000Y-110604072D01*
X250142482Y-110591812D01*
X250262180Y-110555502D01*
X250372494Y-110496537D01*
X250469185Y-110417185D01*
X250548537Y-110320494D01*
X250607502Y-110210180D01*
X250643812Y-110090482D01*
X250656072Y-109966000D01*
X250656072Y-107966000D01*
X250643812Y-107841518D01*
X250607502Y-107721820D01*
X250548537Y-107611506D01*
X250469185Y-107514815D01*
X250372494Y-107435463D01*
X250262180Y-107376498D01*
X250142482Y-107340188D01*
X250018000Y-107327928D01*
X248503000Y-107327928D01*
X248503000Y-105123654D01*
X248536942Y-105105512D01*
X248669623Y-104996623D01*
X248778512Y-104863942D01*
X248859423Y-104712567D01*
X248909248Y-104548316D01*
X248926072Y-104377500D01*
X248926072Y-103902500D01*
X248909248Y-103731684D01*
X248859423Y-103567433D01*
X248778512Y-103416058D01*
X248669623Y-103283377D01*
X248536942Y-103174488D01*
X248385567Y-103093577D01*
X248221316Y-103043752D01*
X248050500Y-103026928D01*
X247475500Y-103026928D01*
X247304684Y-103043752D01*
X247140433Y-103093577D01*
X246989058Y-103174488D01*
X246965161Y-103194099D01*
X246892494Y-103134463D01*
X246782180Y-103075498D01*
X246662482Y-103039188D01*
X246538000Y-103026928D01*
X246298750Y-103030000D01*
X246140000Y-103188750D01*
X246140000Y-104013000D01*
X246160000Y-104013000D01*
X246160000Y-104267000D01*
X246140000Y-104267000D01*
X246140000Y-105091250D01*
X246298750Y-105250000D01*
X246538000Y-105253072D01*
X246662482Y-105240812D01*
X246782180Y-105204502D01*
X246892494Y-105145537D01*
X246965161Y-105085901D01*
X246989058Y-105105512D01*
X247033001Y-105129000D01*
X247033000Y-107327928D01*
X245518000Y-107327928D01*
X245393518Y-107340188D01*
X245273820Y-107376498D01*
X245163506Y-107435463D01*
X245066815Y-107514815D01*
X244987463Y-107611506D01*
X244928498Y-107721820D01*
X244892188Y-107841518D01*
X244879928Y-107966000D01*
X244879928Y-109531001D01*
X242156072Y-109531001D01*
X242156072Y-107966000D01*
X242143812Y-107841518D01*
X242107502Y-107721820D01*
X242048537Y-107611506D01*
X241969185Y-107514815D01*
X241872494Y-107435463D01*
X241762180Y-107376498D01*
X241642482Y-107340188D01*
X241518000Y-107327928D01*
X240003000Y-107327928D01*
X240003000Y-105141293D01*
X240069942Y-105105512D01*
X240093839Y-105085901D01*
X240166506Y-105145537D01*
X240276820Y-105204502D01*
X240396518Y-105240812D01*
X240521000Y-105253072D01*
X240760250Y-105250000D01*
X240919000Y-105091250D01*
X240919000Y-104267000D01*
X241173000Y-104267000D01*
X241173000Y-105091250D01*
X241331750Y-105250000D01*
X241571000Y-105253072D01*
X241695482Y-105240812D01*
X241815180Y-105204502D01*
X241925494Y-105145537D01*
X242022185Y-105066185D01*
X242101537Y-104969494D01*
X242160502Y-104859180D01*
X242196812Y-104739482D01*
X242209072Y-104615000D01*
X244849928Y-104615000D01*
X244862188Y-104739482D01*
X244898498Y-104859180D01*
X244957463Y-104969494D01*
X245036815Y-105066185D01*
X245133506Y-105145537D01*
X245243820Y-105204502D01*
X245363518Y-105240812D01*
X245488000Y-105253072D01*
X245727250Y-105250000D01*
X245886000Y-105091250D01*
X245886000Y-104267000D01*
X245011750Y-104267000D01*
X244853000Y-104425750D01*
X244849928Y-104615000D01*
X242209072Y-104615000D01*
X242206000Y-104425750D01*
X242047250Y-104267000D01*
X241173000Y-104267000D01*
X240919000Y-104267000D01*
X240899000Y-104267000D01*
X240899000Y-104013000D01*
X240919000Y-104013000D01*
X240919000Y-103188750D01*
X241173000Y-103188750D01*
X241173000Y-104013000D01*
X242047250Y-104013000D01*
X242206000Y-103854250D01*
X242209072Y-103665000D01*
X244849928Y-103665000D01*
X244853000Y-103854250D01*
X245011750Y-104013000D01*
X245886000Y-104013000D01*
X245886000Y-103188750D01*
X245727250Y-103030000D01*
X245488000Y-103026928D01*
X245363518Y-103039188D01*
X245243820Y-103075498D01*
X245133506Y-103134463D01*
X245036815Y-103213815D01*
X244957463Y-103310506D01*
X244898498Y-103420820D01*
X244862188Y-103540518D01*
X244849928Y-103665000D01*
X242209072Y-103665000D01*
X242196812Y-103540518D01*
X242160502Y-103420820D01*
X242101537Y-103310506D01*
X242022185Y-103213815D01*
X241925494Y-103134463D01*
X241815180Y-103075498D01*
X241695482Y-103039188D01*
X241571000Y-103026928D01*
X241331750Y-103030000D01*
X241173000Y-103188750D01*
X240919000Y-103188750D01*
X240760250Y-103030000D01*
X240521000Y-103026928D01*
X240396518Y-103039188D01*
X240276820Y-103075498D01*
X240166506Y-103134463D01*
X240093839Y-103194099D01*
X240069942Y-103174488D01*
X239918567Y-103093577D01*
X239754316Y-103043752D01*
X239583500Y-103026928D01*
X239008500Y-103026928D01*
X238837684Y-103043752D01*
X238673433Y-103093577D01*
X238522058Y-103174488D01*
X238389377Y-103283377D01*
X238280488Y-103416058D01*
X238199577Y-103567433D01*
X238149752Y-103731684D01*
X238132928Y-103902500D01*
X238132928Y-104377500D01*
X238149752Y-104548316D01*
X238199577Y-104712567D01*
X238280488Y-104863942D01*
X238389377Y-104996623D01*
X238522058Y-105105512D01*
X238533001Y-105111361D01*
X238533000Y-107327928D01*
X237018000Y-107327928D01*
X236893518Y-107340188D01*
X236773820Y-107376498D01*
X236663506Y-107435463D01*
X236566815Y-107514815D01*
X236487463Y-107611506D01*
X236428498Y-107721820D01*
X236392188Y-107841518D01*
X236379928Y-107966000D01*
X236379928Y-108231000D01*
X235017296Y-108231000D01*
X234981199Y-108227445D01*
X234945102Y-108231000D01*
X234945095Y-108231000D01*
X234851332Y-108240235D01*
X234837114Y-108241635D01*
X234796818Y-108253859D01*
X234698567Y-108283663D01*
X234570880Y-108351913D01*
X234458962Y-108443762D01*
X234435946Y-108471807D01*
X233541208Y-109366546D01*
X233513162Y-109389563D01*
X233444089Y-109473728D01*
X233160400Y-109473728D01*
X233060400Y-109483577D01*
X232960400Y-109473728D01*
X232510400Y-109473728D01*
X232410400Y-109483577D01*
X232310400Y-109473728D01*
X231860400Y-109473728D01*
X231760400Y-109483577D01*
X231660400Y-109473728D01*
X231210400Y-109473728D01*
X231110400Y-109483577D01*
X231010400Y-109473728D01*
X230726711Y-109473728D01*
X230657637Y-109389562D01*
X230629592Y-109366546D01*
X230580658Y-109317612D01*
X230557637Y-109289561D01*
X230445719Y-109197712D01*
X230318032Y-109129462D01*
X230179484Y-109087434D01*
X230071504Y-109076799D01*
X230035399Y-109073243D01*
X229999294Y-109076799D01*
X229051028Y-109076799D01*
X229050000Y-108996750D01*
X228891250Y-108838000D01*
X228067000Y-108838000D01*
X228067000Y-108858000D01*
X227841291Y-108858000D01*
X227793000Y-108809709D01*
X227793000Y-108584000D01*
X227813000Y-108584000D01*
X227813000Y-108564000D01*
X228067000Y-108564000D01*
X228067000Y-108584000D01*
X228891250Y-108584000D01*
X229050000Y-108425250D01*
X229053072Y-108186000D01*
X229040812Y-108061518D01*
X229004502Y-107941820D01*
X228945537Y-107831506D01*
X228885901Y-107758839D01*
X228905512Y-107734942D01*
X228986423Y-107583567D01*
X229036248Y-107419316D01*
X229053072Y-107248500D01*
X229053072Y-107099506D01*
X229857879Y-106294699D01*
X229910400Y-106299872D01*
X230194089Y-106299872D01*
X230263162Y-106384037D01*
X230291208Y-106407054D01*
X230740157Y-106856003D01*
X230763173Y-106884049D01*
X230875091Y-106975898D01*
X231002778Y-107044148D01*
X231141326Y-107086176D01*
X231249306Y-107096811D01*
X231249315Y-107096811D01*
X231285410Y-107100366D01*
X231321505Y-107096811D01*
X235929985Y-107096811D01*
X235966090Y-107100367D01*
X236002195Y-107096811D01*
X236110175Y-107086176D01*
X236248723Y-107044148D01*
X236376410Y-106975898D01*
X236488328Y-106884049D01*
X236511349Y-106855998D01*
X236816187Y-106551160D01*
X236844238Y-106528139D01*
X236936087Y-106416221D01*
X236976935Y-106339800D01*
X237004337Y-106288535D01*
X237046365Y-106149986D01*
X237060556Y-106005901D01*
X237057000Y-105969796D01*
X237057000Y-100830225D01*
X237947049Y-99940177D01*
X238083080Y-100041641D01*
X238345901Y-100166825D01*
X238493110Y-100211476D01*
X238723000Y-100090155D01*
X238723000Y-98897000D01*
X238703000Y-98897000D01*
X238703000Y-98643000D01*
X238723000Y-98643000D01*
X238723000Y-98623000D01*
X238977000Y-98623000D01*
X238977000Y-98643000D01*
X238997000Y-98643000D01*
X238997000Y-98897000D01*
X238977000Y-98897000D01*
X238977000Y-100090155D01*
X239206890Y-100211476D01*
X239354099Y-100166825D01*
X239616920Y-100041641D01*
X239850269Y-99867588D01*
X240045178Y-99651355D01*
X240114805Y-99534466D01*
X240236525Y-99716632D01*
X240443368Y-99923475D01*
X240686589Y-100085990D01*
X240956842Y-100197932D01*
X241243740Y-100255000D01*
X241536260Y-100255000D01*
X241823158Y-100197932D01*
X242093411Y-100085990D01*
X242336632Y-99923475D01*
X242543475Y-99716632D01*
X242660000Y-99542240D01*
X242776525Y-99716632D01*
X242983368Y-99923475D01*
X243226589Y-100085990D01*
X243496842Y-100197932D01*
X243783740Y-100255000D01*
X244076260Y-100255000D01*
X244363158Y-100197932D01*
X244633411Y-100085990D01*
X244876632Y-99923475D01*
X245083475Y-99716632D01*
X245200000Y-99542240D01*
X245316525Y-99716632D01*
X245523368Y-99923475D01*
X245766589Y-100085990D01*
X246036842Y-100197932D01*
X246323740Y-100255000D01*
X246616260Y-100255000D01*
X246903158Y-100197932D01*
X247173411Y-100085990D01*
X247416632Y-99923475D01*
X247623475Y-99716632D01*
X247740000Y-99542240D01*
X247856525Y-99716632D01*
X248063368Y-99923475D01*
X248306589Y-100085990D01*
X248576842Y-100197932D01*
X248863740Y-100255000D01*
X249156260Y-100255000D01*
X249443158Y-100197932D01*
X249713411Y-100085990D01*
X249956632Y-99923475D01*
X250163475Y-99716632D01*
X250280000Y-99542240D01*
X250396525Y-99716632D01*
X250603368Y-99923475D01*
X250846589Y-100085990D01*
X251116842Y-100197932D01*
X251403740Y-100255000D01*
X251696260Y-100255000D01*
X251983158Y-100197932D01*
X252253411Y-100085990D01*
X252496632Y-99923475D01*
X252703475Y-99716632D01*
X252820000Y-99542240D01*
X252936525Y-99716632D01*
X253143368Y-99923475D01*
X253386589Y-100085990D01*
X253656842Y-100197932D01*
X253943740Y-100255000D01*
X254236260Y-100255000D01*
X254523158Y-100197932D01*
X254793411Y-100085990D01*
X255036632Y-99923475D01*
X255243475Y-99716632D01*
X255365195Y-99534466D01*
X255434822Y-99651355D01*
X255629731Y-99867588D01*
X255863080Y-100041641D01*
X256125901Y-100166825D01*
X256273110Y-100211476D01*
X256503000Y-100090155D01*
X256503000Y-98897000D01*
X256757000Y-98897000D01*
X256757000Y-100090155D01*
X256986890Y-100211476D01*
X257134099Y-100166825D01*
X257396920Y-100041641D01*
X257630269Y-99867588D01*
X257825178Y-99651355D01*
X257974157Y-99401252D01*
X258071481Y-99126891D01*
X257950814Y-98897000D01*
X256757000Y-98897000D01*
X256503000Y-98897000D01*
X256483000Y-98897000D01*
X256483000Y-98643000D01*
X256503000Y-98643000D01*
X256503000Y-98623000D01*
X256757000Y-98623000D01*
X256757000Y-98643000D01*
X257950814Y-98643000D01*
X258071481Y-98413109D01*
X257974157Y-98138748D01*
X257825178Y-97888645D01*
X257630269Y-97672412D01*
X257400594Y-97501100D01*
X257576632Y-97383475D01*
X257655612Y-97304495D01*
X259515000Y-97304495D01*
X259515000Y-97695505D01*
X259591282Y-98079003D01*
X259740915Y-98440250D01*
X259958149Y-98765364D01*
X260234636Y-99041851D01*
X260559750Y-99259085D01*
X260920997Y-99408718D01*
X261304495Y-99485000D01*
X261695505Y-99485000D01*
X262079003Y-99408718D01*
X262440250Y-99259085D01*
X262765364Y-99041851D01*
X263041851Y-98765364D01*
X263259085Y-98440250D01*
X263408718Y-98079003D01*
X263485000Y-97695505D01*
X263485000Y-97304495D01*
X263408718Y-96920997D01*
X263259085Y-96559750D01*
X263041851Y-96234636D01*
X262765364Y-95958149D01*
X262440250Y-95740915D01*
X262079003Y-95591282D01*
X261695505Y-95515000D01*
X261304495Y-95515000D01*
X260920997Y-95591282D01*
X260559750Y-95740915D01*
X260234636Y-95958149D01*
X259958149Y-96234636D01*
X259740915Y-96559750D01*
X259591282Y-96920997D01*
X259515000Y-97304495D01*
X257655612Y-97304495D01*
X257783475Y-97176632D01*
X257945990Y-96933411D01*
X258057932Y-96663158D01*
X258115000Y-96376260D01*
X258115000Y-96083740D01*
X258057932Y-95796842D01*
X257945990Y-95526589D01*
X257783475Y-95283368D01*
X257576632Y-95076525D01*
X257333411Y-94914010D01*
X257063158Y-94802068D01*
X256776260Y-94745000D01*
X256483740Y-94745000D01*
X256196842Y-94802068D01*
X255926589Y-94914010D01*
X255683368Y-95076525D01*
X255476525Y-95283368D01*
X255360000Y-95457760D01*
X255243475Y-95283368D01*
X255036632Y-95076525D01*
X254793411Y-94914010D01*
X254523158Y-94802068D01*
X254236260Y-94745000D01*
X253943740Y-94745000D01*
X253656842Y-94802068D01*
X253386589Y-94914010D01*
X253143368Y-95076525D01*
X252936525Y-95283368D01*
X252820000Y-95457760D01*
X252703475Y-95283368D01*
X252496632Y-95076525D01*
X252253411Y-94914010D01*
X251983158Y-94802068D01*
X251696260Y-94745000D01*
X251403740Y-94745000D01*
X251116842Y-94802068D01*
X250846589Y-94914010D01*
X250603368Y-95076525D01*
X250396525Y-95283368D01*
X250274805Y-95465534D01*
X250205178Y-95348645D01*
X250010269Y-95132412D01*
X249776920Y-94958359D01*
X249514099Y-94833175D01*
X249366890Y-94788524D01*
X249137000Y-94909845D01*
X249137000Y-96103000D01*
X249157000Y-96103000D01*
X249157000Y-96357000D01*
X249137000Y-96357000D01*
X249137000Y-96377000D01*
X248883000Y-96377000D01*
X248883000Y-96357000D01*
X248863000Y-96357000D01*
X248863000Y-96103000D01*
X248883000Y-96103000D01*
X248883000Y-94909845D01*
X248653110Y-94788524D01*
X248505901Y-94833175D01*
X248243080Y-94958359D01*
X248009731Y-95132412D01*
X247814822Y-95348645D01*
X247745195Y-95465534D01*
X247623475Y-95283368D01*
X247416632Y-95076525D01*
X247173411Y-94914010D01*
X246903158Y-94802068D01*
X246616260Y-94745000D01*
X246323740Y-94745000D01*
X246036842Y-94802068D01*
X245766589Y-94914010D01*
X245523368Y-95076525D01*
X245316525Y-95283368D01*
X245194805Y-95465534D01*
X245125178Y-95348645D01*
X244930269Y-95132412D01*
X244696920Y-94958359D01*
X244434099Y-94833175D01*
X244286890Y-94788524D01*
X244057000Y-94909845D01*
X244057000Y-96103000D01*
X244077000Y-96103000D01*
X244077000Y-96357000D01*
X244057000Y-96357000D01*
X244057000Y-96377000D01*
X243803000Y-96377000D01*
X243803000Y-96357000D01*
X243783000Y-96357000D01*
X243783000Y-96103000D01*
X243803000Y-96103000D01*
X243803000Y-94909845D01*
X243573110Y-94788524D01*
X243425901Y-94833175D01*
X243163080Y-94958359D01*
X242929731Y-95132412D01*
X242734822Y-95348645D01*
X242665195Y-95465534D01*
X242543475Y-95283368D01*
X242336632Y-95076525D01*
X242093411Y-94914010D01*
X241823158Y-94802068D01*
X241536260Y-94745000D01*
X241243740Y-94745000D01*
X240956842Y-94802068D01*
X240686589Y-94914010D01*
X240443368Y-95076525D01*
X240236525Y-95283368D01*
X240120000Y-95457760D01*
X240003475Y-95283368D01*
X239796632Y-95076525D01*
X239553411Y-94914010D01*
X239283158Y-94802068D01*
X238996260Y-94745000D01*
X238703740Y-94745000D01*
X238416842Y-94802068D01*
X238146589Y-94914010D01*
X237903368Y-95076525D01*
X237696525Y-95283368D01*
X237580000Y-95457760D01*
X237463475Y-95283368D01*
X237256632Y-95076525D01*
X237013411Y-94914010D01*
X236743158Y-94802068D01*
X236456260Y-94745000D01*
X236163740Y-94745000D01*
X235876842Y-94802068D01*
X235606589Y-94914010D01*
X235363368Y-95076525D01*
X235156525Y-95283368D01*
X235040000Y-95457760D01*
X234923475Y-95283368D01*
X234716632Y-95076525D01*
X234473411Y-94914010D01*
X234203158Y-94802068D01*
X233916260Y-94745000D01*
X233623740Y-94745000D01*
X233336842Y-94802068D01*
X233066589Y-94914010D01*
X232823368Y-95076525D01*
X232616525Y-95283368D01*
X232494805Y-95465534D01*
X232425178Y-95348645D01*
X232230269Y-95132412D01*
X231996920Y-94958359D01*
X231734099Y-94833175D01*
X231586890Y-94788524D01*
X231357000Y-94909845D01*
X231357000Y-96103000D01*
X231377000Y-96103000D01*
X231377000Y-96357000D01*
X231357000Y-96357000D01*
X231357000Y-96377000D01*
X231103000Y-96377000D01*
X231103000Y-96357000D01*
X231083000Y-96357000D01*
X231083000Y-96103000D01*
X231103000Y-96103000D01*
X231103000Y-94909845D01*
X230873110Y-94788524D01*
X230725901Y-94833175D01*
X230463080Y-94958359D01*
X230229731Y-95132412D01*
X230034822Y-95348645D01*
X229965195Y-95465534D01*
X229843475Y-95283368D01*
X229636632Y-95076525D01*
X229393411Y-94914010D01*
X229123158Y-94802068D01*
X228836260Y-94745000D01*
X228543740Y-94745000D01*
X228256842Y-94802068D01*
X227986589Y-94914010D01*
X227743368Y-95076525D01*
X227536525Y-95283368D01*
X227420000Y-95457760D01*
X227303475Y-95283368D01*
X227096632Y-95076525D01*
X226853411Y-94914010D01*
X226583158Y-94802068D01*
X226296260Y-94745000D01*
X226003740Y-94745000D01*
X225716842Y-94802068D01*
X225446589Y-94914010D01*
X225203368Y-95076525D01*
X224996525Y-95283368D01*
X224874805Y-95465534D01*
X224805178Y-95348645D01*
X224610269Y-95132412D01*
X224376920Y-94958359D01*
X224114099Y-94833175D01*
X223966890Y-94788524D01*
X223737000Y-94909845D01*
X223737000Y-96103000D01*
X223757000Y-96103000D01*
X223757000Y-96357000D01*
X223737000Y-96357000D01*
X223737000Y-96377000D01*
X223483000Y-96377000D01*
X223483000Y-96357000D01*
X223463000Y-96357000D01*
X223463000Y-96103000D01*
X223483000Y-96103000D01*
X223483000Y-94909845D01*
X223253110Y-94788524D01*
X223105901Y-94833175D01*
X222843080Y-94958359D01*
X222609731Y-95132412D01*
X222414822Y-95348645D01*
X222345195Y-95465534D01*
X222223475Y-95283368D01*
X222016632Y-95076525D01*
X221773411Y-94914010D01*
X221503158Y-94802068D01*
X221216260Y-94745000D01*
X220923740Y-94745000D01*
X220636842Y-94802068D01*
X220366589Y-94914010D01*
X220123368Y-95076525D01*
X219916525Y-95283368D01*
X219800000Y-95457760D01*
X219683475Y-95283368D01*
X219476632Y-95076525D01*
X219233411Y-94914010D01*
X218963158Y-94802068D01*
X218676260Y-94745000D01*
X218383740Y-94745000D01*
X218096842Y-94802068D01*
X217826589Y-94914010D01*
X217583368Y-95076525D01*
X217376525Y-95283368D01*
X217260000Y-95457760D01*
X217143475Y-95283368D01*
X216936632Y-95076525D01*
X216693411Y-94914010D01*
X216423158Y-94802068D01*
X216136260Y-94745000D01*
X215843740Y-94745000D01*
X215556842Y-94802068D01*
X215286589Y-94914010D01*
X215043368Y-95076525D01*
X214836525Y-95283368D01*
X214714805Y-95465534D01*
X214645178Y-95348645D01*
X214450269Y-95132412D01*
X214216920Y-94958359D01*
X213954099Y-94833175D01*
X213806890Y-94788524D01*
X213577000Y-94909845D01*
X213577000Y-96103000D01*
X213597000Y-96103000D01*
X213597000Y-96357000D01*
X213577000Y-96357000D01*
X213577000Y-96377000D01*
X213323000Y-96377000D01*
X213323000Y-96357000D01*
X213303000Y-96357000D01*
X213303000Y-96103000D01*
X213323000Y-96103000D01*
X213323000Y-94909845D01*
X213093110Y-94788524D01*
X212945901Y-94833175D01*
X212683080Y-94958359D01*
X212449731Y-95132412D01*
X212254822Y-95348645D01*
X212185195Y-95465534D01*
X212063475Y-95283368D01*
X211856632Y-95076525D01*
X211613411Y-94914010D01*
X211343158Y-94802068D01*
X211056260Y-94745000D01*
X210763740Y-94745000D01*
X210476842Y-94802068D01*
X210206589Y-94914010D01*
X209963368Y-95076525D01*
X209756525Y-95283368D01*
X209715344Y-95345000D01*
X209564656Y-95345000D01*
X209523475Y-95283368D01*
X209316632Y-95076525D01*
X209073411Y-94914010D01*
X208803158Y-94802068D01*
X208516260Y-94745000D01*
X208223740Y-94745000D01*
X207936842Y-94802068D01*
X207666589Y-94914010D01*
X207423368Y-95076525D01*
X207216525Y-95283368D01*
X207054010Y-95526589D01*
X206942068Y-95796842D01*
X206885000Y-96083740D01*
X206885000Y-96376260D01*
X206942068Y-96663158D01*
X207054010Y-96933411D01*
X207216525Y-97176632D01*
X207348380Y-97308487D01*
X207275820Y-97330498D01*
X207165506Y-97389463D01*
X207068815Y-97468815D01*
X206989463Y-97565506D01*
X206930498Y-97675820D01*
X206894188Y-97795518D01*
X206881928Y-97920000D01*
X205440345Y-97920000D01*
X205485000Y-97695505D01*
X205485000Y-97304495D01*
X205408718Y-96920997D01*
X205259085Y-96559750D01*
X205041851Y-96234636D01*
X204765364Y-95958149D01*
X204440250Y-95740915D01*
X204079003Y-95591282D01*
X203695505Y-95515000D01*
X203304495Y-95515000D01*
X202920997Y-95591282D01*
X202559750Y-95740915D01*
X202234636Y-95958149D01*
X201958149Y-96234636D01*
X201740915Y-96559750D01*
X201591282Y-96920997D01*
X201515000Y-97304495D01*
X200685000Y-97304495D01*
X200685000Y-97033505D01*
X200732312Y-96550984D01*
X200862714Y-96119070D01*
X201074524Y-95720715D01*
X201359675Y-95371086D01*
X201707303Y-95083503D01*
X202104177Y-94868914D01*
X202535161Y-94735502D01*
X203015654Y-94685000D01*
X261966495Y-94685000D01*
X262449016Y-94732312D01*
M02*
