G04 #@! TF.GenerationSoftware,KiCad,Pcbnew,(5.1.5)-3*
G04 #@! TF.CreationDate,2020-10-26T09:13:26-05:00*
G04 #@! TF.ProjectId,ravencanboard,72617665-6e63-4616-9e62-6f6172642e6b,rev?*
G04 #@! TF.SameCoordinates,Original*
G04 #@! TF.FileFunction,Legend,Top*
G04 #@! TF.FilePolarity,Positive*
%FSLAX46Y46*%
G04 Gerber Fmt 4.6, Leading zero omitted, Abs format (unit mm)*
G04 Created by KiCad (PCBNEW (5.1.5)-3) date 2020-10-26 09:13:26*
%MOMM*%
%LPD*%
G04 APERTURE LIST*
%ADD10C,0.100000*%
%ADD11C,0.120000*%
%ADD12C,0.254000*%
%ADD13C,0.150000*%
G04 APERTURE END LIST*
D10*
X212058380Y-104243142D02*
X212010761Y-104290761D01*
X211867904Y-104338380D01*
X211772666Y-104338380D01*
X211629809Y-104290761D01*
X211534571Y-104195523D01*
X211486952Y-104100285D01*
X211439333Y-103909809D01*
X211439333Y-103766952D01*
X211486952Y-103576476D01*
X211534571Y-103481238D01*
X211629809Y-103386000D01*
X211772666Y-103338380D01*
X211867904Y-103338380D01*
X212010761Y-103386000D01*
X212058380Y-103433619D01*
X212439333Y-104052666D02*
X212915523Y-104052666D01*
X212344095Y-104338380D02*
X212677428Y-103338380D01*
X213010761Y-104338380D01*
X213344095Y-104338380D02*
X213344095Y-103338380D01*
X213915523Y-104338380D01*
X213915523Y-103338380D01*
X214867904Y-104338380D02*
X214391714Y-104338380D01*
X214391714Y-103338380D01*
X211939333Y-111101142D02*
X211891714Y-111148761D01*
X211748857Y-111196380D01*
X211653619Y-111196380D01*
X211510761Y-111148761D01*
X211415523Y-111053523D01*
X211367904Y-110958285D01*
X211320285Y-110767809D01*
X211320285Y-110624952D01*
X211367904Y-110434476D01*
X211415523Y-110339238D01*
X211510761Y-110244000D01*
X211653619Y-110196380D01*
X211748857Y-110196380D01*
X211891714Y-110244000D01*
X211939333Y-110291619D01*
X212320285Y-110910666D02*
X212796476Y-110910666D01*
X212225047Y-111196380D02*
X212558380Y-110196380D01*
X212891714Y-111196380D01*
X213225047Y-111196380D02*
X213225047Y-110196380D01*
X213796476Y-111196380D01*
X213796476Y-110196380D01*
X214272666Y-111196380D02*
X214272666Y-110196380D01*
X214272666Y-110672571D02*
X214844095Y-110672571D01*
X214844095Y-111196380D02*
X214844095Y-110196380D01*
D11*
X236818000Y-111516000D02*
X249418000Y-111516000D01*
X236818000Y-106416000D02*
X236818000Y-111516000D01*
X249418000Y-106416000D02*
X236818000Y-106416000D01*
D12*
X199948000Y-109742200D02*
X211308000Y-109742200D01*
X199948000Y-104812200D02*
X199948000Y-109742200D01*
X211308000Y-104812200D02*
X199948000Y-104812200D01*
X211308000Y-109742200D02*
X211308000Y-104812200D01*
D13*
X228960400Y-111636800D02*
X228960400Y-105661800D01*
X235860400Y-110111800D02*
X235860400Y-105661800D01*
D11*
X216152400Y-106964933D02*
X216152400Y-107307467D01*
X217172400Y-106964933D02*
X217172400Y-107307467D01*
X221926733Y-104282000D02*
X222269267Y-104282000D01*
X221926733Y-103262000D02*
X222269267Y-103262000D01*
X228450000Y-108007267D02*
X228450000Y-107664733D01*
X227430000Y-108007267D02*
X227430000Y-107664733D01*
X222523267Y-110374000D02*
X222180733Y-110374000D01*
X222523267Y-111394000D02*
X222180733Y-111394000D01*
X229889267Y-102246000D02*
X229546733Y-102246000D01*
X229889267Y-103266000D02*
X229546733Y-103266000D01*
X222199600Y-109684800D02*
X225649600Y-109684800D01*
X222199600Y-109684800D02*
X220249600Y-109684800D01*
X222199600Y-104564800D02*
X224149600Y-104564800D01*
X222199600Y-104564800D02*
X220249600Y-104564800D01*
X246716733Y-104650000D02*
X247059267Y-104650000D01*
X246716733Y-103630000D02*
X247059267Y-103630000D01*
X240342267Y-103630000D02*
X239999733Y-103630000D01*
X240342267Y-104650000D02*
X239999733Y-104650000D01*
D13*
X243041809Y-105392190D02*
X243041809Y-105868380D01*
X242708476Y-104868380D02*
X243041809Y-105392190D01*
X243375142Y-104868380D01*
X244232285Y-105868380D02*
X243660857Y-105868380D01*
X243946571Y-105868380D02*
X243946571Y-104868380D01*
X243851333Y-105011238D01*
X243756095Y-105106476D01*
X243660857Y-105154095D01*
D12*
X207418683Y-108080393D02*
X208325826Y-108080393D01*
X208507255Y-108140869D01*
X208628207Y-108261821D01*
X208688683Y-108443250D01*
X208688683Y-108564202D01*
X208688683Y-106810393D02*
X208688683Y-107536107D01*
X208688683Y-107173250D02*
X207418683Y-107173250D01*
X207600112Y-107294202D01*
X207721064Y-107415155D01*
X207781540Y-107536107D01*
D13*
X227562780Y-111391904D02*
X228372304Y-111391904D01*
X228467542Y-111344285D01*
X228515161Y-111296666D01*
X228562780Y-111201428D01*
X228562780Y-111010952D01*
X228515161Y-110915714D01*
X228467542Y-110868095D01*
X228372304Y-110820476D01*
X227562780Y-110820476D01*
X228562780Y-109820476D02*
X228562780Y-110391904D01*
X228562780Y-110106190D02*
X227562780Y-110106190D01*
X227705638Y-110201428D01*
X227800876Y-110296666D01*
X227848495Y-110391904D01*
X217114380Y-110148666D02*
X216638190Y-110482000D01*
X217114380Y-110720095D02*
X216114380Y-110720095D01*
X216114380Y-110339142D01*
X216162000Y-110243904D01*
X216209619Y-110196285D01*
X216304857Y-110148666D01*
X216447714Y-110148666D01*
X216542952Y-110196285D01*
X216590571Y-110243904D01*
X216638190Y-110339142D01*
X216638190Y-110720095D01*
X216114380Y-109815333D02*
X216114380Y-109196285D01*
X216495333Y-109529619D01*
X216495333Y-109386761D01*
X216542952Y-109291523D01*
X216590571Y-109243904D01*
X216685809Y-109196285D01*
X216923904Y-109196285D01*
X217019142Y-109243904D01*
X217066761Y-109291523D01*
X217114380Y-109386761D01*
X217114380Y-109672476D01*
X217066761Y-109767714D01*
X217019142Y-109815333D01*
X221931333Y-102699142D02*
X221883714Y-102746761D01*
X221740857Y-102794380D01*
X221645619Y-102794380D01*
X221502761Y-102746761D01*
X221407523Y-102651523D01*
X221359904Y-102556285D01*
X221312285Y-102365809D01*
X221312285Y-102222952D01*
X221359904Y-102032476D01*
X221407523Y-101937238D01*
X221502761Y-101842000D01*
X221645619Y-101794380D01*
X221740857Y-101794380D01*
X221883714Y-101842000D01*
X221931333Y-101889619D01*
X222264666Y-101794380D02*
X222883714Y-101794380D01*
X222550380Y-102175333D01*
X222693238Y-102175333D01*
X222788476Y-102222952D01*
X222836095Y-102270571D01*
X222883714Y-102365809D01*
X222883714Y-102603904D01*
X222836095Y-102699142D01*
X222788476Y-102746761D01*
X222693238Y-102794380D01*
X222407523Y-102794380D01*
X222312285Y-102746761D01*
X222264666Y-102699142D01*
X226867142Y-108002666D02*
X226914761Y-108050285D01*
X226962380Y-108193142D01*
X226962380Y-108288380D01*
X226914761Y-108431238D01*
X226819523Y-108526476D01*
X226724285Y-108574095D01*
X226533809Y-108621714D01*
X226390952Y-108621714D01*
X226200476Y-108574095D01*
X226105238Y-108526476D01*
X226010000Y-108431238D01*
X225962380Y-108288380D01*
X225962380Y-108193142D01*
X226010000Y-108050285D01*
X226057619Y-108002666D01*
X226295714Y-107145523D02*
X226962380Y-107145523D01*
X225914761Y-107383619D02*
X226629047Y-107621714D01*
X226629047Y-107002666D01*
X222185333Y-112766380D02*
X221852000Y-112290190D01*
X221613904Y-112766380D02*
X221613904Y-111766380D01*
X221994857Y-111766380D01*
X222090095Y-111814000D01*
X222137714Y-111861619D01*
X222185333Y-111956857D01*
X222185333Y-112099714D01*
X222137714Y-112194952D01*
X222090095Y-112242571D01*
X221994857Y-112290190D01*
X221613904Y-112290190D01*
X222566285Y-111861619D02*
X222613904Y-111814000D01*
X222709142Y-111766380D01*
X222947238Y-111766380D01*
X223042476Y-111814000D01*
X223090095Y-111861619D01*
X223137714Y-111956857D01*
X223137714Y-112052095D01*
X223090095Y-112194952D01*
X222518666Y-112766380D01*
X223137714Y-112766380D01*
X229551333Y-101938380D02*
X229218000Y-101462190D01*
X228979904Y-101938380D02*
X228979904Y-100938380D01*
X229360857Y-100938380D01*
X229456095Y-100986000D01*
X229503714Y-101033619D01*
X229551333Y-101128857D01*
X229551333Y-101271714D01*
X229503714Y-101366952D01*
X229456095Y-101414571D01*
X229360857Y-101462190D01*
X228979904Y-101462190D01*
X230503714Y-101938380D02*
X229932285Y-101938380D01*
X230218000Y-101938380D02*
X230218000Y-100938380D01*
X230122761Y-101081238D01*
X230027523Y-101176476D01*
X229932285Y-101224095D01*
X224384095Y-110082380D02*
X224384095Y-110891904D01*
X224431714Y-110987142D01*
X224479333Y-111034761D01*
X224574571Y-111082380D01*
X224765047Y-111082380D01*
X224860285Y-111034761D01*
X224907904Y-110987142D01*
X224955523Y-110891904D01*
X224955523Y-110082380D01*
X225384095Y-110177619D02*
X225431714Y-110130000D01*
X225526952Y-110082380D01*
X225765047Y-110082380D01*
X225860285Y-110130000D01*
X225907904Y-110177619D01*
X225955523Y-110272857D01*
X225955523Y-110368095D01*
X225907904Y-110510952D01*
X225336476Y-111082380D01*
X225955523Y-111082380D01*
X246721333Y-105927142D02*
X246673714Y-105974761D01*
X246530857Y-106022380D01*
X246435619Y-106022380D01*
X246292761Y-105974761D01*
X246197523Y-105879523D01*
X246149904Y-105784285D01*
X246102285Y-105593809D01*
X246102285Y-105450952D01*
X246149904Y-105260476D01*
X246197523Y-105165238D01*
X246292761Y-105070000D01*
X246435619Y-105022380D01*
X246530857Y-105022380D01*
X246673714Y-105070000D01*
X246721333Y-105117619D01*
X247102285Y-105117619D02*
X247149904Y-105070000D01*
X247245142Y-105022380D01*
X247483238Y-105022380D01*
X247578476Y-105070000D01*
X247626095Y-105117619D01*
X247673714Y-105212857D01*
X247673714Y-105308095D01*
X247626095Y-105450952D01*
X247054666Y-106022380D01*
X247673714Y-106022380D01*
X240004333Y-105927142D02*
X239956714Y-105974761D01*
X239813857Y-106022380D01*
X239718619Y-106022380D01*
X239575761Y-105974761D01*
X239480523Y-105879523D01*
X239432904Y-105784285D01*
X239385285Y-105593809D01*
X239385285Y-105450952D01*
X239432904Y-105260476D01*
X239480523Y-105165238D01*
X239575761Y-105070000D01*
X239718619Y-105022380D01*
X239813857Y-105022380D01*
X239956714Y-105070000D01*
X240004333Y-105117619D01*
X240956714Y-106022380D02*
X240385285Y-106022380D01*
X240671000Y-106022380D02*
X240671000Y-105022380D01*
X240575761Y-105165238D01*
X240480523Y-105260476D01*
X240385285Y-105308095D01*
M02*
