G04 #@! TF.GenerationSoftware,KiCad,Pcbnew,(5.1.5)-3*
G04 #@! TF.CreationDate,2020-10-26T09:13:58-05:00*
G04 #@! TF.ProjectId,ravencanboard,72617665-6e63-4616-9e62-6f6172642e6b,rev?*
G04 #@! TF.SameCoordinates,Original*
G04 #@! TF.FileFunction,Copper,L2,Bot*
G04 #@! TF.FilePolarity,Positive*
%FSLAX46Y46*%
G04 Gerber Fmt 4.6, Leading zero omitted, Abs format (unit mm)*
G04 Created by KiCad (PCBNEW (5.1.5)-3) date 2020-10-26 09:13:58*
%MOMM*%
%LPD*%
G04 APERTURE LIST*
%ADD10C,1.800000*%
%ADD11R,1.700000X1.700000*%
%ADD12O,1.700000X1.700000*%
%ADD13C,0.200000*%
%ADD14C,0.254000*%
G04 APERTURE END LIST*
D10*
X213788000Y-106007200D03*
X213788000Y-108547200D03*
D11*
X208370000Y-98770000D03*
D12*
X208370000Y-96230000D03*
X210910000Y-98770000D03*
X210910000Y-96230000D03*
X213450000Y-98770000D03*
X213450000Y-96230000D03*
X215990000Y-98770000D03*
X215990000Y-96230000D03*
X218530000Y-98770000D03*
X218530000Y-96230000D03*
X221070000Y-98770000D03*
X221070000Y-96230000D03*
X223610000Y-98770000D03*
X223610000Y-96230000D03*
X226150000Y-98770000D03*
X226150000Y-96230000D03*
X228690000Y-98770000D03*
X228690000Y-96230000D03*
X231230000Y-98770000D03*
X231230000Y-96230000D03*
X233770000Y-98770000D03*
X233770000Y-96230000D03*
X236310000Y-98770000D03*
X236310000Y-96230000D03*
X238850000Y-98770000D03*
X238850000Y-96230000D03*
X241390000Y-98770000D03*
X241390000Y-96230000D03*
X243930000Y-98770000D03*
X243930000Y-96230000D03*
X246470000Y-98770000D03*
X246470000Y-96230000D03*
X249010000Y-98770000D03*
X249010000Y-96230000D03*
X251550000Y-98770000D03*
X251550000Y-96230000D03*
X254090000Y-98770000D03*
X254090000Y-96230000D03*
X256630000Y-98770000D03*
X256630000Y-96230000D03*
D13*
X233770000Y-98958000D02*
X233770000Y-98770000D01*
X236255400Y-98770000D02*
X236310000Y-98770000D01*
D14*
G36*
X262449016Y-94732312D02*
G01*
X262880930Y-94862714D01*
X263279285Y-95074524D01*
X263628914Y-95359675D01*
X263916497Y-95707303D01*
X264131086Y-96104177D01*
X264264498Y-96535161D01*
X264315001Y-97015663D01*
X264315000Y-110966495D01*
X264267688Y-111449016D01*
X264137287Y-111880927D01*
X263925480Y-112279280D01*
X263640325Y-112628914D01*
X263292697Y-112916497D01*
X262895825Y-113131085D01*
X262464834Y-113264500D01*
X261984346Y-113315000D01*
X203033504Y-113315000D01*
X202550984Y-113267688D01*
X202119073Y-113137287D01*
X201720720Y-112925480D01*
X201371086Y-112640325D01*
X201083503Y-112292697D01*
X200868915Y-111895825D01*
X200735500Y-111464834D01*
X200685000Y-110984346D01*
X200685000Y-105856016D01*
X212253000Y-105856016D01*
X212253000Y-106158384D01*
X212311989Y-106454943D01*
X212427701Y-106734295D01*
X212595688Y-106985705D01*
X212809495Y-107199512D01*
X212925763Y-107277200D01*
X212809495Y-107354888D01*
X212595688Y-107568695D01*
X212427701Y-107820105D01*
X212311989Y-108099457D01*
X212253000Y-108396016D01*
X212253000Y-108698384D01*
X212311989Y-108994943D01*
X212427701Y-109274295D01*
X212595688Y-109525705D01*
X212809495Y-109739512D01*
X213060905Y-109907499D01*
X213340257Y-110023211D01*
X213636816Y-110082200D01*
X213939184Y-110082200D01*
X214235743Y-110023211D01*
X214515095Y-109907499D01*
X214766505Y-109739512D01*
X214980312Y-109525705D01*
X215148299Y-109274295D01*
X215264011Y-108994943D01*
X215323000Y-108698384D01*
X215323000Y-108396016D01*
X215264011Y-108099457D01*
X215148299Y-107820105D01*
X214980312Y-107568695D01*
X214766505Y-107354888D01*
X214650237Y-107277200D01*
X214766505Y-107199512D01*
X214980312Y-106985705D01*
X215148299Y-106734295D01*
X215264011Y-106454943D01*
X215323000Y-106158384D01*
X215323000Y-105856016D01*
X215264011Y-105559457D01*
X215148299Y-105280105D01*
X214980312Y-105028695D01*
X214766505Y-104814888D01*
X214515095Y-104646901D01*
X214235743Y-104531189D01*
X213939184Y-104472200D01*
X213636816Y-104472200D01*
X213340257Y-104531189D01*
X213060905Y-104646901D01*
X212809495Y-104814888D01*
X212595688Y-105028695D01*
X212427701Y-105280105D01*
X212311989Y-105559457D01*
X212253000Y-105856016D01*
X200685000Y-105856016D01*
X200685000Y-97304495D01*
X201515000Y-97304495D01*
X201515000Y-97695505D01*
X201591282Y-98079003D01*
X201740915Y-98440250D01*
X201958149Y-98765364D01*
X202234636Y-99041851D01*
X202559750Y-99259085D01*
X202920997Y-99408718D01*
X203304495Y-99485000D01*
X203695505Y-99485000D01*
X204079003Y-99408718D01*
X204440250Y-99259085D01*
X204765364Y-99041851D01*
X205041851Y-98765364D01*
X205259085Y-98440250D01*
X205408718Y-98079003D01*
X205440345Y-97920000D01*
X206881928Y-97920000D01*
X206881928Y-99620000D01*
X206894188Y-99744482D01*
X206930498Y-99864180D01*
X206989463Y-99974494D01*
X207068815Y-100071185D01*
X207165506Y-100150537D01*
X207275820Y-100209502D01*
X207395518Y-100245812D01*
X207520000Y-100258072D01*
X209220000Y-100258072D01*
X209344482Y-100245812D01*
X209464180Y-100209502D01*
X209574494Y-100150537D01*
X209671185Y-100071185D01*
X209750537Y-99974494D01*
X209809502Y-99864180D01*
X209831513Y-99791620D01*
X209963368Y-99923475D01*
X210206589Y-100085990D01*
X210476842Y-100197932D01*
X210763740Y-100255000D01*
X211056260Y-100255000D01*
X211343158Y-100197932D01*
X211613411Y-100085990D01*
X211856632Y-99923475D01*
X212063475Y-99716632D01*
X212180000Y-99542240D01*
X212296525Y-99716632D01*
X212503368Y-99923475D01*
X212746589Y-100085990D01*
X213016842Y-100197932D01*
X213303740Y-100255000D01*
X213596260Y-100255000D01*
X213883158Y-100197932D01*
X214153411Y-100085990D01*
X214396632Y-99923475D01*
X214603475Y-99716632D01*
X214720000Y-99542240D01*
X214836525Y-99716632D01*
X215043368Y-99923475D01*
X215286589Y-100085990D01*
X215556842Y-100197932D01*
X215843740Y-100255000D01*
X216136260Y-100255000D01*
X216423158Y-100197932D01*
X216693411Y-100085990D01*
X216936632Y-99923475D01*
X217143475Y-99716632D01*
X217265195Y-99534466D01*
X217334822Y-99651355D01*
X217529731Y-99867588D01*
X217763080Y-100041641D01*
X218025901Y-100166825D01*
X218173110Y-100211476D01*
X218403000Y-100090155D01*
X218403000Y-98897000D01*
X218383000Y-98897000D01*
X218383000Y-98643000D01*
X218403000Y-98643000D01*
X218403000Y-98623000D01*
X218657000Y-98623000D01*
X218657000Y-98643000D01*
X218677000Y-98643000D01*
X218677000Y-98897000D01*
X218657000Y-98897000D01*
X218657000Y-100090155D01*
X218886890Y-100211476D01*
X219034099Y-100166825D01*
X219296920Y-100041641D01*
X219530269Y-99867588D01*
X219725178Y-99651355D01*
X219794805Y-99534466D01*
X219916525Y-99716632D01*
X220123368Y-99923475D01*
X220366589Y-100085990D01*
X220636842Y-100197932D01*
X220923740Y-100255000D01*
X221216260Y-100255000D01*
X221503158Y-100197932D01*
X221773411Y-100085990D01*
X222016632Y-99923475D01*
X222223475Y-99716632D01*
X222340000Y-99542240D01*
X222456525Y-99716632D01*
X222663368Y-99923475D01*
X222906589Y-100085990D01*
X223176842Y-100197932D01*
X223463740Y-100255000D01*
X223756260Y-100255000D01*
X224043158Y-100197932D01*
X224313411Y-100085990D01*
X224556632Y-99923475D01*
X224763475Y-99716632D01*
X224880000Y-99542240D01*
X224996525Y-99716632D01*
X225203368Y-99923475D01*
X225446589Y-100085990D01*
X225716842Y-100197932D01*
X226003740Y-100255000D01*
X226296260Y-100255000D01*
X226583158Y-100197932D01*
X226853411Y-100085990D01*
X227096632Y-99923475D01*
X227303475Y-99716632D01*
X227420000Y-99542240D01*
X227536525Y-99716632D01*
X227743368Y-99923475D01*
X227986589Y-100085990D01*
X228256842Y-100197932D01*
X228543740Y-100255000D01*
X228836260Y-100255000D01*
X229123158Y-100197932D01*
X229393411Y-100085990D01*
X229636632Y-99923475D01*
X229843475Y-99716632D01*
X229960000Y-99542240D01*
X230076525Y-99716632D01*
X230283368Y-99923475D01*
X230526589Y-100085990D01*
X230796842Y-100197932D01*
X231083740Y-100255000D01*
X231376260Y-100255000D01*
X231663158Y-100197932D01*
X231933411Y-100085990D01*
X232176632Y-99923475D01*
X232383475Y-99716632D01*
X232500000Y-99542240D01*
X232616525Y-99716632D01*
X232823368Y-99923475D01*
X233066589Y-100085990D01*
X233336842Y-100197932D01*
X233623740Y-100255000D01*
X233916260Y-100255000D01*
X234203158Y-100197932D01*
X234473411Y-100085990D01*
X234716632Y-99923475D01*
X234923475Y-99716632D01*
X235040000Y-99542240D01*
X235156525Y-99716632D01*
X235363368Y-99923475D01*
X235606589Y-100085990D01*
X235876842Y-100197932D01*
X236163740Y-100255000D01*
X236456260Y-100255000D01*
X236743158Y-100197932D01*
X237013411Y-100085990D01*
X237256632Y-99923475D01*
X237463475Y-99716632D01*
X237585195Y-99534466D01*
X237654822Y-99651355D01*
X237849731Y-99867588D01*
X238083080Y-100041641D01*
X238345901Y-100166825D01*
X238493110Y-100211476D01*
X238723000Y-100090155D01*
X238723000Y-98897000D01*
X238703000Y-98897000D01*
X238703000Y-98643000D01*
X238723000Y-98643000D01*
X238723000Y-98623000D01*
X238977000Y-98623000D01*
X238977000Y-98643000D01*
X238997000Y-98643000D01*
X238997000Y-98897000D01*
X238977000Y-98897000D01*
X238977000Y-100090155D01*
X239206890Y-100211476D01*
X239354099Y-100166825D01*
X239616920Y-100041641D01*
X239850269Y-99867588D01*
X240045178Y-99651355D01*
X240114805Y-99534466D01*
X240236525Y-99716632D01*
X240443368Y-99923475D01*
X240686589Y-100085990D01*
X240956842Y-100197932D01*
X241243740Y-100255000D01*
X241536260Y-100255000D01*
X241823158Y-100197932D01*
X242093411Y-100085990D01*
X242336632Y-99923475D01*
X242543475Y-99716632D01*
X242660000Y-99542240D01*
X242776525Y-99716632D01*
X242983368Y-99923475D01*
X243226589Y-100085990D01*
X243496842Y-100197932D01*
X243783740Y-100255000D01*
X244076260Y-100255000D01*
X244363158Y-100197932D01*
X244633411Y-100085990D01*
X244876632Y-99923475D01*
X245083475Y-99716632D01*
X245200000Y-99542240D01*
X245316525Y-99716632D01*
X245523368Y-99923475D01*
X245766589Y-100085990D01*
X246036842Y-100197932D01*
X246323740Y-100255000D01*
X246616260Y-100255000D01*
X246903158Y-100197932D01*
X247173411Y-100085990D01*
X247416632Y-99923475D01*
X247623475Y-99716632D01*
X247740000Y-99542240D01*
X247856525Y-99716632D01*
X248063368Y-99923475D01*
X248306589Y-100085990D01*
X248576842Y-100197932D01*
X248863740Y-100255000D01*
X249156260Y-100255000D01*
X249443158Y-100197932D01*
X249713411Y-100085990D01*
X249956632Y-99923475D01*
X250163475Y-99716632D01*
X250280000Y-99542240D01*
X250396525Y-99716632D01*
X250603368Y-99923475D01*
X250846589Y-100085990D01*
X251116842Y-100197932D01*
X251403740Y-100255000D01*
X251696260Y-100255000D01*
X251983158Y-100197932D01*
X252253411Y-100085990D01*
X252496632Y-99923475D01*
X252703475Y-99716632D01*
X252820000Y-99542240D01*
X252936525Y-99716632D01*
X253143368Y-99923475D01*
X253386589Y-100085990D01*
X253656842Y-100197932D01*
X253943740Y-100255000D01*
X254236260Y-100255000D01*
X254523158Y-100197932D01*
X254793411Y-100085990D01*
X255036632Y-99923475D01*
X255243475Y-99716632D01*
X255365195Y-99534466D01*
X255434822Y-99651355D01*
X255629731Y-99867588D01*
X255863080Y-100041641D01*
X256125901Y-100166825D01*
X256273110Y-100211476D01*
X256503000Y-100090155D01*
X256503000Y-98897000D01*
X256757000Y-98897000D01*
X256757000Y-100090155D01*
X256986890Y-100211476D01*
X257134099Y-100166825D01*
X257396920Y-100041641D01*
X257630269Y-99867588D01*
X257825178Y-99651355D01*
X257974157Y-99401252D01*
X258071481Y-99126891D01*
X257950814Y-98897000D01*
X256757000Y-98897000D01*
X256503000Y-98897000D01*
X256483000Y-98897000D01*
X256483000Y-98643000D01*
X256503000Y-98643000D01*
X256503000Y-98623000D01*
X256757000Y-98623000D01*
X256757000Y-98643000D01*
X257950814Y-98643000D01*
X258071481Y-98413109D01*
X257974157Y-98138748D01*
X257825178Y-97888645D01*
X257630269Y-97672412D01*
X257400594Y-97501100D01*
X257576632Y-97383475D01*
X257655612Y-97304495D01*
X259515000Y-97304495D01*
X259515000Y-97695505D01*
X259591282Y-98079003D01*
X259740915Y-98440250D01*
X259958149Y-98765364D01*
X260234636Y-99041851D01*
X260559750Y-99259085D01*
X260920997Y-99408718D01*
X261304495Y-99485000D01*
X261695505Y-99485000D01*
X262079003Y-99408718D01*
X262440250Y-99259085D01*
X262765364Y-99041851D01*
X263041851Y-98765364D01*
X263259085Y-98440250D01*
X263408718Y-98079003D01*
X263485000Y-97695505D01*
X263485000Y-97304495D01*
X263408718Y-96920997D01*
X263259085Y-96559750D01*
X263041851Y-96234636D01*
X262765364Y-95958149D01*
X262440250Y-95740915D01*
X262079003Y-95591282D01*
X261695505Y-95515000D01*
X261304495Y-95515000D01*
X260920997Y-95591282D01*
X260559750Y-95740915D01*
X260234636Y-95958149D01*
X259958149Y-96234636D01*
X259740915Y-96559750D01*
X259591282Y-96920997D01*
X259515000Y-97304495D01*
X257655612Y-97304495D01*
X257783475Y-97176632D01*
X257945990Y-96933411D01*
X258057932Y-96663158D01*
X258115000Y-96376260D01*
X258115000Y-96083740D01*
X258057932Y-95796842D01*
X257945990Y-95526589D01*
X257783475Y-95283368D01*
X257576632Y-95076525D01*
X257333411Y-94914010D01*
X257063158Y-94802068D01*
X256776260Y-94745000D01*
X256483740Y-94745000D01*
X256196842Y-94802068D01*
X255926589Y-94914010D01*
X255683368Y-95076525D01*
X255476525Y-95283368D01*
X255360000Y-95457760D01*
X255243475Y-95283368D01*
X255036632Y-95076525D01*
X254793411Y-94914010D01*
X254523158Y-94802068D01*
X254236260Y-94745000D01*
X253943740Y-94745000D01*
X253656842Y-94802068D01*
X253386589Y-94914010D01*
X253143368Y-95076525D01*
X252936525Y-95283368D01*
X252820000Y-95457760D01*
X252703475Y-95283368D01*
X252496632Y-95076525D01*
X252253411Y-94914010D01*
X251983158Y-94802068D01*
X251696260Y-94745000D01*
X251403740Y-94745000D01*
X251116842Y-94802068D01*
X250846589Y-94914010D01*
X250603368Y-95076525D01*
X250396525Y-95283368D01*
X250274805Y-95465534D01*
X250205178Y-95348645D01*
X250010269Y-95132412D01*
X249776920Y-94958359D01*
X249514099Y-94833175D01*
X249366890Y-94788524D01*
X249137000Y-94909845D01*
X249137000Y-96103000D01*
X249157000Y-96103000D01*
X249157000Y-96357000D01*
X249137000Y-96357000D01*
X249137000Y-96377000D01*
X248883000Y-96377000D01*
X248883000Y-96357000D01*
X248863000Y-96357000D01*
X248863000Y-96103000D01*
X248883000Y-96103000D01*
X248883000Y-94909845D01*
X248653110Y-94788524D01*
X248505901Y-94833175D01*
X248243080Y-94958359D01*
X248009731Y-95132412D01*
X247814822Y-95348645D01*
X247745195Y-95465534D01*
X247623475Y-95283368D01*
X247416632Y-95076525D01*
X247173411Y-94914010D01*
X246903158Y-94802068D01*
X246616260Y-94745000D01*
X246323740Y-94745000D01*
X246036842Y-94802068D01*
X245766589Y-94914010D01*
X245523368Y-95076525D01*
X245316525Y-95283368D01*
X245194805Y-95465534D01*
X245125178Y-95348645D01*
X244930269Y-95132412D01*
X244696920Y-94958359D01*
X244434099Y-94833175D01*
X244286890Y-94788524D01*
X244057000Y-94909845D01*
X244057000Y-96103000D01*
X244077000Y-96103000D01*
X244077000Y-96357000D01*
X244057000Y-96357000D01*
X244057000Y-96377000D01*
X243803000Y-96377000D01*
X243803000Y-96357000D01*
X243783000Y-96357000D01*
X243783000Y-96103000D01*
X243803000Y-96103000D01*
X243803000Y-94909845D01*
X243573110Y-94788524D01*
X243425901Y-94833175D01*
X243163080Y-94958359D01*
X242929731Y-95132412D01*
X242734822Y-95348645D01*
X242665195Y-95465534D01*
X242543475Y-95283368D01*
X242336632Y-95076525D01*
X242093411Y-94914010D01*
X241823158Y-94802068D01*
X241536260Y-94745000D01*
X241243740Y-94745000D01*
X240956842Y-94802068D01*
X240686589Y-94914010D01*
X240443368Y-95076525D01*
X240236525Y-95283368D01*
X240120000Y-95457760D01*
X240003475Y-95283368D01*
X239796632Y-95076525D01*
X239553411Y-94914010D01*
X239283158Y-94802068D01*
X238996260Y-94745000D01*
X238703740Y-94745000D01*
X238416842Y-94802068D01*
X238146589Y-94914010D01*
X237903368Y-95076525D01*
X237696525Y-95283368D01*
X237580000Y-95457760D01*
X237463475Y-95283368D01*
X237256632Y-95076525D01*
X237013411Y-94914010D01*
X236743158Y-94802068D01*
X236456260Y-94745000D01*
X236163740Y-94745000D01*
X235876842Y-94802068D01*
X235606589Y-94914010D01*
X235363368Y-95076525D01*
X235156525Y-95283368D01*
X235040000Y-95457760D01*
X234923475Y-95283368D01*
X234716632Y-95076525D01*
X234473411Y-94914010D01*
X234203158Y-94802068D01*
X233916260Y-94745000D01*
X233623740Y-94745000D01*
X233336842Y-94802068D01*
X233066589Y-94914010D01*
X232823368Y-95076525D01*
X232616525Y-95283368D01*
X232494805Y-95465534D01*
X232425178Y-95348645D01*
X232230269Y-95132412D01*
X231996920Y-94958359D01*
X231734099Y-94833175D01*
X231586890Y-94788524D01*
X231357000Y-94909845D01*
X231357000Y-96103000D01*
X231377000Y-96103000D01*
X231377000Y-96357000D01*
X231357000Y-96357000D01*
X231357000Y-96377000D01*
X231103000Y-96377000D01*
X231103000Y-96357000D01*
X231083000Y-96357000D01*
X231083000Y-96103000D01*
X231103000Y-96103000D01*
X231103000Y-94909845D01*
X230873110Y-94788524D01*
X230725901Y-94833175D01*
X230463080Y-94958359D01*
X230229731Y-95132412D01*
X230034822Y-95348645D01*
X229965195Y-95465534D01*
X229843475Y-95283368D01*
X229636632Y-95076525D01*
X229393411Y-94914010D01*
X229123158Y-94802068D01*
X228836260Y-94745000D01*
X228543740Y-94745000D01*
X228256842Y-94802068D01*
X227986589Y-94914010D01*
X227743368Y-95076525D01*
X227536525Y-95283368D01*
X227420000Y-95457760D01*
X227303475Y-95283368D01*
X227096632Y-95076525D01*
X226853411Y-94914010D01*
X226583158Y-94802068D01*
X226296260Y-94745000D01*
X226003740Y-94745000D01*
X225716842Y-94802068D01*
X225446589Y-94914010D01*
X225203368Y-95076525D01*
X224996525Y-95283368D01*
X224874805Y-95465534D01*
X224805178Y-95348645D01*
X224610269Y-95132412D01*
X224376920Y-94958359D01*
X224114099Y-94833175D01*
X223966890Y-94788524D01*
X223737000Y-94909845D01*
X223737000Y-96103000D01*
X223757000Y-96103000D01*
X223757000Y-96357000D01*
X223737000Y-96357000D01*
X223737000Y-96377000D01*
X223483000Y-96377000D01*
X223483000Y-96357000D01*
X223463000Y-96357000D01*
X223463000Y-96103000D01*
X223483000Y-96103000D01*
X223483000Y-94909845D01*
X223253110Y-94788524D01*
X223105901Y-94833175D01*
X222843080Y-94958359D01*
X222609731Y-95132412D01*
X222414822Y-95348645D01*
X222345195Y-95465534D01*
X222223475Y-95283368D01*
X222016632Y-95076525D01*
X221773411Y-94914010D01*
X221503158Y-94802068D01*
X221216260Y-94745000D01*
X220923740Y-94745000D01*
X220636842Y-94802068D01*
X220366589Y-94914010D01*
X220123368Y-95076525D01*
X219916525Y-95283368D01*
X219800000Y-95457760D01*
X219683475Y-95283368D01*
X219476632Y-95076525D01*
X219233411Y-94914010D01*
X218963158Y-94802068D01*
X218676260Y-94745000D01*
X218383740Y-94745000D01*
X218096842Y-94802068D01*
X217826589Y-94914010D01*
X217583368Y-95076525D01*
X217376525Y-95283368D01*
X217260000Y-95457760D01*
X217143475Y-95283368D01*
X216936632Y-95076525D01*
X216693411Y-94914010D01*
X216423158Y-94802068D01*
X216136260Y-94745000D01*
X215843740Y-94745000D01*
X215556842Y-94802068D01*
X215286589Y-94914010D01*
X215043368Y-95076525D01*
X214836525Y-95283368D01*
X214714805Y-95465534D01*
X214645178Y-95348645D01*
X214450269Y-95132412D01*
X214216920Y-94958359D01*
X213954099Y-94833175D01*
X213806890Y-94788524D01*
X213577000Y-94909845D01*
X213577000Y-96103000D01*
X213597000Y-96103000D01*
X213597000Y-96357000D01*
X213577000Y-96357000D01*
X213577000Y-96377000D01*
X213323000Y-96377000D01*
X213323000Y-96357000D01*
X213303000Y-96357000D01*
X213303000Y-96103000D01*
X213323000Y-96103000D01*
X213323000Y-94909845D01*
X213093110Y-94788524D01*
X212945901Y-94833175D01*
X212683080Y-94958359D01*
X212449731Y-95132412D01*
X212254822Y-95348645D01*
X212185195Y-95465534D01*
X212063475Y-95283368D01*
X211856632Y-95076525D01*
X211613411Y-94914010D01*
X211343158Y-94802068D01*
X211056260Y-94745000D01*
X210763740Y-94745000D01*
X210476842Y-94802068D01*
X210206589Y-94914010D01*
X209963368Y-95076525D01*
X209756525Y-95283368D01*
X209640000Y-95457760D01*
X209523475Y-95283368D01*
X209316632Y-95076525D01*
X209073411Y-94914010D01*
X208803158Y-94802068D01*
X208516260Y-94745000D01*
X208223740Y-94745000D01*
X207936842Y-94802068D01*
X207666589Y-94914010D01*
X207423368Y-95076525D01*
X207216525Y-95283368D01*
X207054010Y-95526589D01*
X206942068Y-95796842D01*
X206885000Y-96083740D01*
X206885000Y-96376260D01*
X206942068Y-96663158D01*
X207054010Y-96933411D01*
X207216525Y-97176632D01*
X207348380Y-97308487D01*
X207275820Y-97330498D01*
X207165506Y-97389463D01*
X207068815Y-97468815D01*
X206989463Y-97565506D01*
X206930498Y-97675820D01*
X206894188Y-97795518D01*
X206881928Y-97920000D01*
X205440345Y-97920000D01*
X205485000Y-97695505D01*
X205485000Y-97304495D01*
X205408718Y-96920997D01*
X205259085Y-96559750D01*
X205041851Y-96234636D01*
X204765364Y-95958149D01*
X204440250Y-95740915D01*
X204079003Y-95591282D01*
X203695505Y-95515000D01*
X203304495Y-95515000D01*
X202920997Y-95591282D01*
X202559750Y-95740915D01*
X202234636Y-95958149D01*
X201958149Y-96234636D01*
X201740915Y-96559750D01*
X201591282Y-96920997D01*
X201515000Y-97304495D01*
X200685000Y-97304495D01*
X200685000Y-97033505D01*
X200732312Y-96550984D01*
X200862714Y-96119070D01*
X201074524Y-95720715D01*
X201359675Y-95371086D01*
X201707303Y-95083503D01*
X202104177Y-94868914D01*
X202535161Y-94735502D01*
X203015654Y-94685000D01*
X261966495Y-94685000D01*
X262449016Y-94732312D01*
G37*
X262449016Y-94732312D02*
X262880930Y-94862714D01*
X263279285Y-95074524D01*
X263628914Y-95359675D01*
X263916497Y-95707303D01*
X264131086Y-96104177D01*
X264264498Y-96535161D01*
X264315001Y-97015663D01*
X264315000Y-110966495D01*
X264267688Y-111449016D01*
X264137287Y-111880927D01*
X263925480Y-112279280D01*
X263640325Y-112628914D01*
X263292697Y-112916497D01*
X262895825Y-113131085D01*
X262464834Y-113264500D01*
X261984346Y-113315000D01*
X203033504Y-113315000D01*
X202550984Y-113267688D01*
X202119073Y-113137287D01*
X201720720Y-112925480D01*
X201371086Y-112640325D01*
X201083503Y-112292697D01*
X200868915Y-111895825D01*
X200735500Y-111464834D01*
X200685000Y-110984346D01*
X200685000Y-105856016D01*
X212253000Y-105856016D01*
X212253000Y-106158384D01*
X212311989Y-106454943D01*
X212427701Y-106734295D01*
X212595688Y-106985705D01*
X212809495Y-107199512D01*
X212925763Y-107277200D01*
X212809495Y-107354888D01*
X212595688Y-107568695D01*
X212427701Y-107820105D01*
X212311989Y-108099457D01*
X212253000Y-108396016D01*
X212253000Y-108698384D01*
X212311989Y-108994943D01*
X212427701Y-109274295D01*
X212595688Y-109525705D01*
X212809495Y-109739512D01*
X213060905Y-109907499D01*
X213340257Y-110023211D01*
X213636816Y-110082200D01*
X213939184Y-110082200D01*
X214235743Y-110023211D01*
X214515095Y-109907499D01*
X214766505Y-109739512D01*
X214980312Y-109525705D01*
X215148299Y-109274295D01*
X215264011Y-108994943D01*
X215323000Y-108698384D01*
X215323000Y-108396016D01*
X215264011Y-108099457D01*
X215148299Y-107820105D01*
X214980312Y-107568695D01*
X214766505Y-107354888D01*
X214650237Y-107277200D01*
X214766505Y-107199512D01*
X214980312Y-106985705D01*
X215148299Y-106734295D01*
X215264011Y-106454943D01*
X215323000Y-106158384D01*
X215323000Y-105856016D01*
X215264011Y-105559457D01*
X215148299Y-105280105D01*
X214980312Y-105028695D01*
X214766505Y-104814888D01*
X214515095Y-104646901D01*
X214235743Y-104531189D01*
X213939184Y-104472200D01*
X213636816Y-104472200D01*
X213340257Y-104531189D01*
X213060905Y-104646901D01*
X212809495Y-104814888D01*
X212595688Y-105028695D01*
X212427701Y-105280105D01*
X212311989Y-105559457D01*
X212253000Y-105856016D01*
X200685000Y-105856016D01*
X200685000Y-97304495D01*
X201515000Y-97304495D01*
X201515000Y-97695505D01*
X201591282Y-98079003D01*
X201740915Y-98440250D01*
X201958149Y-98765364D01*
X202234636Y-99041851D01*
X202559750Y-99259085D01*
X202920997Y-99408718D01*
X203304495Y-99485000D01*
X203695505Y-99485000D01*
X204079003Y-99408718D01*
X204440250Y-99259085D01*
X204765364Y-99041851D01*
X205041851Y-98765364D01*
X205259085Y-98440250D01*
X205408718Y-98079003D01*
X205440345Y-97920000D01*
X206881928Y-97920000D01*
X206881928Y-99620000D01*
X206894188Y-99744482D01*
X206930498Y-99864180D01*
X206989463Y-99974494D01*
X207068815Y-100071185D01*
X207165506Y-100150537D01*
X207275820Y-100209502D01*
X207395518Y-100245812D01*
X207520000Y-100258072D01*
X209220000Y-100258072D01*
X209344482Y-100245812D01*
X209464180Y-100209502D01*
X209574494Y-100150537D01*
X209671185Y-100071185D01*
X209750537Y-99974494D01*
X209809502Y-99864180D01*
X209831513Y-99791620D01*
X209963368Y-99923475D01*
X210206589Y-100085990D01*
X210476842Y-100197932D01*
X210763740Y-100255000D01*
X211056260Y-100255000D01*
X211343158Y-100197932D01*
X211613411Y-100085990D01*
X211856632Y-99923475D01*
X212063475Y-99716632D01*
X212180000Y-99542240D01*
X212296525Y-99716632D01*
X212503368Y-99923475D01*
X212746589Y-100085990D01*
X213016842Y-100197932D01*
X213303740Y-100255000D01*
X213596260Y-100255000D01*
X213883158Y-100197932D01*
X214153411Y-100085990D01*
X214396632Y-99923475D01*
X214603475Y-99716632D01*
X214720000Y-99542240D01*
X214836525Y-99716632D01*
X215043368Y-99923475D01*
X215286589Y-100085990D01*
X215556842Y-100197932D01*
X215843740Y-100255000D01*
X216136260Y-100255000D01*
X216423158Y-100197932D01*
X216693411Y-100085990D01*
X216936632Y-99923475D01*
X217143475Y-99716632D01*
X217265195Y-99534466D01*
X217334822Y-99651355D01*
X217529731Y-99867588D01*
X217763080Y-100041641D01*
X218025901Y-100166825D01*
X218173110Y-100211476D01*
X218403000Y-100090155D01*
X218403000Y-98897000D01*
X218383000Y-98897000D01*
X218383000Y-98643000D01*
X218403000Y-98643000D01*
X218403000Y-98623000D01*
X218657000Y-98623000D01*
X218657000Y-98643000D01*
X218677000Y-98643000D01*
X218677000Y-98897000D01*
X218657000Y-98897000D01*
X218657000Y-100090155D01*
X218886890Y-100211476D01*
X219034099Y-100166825D01*
X219296920Y-100041641D01*
X219530269Y-99867588D01*
X219725178Y-99651355D01*
X219794805Y-99534466D01*
X219916525Y-99716632D01*
X220123368Y-99923475D01*
X220366589Y-100085990D01*
X220636842Y-100197932D01*
X220923740Y-100255000D01*
X221216260Y-100255000D01*
X221503158Y-100197932D01*
X221773411Y-100085990D01*
X222016632Y-99923475D01*
X222223475Y-99716632D01*
X222340000Y-99542240D01*
X222456525Y-99716632D01*
X222663368Y-99923475D01*
X222906589Y-100085990D01*
X223176842Y-100197932D01*
X223463740Y-100255000D01*
X223756260Y-100255000D01*
X224043158Y-100197932D01*
X224313411Y-100085990D01*
X224556632Y-99923475D01*
X224763475Y-99716632D01*
X224880000Y-99542240D01*
X224996525Y-99716632D01*
X225203368Y-99923475D01*
X225446589Y-100085990D01*
X225716842Y-100197932D01*
X226003740Y-100255000D01*
X226296260Y-100255000D01*
X226583158Y-100197932D01*
X226853411Y-100085990D01*
X227096632Y-99923475D01*
X227303475Y-99716632D01*
X227420000Y-99542240D01*
X227536525Y-99716632D01*
X227743368Y-99923475D01*
X227986589Y-100085990D01*
X228256842Y-100197932D01*
X228543740Y-100255000D01*
X228836260Y-100255000D01*
X229123158Y-100197932D01*
X229393411Y-100085990D01*
X229636632Y-99923475D01*
X229843475Y-99716632D01*
X229960000Y-99542240D01*
X230076525Y-99716632D01*
X230283368Y-99923475D01*
X230526589Y-100085990D01*
X230796842Y-100197932D01*
X231083740Y-100255000D01*
X231376260Y-100255000D01*
X231663158Y-100197932D01*
X231933411Y-100085990D01*
X232176632Y-99923475D01*
X232383475Y-99716632D01*
X232500000Y-99542240D01*
X232616525Y-99716632D01*
X232823368Y-99923475D01*
X233066589Y-100085990D01*
X233336842Y-100197932D01*
X233623740Y-100255000D01*
X233916260Y-100255000D01*
X234203158Y-100197932D01*
X234473411Y-100085990D01*
X234716632Y-99923475D01*
X234923475Y-99716632D01*
X235040000Y-99542240D01*
X235156525Y-99716632D01*
X235363368Y-99923475D01*
X235606589Y-100085990D01*
X235876842Y-100197932D01*
X236163740Y-100255000D01*
X236456260Y-100255000D01*
X236743158Y-100197932D01*
X237013411Y-100085990D01*
X237256632Y-99923475D01*
X237463475Y-99716632D01*
X237585195Y-99534466D01*
X237654822Y-99651355D01*
X237849731Y-99867588D01*
X238083080Y-100041641D01*
X238345901Y-100166825D01*
X238493110Y-100211476D01*
X238723000Y-100090155D01*
X238723000Y-98897000D01*
X238703000Y-98897000D01*
X238703000Y-98643000D01*
X238723000Y-98643000D01*
X238723000Y-98623000D01*
X238977000Y-98623000D01*
X238977000Y-98643000D01*
X238997000Y-98643000D01*
X238997000Y-98897000D01*
X238977000Y-98897000D01*
X238977000Y-100090155D01*
X239206890Y-100211476D01*
X239354099Y-100166825D01*
X239616920Y-100041641D01*
X239850269Y-99867588D01*
X240045178Y-99651355D01*
X240114805Y-99534466D01*
X240236525Y-99716632D01*
X240443368Y-99923475D01*
X240686589Y-100085990D01*
X240956842Y-100197932D01*
X241243740Y-100255000D01*
X241536260Y-100255000D01*
X241823158Y-100197932D01*
X242093411Y-100085990D01*
X242336632Y-99923475D01*
X242543475Y-99716632D01*
X242660000Y-99542240D01*
X242776525Y-99716632D01*
X242983368Y-99923475D01*
X243226589Y-100085990D01*
X243496842Y-100197932D01*
X243783740Y-100255000D01*
X244076260Y-100255000D01*
X244363158Y-100197932D01*
X244633411Y-100085990D01*
X244876632Y-99923475D01*
X245083475Y-99716632D01*
X245200000Y-99542240D01*
X245316525Y-99716632D01*
X245523368Y-99923475D01*
X245766589Y-100085990D01*
X246036842Y-100197932D01*
X246323740Y-100255000D01*
X246616260Y-100255000D01*
X246903158Y-100197932D01*
X247173411Y-100085990D01*
X247416632Y-99923475D01*
X247623475Y-99716632D01*
X247740000Y-99542240D01*
X247856525Y-99716632D01*
X248063368Y-99923475D01*
X248306589Y-100085990D01*
X248576842Y-100197932D01*
X248863740Y-100255000D01*
X249156260Y-100255000D01*
X249443158Y-100197932D01*
X249713411Y-100085990D01*
X249956632Y-99923475D01*
X250163475Y-99716632D01*
X250280000Y-99542240D01*
X250396525Y-99716632D01*
X250603368Y-99923475D01*
X250846589Y-100085990D01*
X251116842Y-100197932D01*
X251403740Y-100255000D01*
X251696260Y-100255000D01*
X251983158Y-100197932D01*
X252253411Y-100085990D01*
X252496632Y-99923475D01*
X252703475Y-99716632D01*
X252820000Y-99542240D01*
X252936525Y-99716632D01*
X253143368Y-99923475D01*
X253386589Y-100085990D01*
X253656842Y-100197932D01*
X253943740Y-100255000D01*
X254236260Y-100255000D01*
X254523158Y-100197932D01*
X254793411Y-100085990D01*
X255036632Y-99923475D01*
X255243475Y-99716632D01*
X255365195Y-99534466D01*
X255434822Y-99651355D01*
X255629731Y-99867588D01*
X255863080Y-100041641D01*
X256125901Y-100166825D01*
X256273110Y-100211476D01*
X256503000Y-100090155D01*
X256503000Y-98897000D01*
X256757000Y-98897000D01*
X256757000Y-100090155D01*
X256986890Y-100211476D01*
X257134099Y-100166825D01*
X257396920Y-100041641D01*
X257630269Y-99867588D01*
X257825178Y-99651355D01*
X257974157Y-99401252D01*
X258071481Y-99126891D01*
X257950814Y-98897000D01*
X256757000Y-98897000D01*
X256503000Y-98897000D01*
X256483000Y-98897000D01*
X256483000Y-98643000D01*
X256503000Y-98643000D01*
X256503000Y-98623000D01*
X256757000Y-98623000D01*
X256757000Y-98643000D01*
X257950814Y-98643000D01*
X258071481Y-98413109D01*
X257974157Y-98138748D01*
X257825178Y-97888645D01*
X257630269Y-97672412D01*
X257400594Y-97501100D01*
X257576632Y-97383475D01*
X257655612Y-97304495D01*
X259515000Y-97304495D01*
X259515000Y-97695505D01*
X259591282Y-98079003D01*
X259740915Y-98440250D01*
X259958149Y-98765364D01*
X260234636Y-99041851D01*
X260559750Y-99259085D01*
X260920997Y-99408718D01*
X261304495Y-99485000D01*
X261695505Y-99485000D01*
X262079003Y-99408718D01*
X262440250Y-99259085D01*
X262765364Y-99041851D01*
X263041851Y-98765364D01*
X263259085Y-98440250D01*
X263408718Y-98079003D01*
X263485000Y-97695505D01*
X263485000Y-97304495D01*
X263408718Y-96920997D01*
X263259085Y-96559750D01*
X263041851Y-96234636D01*
X262765364Y-95958149D01*
X262440250Y-95740915D01*
X262079003Y-95591282D01*
X261695505Y-95515000D01*
X261304495Y-95515000D01*
X260920997Y-95591282D01*
X260559750Y-95740915D01*
X260234636Y-95958149D01*
X259958149Y-96234636D01*
X259740915Y-96559750D01*
X259591282Y-96920997D01*
X259515000Y-97304495D01*
X257655612Y-97304495D01*
X257783475Y-97176632D01*
X257945990Y-96933411D01*
X258057932Y-96663158D01*
X258115000Y-96376260D01*
X258115000Y-96083740D01*
X258057932Y-95796842D01*
X257945990Y-95526589D01*
X257783475Y-95283368D01*
X257576632Y-95076525D01*
X257333411Y-94914010D01*
X257063158Y-94802068D01*
X256776260Y-94745000D01*
X256483740Y-94745000D01*
X256196842Y-94802068D01*
X255926589Y-94914010D01*
X255683368Y-95076525D01*
X255476525Y-95283368D01*
X255360000Y-95457760D01*
X255243475Y-95283368D01*
X255036632Y-95076525D01*
X254793411Y-94914010D01*
X254523158Y-94802068D01*
X254236260Y-94745000D01*
X253943740Y-94745000D01*
X253656842Y-94802068D01*
X253386589Y-94914010D01*
X253143368Y-95076525D01*
X252936525Y-95283368D01*
X252820000Y-95457760D01*
X252703475Y-95283368D01*
X252496632Y-95076525D01*
X252253411Y-94914010D01*
X251983158Y-94802068D01*
X251696260Y-94745000D01*
X251403740Y-94745000D01*
X251116842Y-94802068D01*
X250846589Y-94914010D01*
X250603368Y-95076525D01*
X250396525Y-95283368D01*
X250274805Y-95465534D01*
X250205178Y-95348645D01*
X250010269Y-95132412D01*
X249776920Y-94958359D01*
X249514099Y-94833175D01*
X249366890Y-94788524D01*
X249137000Y-94909845D01*
X249137000Y-96103000D01*
X249157000Y-96103000D01*
X249157000Y-96357000D01*
X249137000Y-96357000D01*
X249137000Y-96377000D01*
X248883000Y-96377000D01*
X248883000Y-96357000D01*
X248863000Y-96357000D01*
X248863000Y-96103000D01*
X248883000Y-96103000D01*
X248883000Y-94909845D01*
X248653110Y-94788524D01*
X248505901Y-94833175D01*
X248243080Y-94958359D01*
X248009731Y-95132412D01*
X247814822Y-95348645D01*
X247745195Y-95465534D01*
X247623475Y-95283368D01*
X247416632Y-95076525D01*
X247173411Y-94914010D01*
X246903158Y-94802068D01*
X246616260Y-94745000D01*
X246323740Y-94745000D01*
X246036842Y-94802068D01*
X245766589Y-94914010D01*
X245523368Y-95076525D01*
X245316525Y-95283368D01*
X245194805Y-95465534D01*
X245125178Y-95348645D01*
X244930269Y-95132412D01*
X244696920Y-94958359D01*
X244434099Y-94833175D01*
X244286890Y-94788524D01*
X244057000Y-94909845D01*
X244057000Y-96103000D01*
X244077000Y-96103000D01*
X244077000Y-96357000D01*
X244057000Y-96357000D01*
X244057000Y-96377000D01*
X243803000Y-96377000D01*
X243803000Y-96357000D01*
X243783000Y-96357000D01*
X243783000Y-96103000D01*
X243803000Y-96103000D01*
X243803000Y-94909845D01*
X243573110Y-94788524D01*
X243425901Y-94833175D01*
X243163080Y-94958359D01*
X242929731Y-95132412D01*
X242734822Y-95348645D01*
X242665195Y-95465534D01*
X242543475Y-95283368D01*
X242336632Y-95076525D01*
X242093411Y-94914010D01*
X241823158Y-94802068D01*
X241536260Y-94745000D01*
X241243740Y-94745000D01*
X240956842Y-94802068D01*
X240686589Y-94914010D01*
X240443368Y-95076525D01*
X240236525Y-95283368D01*
X240120000Y-95457760D01*
X240003475Y-95283368D01*
X239796632Y-95076525D01*
X239553411Y-94914010D01*
X239283158Y-94802068D01*
X238996260Y-94745000D01*
X238703740Y-94745000D01*
X238416842Y-94802068D01*
X238146589Y-94914010D01*
X237903368Y-95076525D01*
X237696525Y-95283368D01*
X237580000Y-95457760D01*
X237463475Y-95283368D01*
X237256632Y-95076525D01*
X237013411Y-94914010D01*
X236743158Y-94802068D01*
X236456260Y-94745000D01*
X236163740Y-94745000D01*
X235876842Y-94802068D01*
X235606589Y-94914010D01*
X235363368Y-95076525D01*
X235156525Y-95283368D01*
X235040000Y-95457760D01*
X234923475Y-95283368D01*
X234716632Y-95076525D01*
X234473411Y-94914010D01*
X234203158Y-94802068D01*
X233916260Y-94745000D01*
X233623740Y-94745000D01*
X233336842Y-94802068D01*
X233066589Y-94914010D01*
X232823368Y-95076525D01*
X232616525Y-95283368D01*
X232494805Y-95465534D01*
X232425178Y-95348645D01*
X232230269Y-95132412D01*
X231996920Y-94958359D01*
X231734099Y-94833175D01*
X231586890Y-94788524D01*
X231357000Y-94909845D01*
X231357000Y-96103000D01*
X231377000Y-96103000D01*
X231377000Y-96357000D01*
X231357000Y-96357000D01*
X231357000Y-96377000D01*
X231103000Y-96377000D01*
X231103000Y-96357000D01*
X231083000Y-96357000D01*
X231083000Y-96103000D01*
X231103000Y-96103000D01*
X231103000Y-94909845D01*
X230873110Y-94788524D01*
X230725901Y-94833175D01*
X230463080Y-94958359D01*
X230229731Y-95132412D01*
X230034822Y-95348645D01*
X229965195Y-95465534D01*
X229843475Y-95283368D01*
X229636632Y-95076525D01*
X229393411Y-94914010D01*
X229123158Y-94802068D01*
X228836260Y-94745000D01*
X228543740Y-94745000D01*
X228256842Y-94802068D01*
X227986589Y-94914010D01*
X227743368Y-95076525D01*
X227536525Y-95283368D01*
X227420000Y-95457760D01*
X227303475Y-95283368D01*
X227096632Y-95076525D01*
X226853411Y-94914010D01*
X226583158Y-94802068D01*
X226296260Y-94745000D01*
X226003740Y-94745000D01*
X225716842Y-94802068D01*
X225446589Y-94914010D01*
X225203368Y-95076525D01*
X224996525Y-95283368D01*
X224874805Y-95465534D01*
X224805178Y-95348645D01*
X224610269Y-95132412D01*
X224376920Y-94958359D01*
X224114099Y-94833175D01*
X223966890Y-94788524D01*
X223737000Y-94909845D01*
X223737000Y-96103000D01*
X223757000Y-96103000D01*
X223757000Y-96357000D01*
X223737000Y-96357000D01*
X223737000Y-96377000D01*
X223483000Y-96377000D01*
X223483000Y-96357000D01*
X223463000Y-96357000D01*
X223463000Y-96103000D01*
X223483000Y-96103000D01*
X223483000Y-94909845D01*
X223253110Y-94788524D01*
X223105901Y-94833175D01*
X222843080Y-94958359D01*
X222609731Y-95132412D01*
X222414822Y-95348645D01*
X222345195Y-95465534D01*
X222223475Y-95283368D01*
X222016632Y-95076525D01*
X221773411Y-94914010D01*
X221503158Y-94802068D01*
X221216260Y-94745000D01*
X220923740Y-94745000D01*
X220636842Y-94802068D01*
X220366589Y-94914010D01*
X220123368Y-95076525D01*
X219916525Y-95283368D01*
X219800000Y-95457760D01*
X219683475Y-95283368D01*
X219476632Y-95076525D01*
X219233411Y-94914010D01*
X218963158Y-94802068D01*
X218676260Y-94745000D01*
X218383740Y-94745000D01*
X218096842Y-94802068D01*
X217826589Y-94914010D01*
X217583368Y-95076525D01*
X217376525Y-95283368D01*
X217260000Y-95457760D01*
X217143475Y-95283368D01*
X216936632Y-95076525D01*
X216693411Y-94914010D01*
X216423158Y-94802068D01*
X216136260Y-94745000D01*
X215843740Y-94745000D01*
X215556842Y-94802068D01*
X215286589Y-94914010D01*
X215043368Y-95076525D01*
X214836525Y-95283368D01*
X214714805Y-95465534D01*
X214645178Y-95348645D01*
X214450269Y-95132412D01*
X214216920Y-94958359D01*
X213954099Y-94833175D01*
X213806890Y-94788524D01*
X213577000Y-94909845D01*
X213577000Y-96103000D01*
X213597000Y-96103000D01*
X213597000Y-96357000D01*
X213577000Y-96357000D01*
X213577000Y-96377000D01*
X213323000Y-96377000D01*
X213323000Y-96357000D01*
X213303000Y-96357000D01*
X213303000Y-96103000D01*
X213323000Y-96103000D01*
X213323000Y-94909845D01*
X213093110Y-94788524D01*
X212945901Y-94833175D01*
X212683080Y-94958359D01*
X212449731Y-95132412D01*
X212254822Y-95348645D01*
X212185195Y-95465534D01*
X212063475Y-95283368D01*
X211856632Y-95076525D01*
X211613411Y-94914010D01*
X211343158Y-94802068D01*
X211056260Y-94745000D01*
X210763740Y-94745000D01*
X210476842Y-94802068D01*
X210206589Y-94914010D01*
X209963368Y-95076525D01*
X209756525Y-95283368D01*
X209640000Y-95457760D01*
X209523475Y-95283368D01*
X209316632Y-95076525D01*
X209073411Y-94914010D01*
X208803158Y-94802068D01*
X208516260Y-94745000D01*
X208223740Y-94745000D01*
X207936842Y-94802068D01*
X207666589Y-94914010D01*
X207423368Y-95076525D01*
X207216525Y-95283368D01*
X207054010Y-95526589D01*
X206942068Y-95796842D01*
X206885000Y-96083740D01*
X206885000Y-96376260D01*
X206942068Y-96663158D01*
X207054010Y-96933411D01*
X207216525Y-97176632D01*
X207348380Y-97308487D01*
X207275820Y-97330498D01*
X207165506Y-97389463D01*
X207068815Y-97468815D01*
X206989463Y-97565506D01*
X206930498Y-97675820D01*
X206894188Y-97795518D01*
X206881928Y-97920000D01*
X205440345Y-97920000D01*
X205485000Y-97695505D01*
X205485000Y-97304495D01*
X205408718Y-96920997D01*
X205259085Y-96559750D01*
X205041851Y-96234636D01*
X204765364Y-95958149D01*
X204440250Y-95740915D01*
X204079003Y-95591282D01*
X203695505Y-95515000D01*
X203304495Y-95515000D01*
X202920997Y-95591282D01*
X202559750Y-95740915D01*
X202234636Y-95958149D01*
X201958149Y-96234636D01*
X201740915Y-96559750D01*
X201591282Y-96920997D01*
X201515000Y-97304495D01*
X200685000Y-97304495D01*
X200685000Y-97033505D01*
X200732312Y-96550984D01*
X200862714Y-96119070D01*
X201074524Y-95720715D01*
X201359675Y-95371086D01*
X201707303Y-95083503D01*
X202104177Y-94868914D01*
X202535161Y-94735502D01*
X203015654Y-94685000D01*
X261966495Y-94685000D01*
X262449016Y-94732312D01*
M02*
