M48
; DRILL file {KiCad (5.1.5)-3} date 10/26/2020 9:13:57 AM
; FORMAT={-:-/ absolute / inch / decimal}
; #@! TF.CreationDate,2020-10-26T09:13:57-05:00
; #@! TF.GenerationSoftware,Kicad,Pcbnew,(5.1.5)-3
; #@! TF.FileFunction,Plated,1,2,PTH
FMAT,2
INCH
T1C0.0394
T2C0.0469
%
G90
G05
T1
X8.2035Y-3.7886
X8.2035Y-3.8886
X8.3035Y-3.7886
X8.3035Y-3.8886
X8.4035Y-3.7886
X8.4035Y-3.8886
X8.5035Y-3.7886
X8.5035Y-3.8886
X8.6035Y-3.7886
X8.6035Y-3.8886
X8.7035Y-3.7886
X8.7035Y-3.8886
X8.8035Y-3.7886
X8.8035Y-3.8886
X8.9035Y-3.7886
X8.9035Y-3.8886
X9.0035Y-3.7886
X9.0035Y-3.8886
X9.1035Y-3.7886
X9.1035Y-3.8886
X9.2035Y-3.7886
X9.2035Y-3.8886
X9.3035Y-3.7886
X9.3035Y-3.8886
X9.4035Y-3.7886
X9.4035Y-3.8886
X9.5035Y-3.7886
X9.5035Y-3.8886
X9.6035Y-3.7886
X9.6035Y-3.8886
X9.7035Y-3.7886
X9.7035Y-3.8886
X9.8035Y-3.7886
X9.8035Y-3.8886
X9.9035Y-3.7886
X9.9035Y-3.8886
X10.0035Y-3.7886
X10.0035Y-3.8886
X10.1035Y-3.7886
X10.1035Y-3.8886
T2
X8.4169Y-4.1735
X8.4169Y-4.2735
T0
M30
